<svg version="1.1" id="logo-default" xmlns="http://www.w3.org/2000/svg" xmlns:xlink="http://www.w3.org/1999/xlink" x="0px"
	 y="0px" viewBox="0 0 1000 140" enable-background="new 0 0 1000 140" xml:space="preserve">
<path fill="#FFFFFF" d="M0,140l18.5-29.6H126c6.1,0,10.1-4,10.1-10.1V83.1H43.7C16.1,83.1,4,70.9,4,43.9V32.3C4,12.2,15.9,0,34.7,0
	h2.1v43.4c0,6.1,4,10.1,10.1,10.1h89.5c20.4,0,32.6,12.2,32.6,32v15.3c0,26.2-13,39.2-39.7,39.2L0,140z M643.9,109.8H727
	c13.8,0,22.5-8.5,22.5-21.7V51.9c0-13.2-8.7-21.7-22.5-21.7h-83.1V109.8z M610.5,140V0h117.2c34.9,0,55,20.1,55,53.5v33.1
	c0,33.3-20.1,53.5-55,53.5H610.5z M448.9,109.8h70.1c12.7,0,20.9-7.9,20.9-20.4V50.5c0-12.4-8.2-20.4-20.9-20.4h-70.1
	c-12.7,0-20.9,7.9-20.9,20.4v38.9C428,101.9,436.2,109.8,448.9,109.8z M519.9,140h-71.7c-33.9,0-53.5-19.6-53.5-52.1V52.1
	c0-32.6,19.6-52.1,53.5-52.1h71.7c33.9,0,53.5,19.6,53.5,52.1v35.7C573.3,120.4,553.7,140,519.9,140z M796.5,140L875.1,0h46.3
	l78.6,140h-38.1l-13.5-24.1h-67l-18-28.6L833.8,140H796.5z M864.2,85.7h67.2l-33.6-59.5L864.2,85.7z M69.6,29.1L50.5,0h115.1
	l-18.5,29.1H69.6z M205.5,140V0h33.3v54.5h44.2L340.5,0h44.2l-73,69.6L386,140h-46.8l-57.4-55.3h-42.9V140H205.5z"/>
</svg>
