<svg version="1.1" id="logo-full" xmlns="http://www.w3.org/2000/svg" xmlns:xlink="http://www.w3.org/1999/xlink" x="0px" y="0px"
	 viewBox="0 0 1000 686" enable-background="new 0 0 1000 686" xml:space="preserve">
<path fill="#FFFFFF" d="M484,0C360.3,0,260,100.3,260,224s100.3,224,224,224s224-100.3,224-224S607.7,0,484,0z M484,428.7
	c-113,0-204.7-91.6-204.7-204.7S371,19.3,484,19.3S688.7,111,688.7,224S597,428.7,484,428.7z M580.9,293.6l-5,13.6h-18.4
	c4.9-13.2,66.8-160.9-54.8-261c-25.5-2.7-51.3,0.2-75.7,8.4c4.1,3.3,46.2,37.8,66,80.5l-5.8,1.6c-10.9-11.9-50.7-55.7-88.6-69.8
	C378.3,78,360.2,93,345.5,111c17.8,9.1,64.3,36.9,81.9,58.4c-1,0.5-5,2.6-5,2.6c-32.4-24.6-90-37.4-92.9-38
	c-12.1,20.7-19.9,43.6-22.9,67.4c89.1,17.9,113.2,59.2,117.3,105.9h-16.9l-29-12.6c-1.5-0.6-3.1-0.9-4.7-1h-54
	c8.6,20.2,20.7,38.6,36,54.4h23c1.9,0.1,3.8-0.3,5.5-1.2l23.3-11.9h168.8l5,13.6c21-2.4,40.4-12.1,55-27.4
	C621.3,305.8,601.8,296.1,580.9,293.6z M515.9,286.6c-12.2,0-22.1-9.9-22.1-22.1c0-12.2,9.9-22.1,22.1-22.1
	c12.2,0,22.1,9.9,22.1,22.1C538,276.7,528.1,286.6,515.9,286.6L515.9,286.6z"/>
<path fill="#FFFFFF" d="M0,686l18.5-29.6H126c6.1,0,10.1-4,10.1-10.1v-17.2H43.7C16.1,629.1,4,616.9,4,589.9v-11.6
	C4,558.2,15.9,546,34.7,546h2.1v43.4c0,6.1,4,10.1,10.1,10.1h89.5c20.4,0,32.6,12.2,32.6,32v15.3c0,26.2-13,39.2-39.7,39.2L0,686z
	 M643.9,655.8H727c13.8,0,22.5-8.5,22.5-21.7v-36.3c0-13.2-8.7-21.7-22.5-21.7h-83.1V655.8z M610.5,686V546h117.2
	c34.9,0,55,20.1,55,53.5v33.1c0,33.3-20.1,53.5-55,53.5H610.5z M448.9,655.8h70.1c12.7,0,20.9-7.9,20.9-20.4v-38.9
	c0-12.4-8.2-20.4-20.9-20.4h-70.1c-12.7,0-20.9,7.9-20.9,20.4v38.9C428,647.9,436.2,655.8,448.9,655.8z M519.9,686h-71.7
	c-33.9,0-53.5-19.6-53.5-52.1v-35.7c0-32.6,19.6-52.1,53.5-52.1h71.7c33.9,0,53.5,19.6,53.5,52.1v35.7
	C573.3,666.4,553.7,686,519.9,686z M796.5,686l78.6-140h46.3l78.6,140h-38.1l-13.5-24.1h-67l-18-28.6L833.8,686H796.5z M864.2,631.7
	h67.2l-33.6-59.5L864.2,631.7z M69.6,575.1L50.5,546h115.1l-18.5,29.1H69.6z M205.5,686V546h33.3v54.5h44.2l57.4-54.5h44.2l-73,69.6
	L386,686h-46.8l-57.4-55.3h-42.9V686H205.5z"/>
</svg>
