<?xml version="1.0" encoding="utf-8"?>
<!-- Generator: Adobe Illustrator 25.2.1, SVG Export Plug-In . SVG Version: 6.00 Build 0)  -->
<svg version="1.1" id="border" xmlns="http://www.w3.org/2000/svg" xmlns:xlink="http://www.w3.org/1999/xlink" x="0px" y="0px"
	 viewBox="0 0 79.2 14.4" style="enable-background:new 0 0 79.2 14.4;" xml:space="preserve">
<style type="text/css">
	.st0{fill:#E30613;}
	.st1{fill:#004F9F;}
</style>
<path class="st0" d="M63.7,0.4c0.1-0.1,0.1-0.1,0.1-0.1c0.1,0,0.1,0.1,0.1,0.1c0,0.1,0,0.1-0.1,0.1c-1.4,1.7-2.4,3.8-2.4,6.6
	s1,4.8,2.4,6.5l0.1,0.1c0,0.1-0.1,0.1-0.1,0.1s-0.1,0-0.1-0.1l-6-5.7c-0.3-0.3-0.5-0.6-0.5-1s0.2-0.7,0.5-1L63.7,0.4"/>
<path class="st1" d="M68.3,0c-2.3,0-3.2,3.3-3.2,7.2s0.9,7.2,3.2,7.2c1.4,0,2.6-0.8,2.6-1.5c0-0.2-0.1-0.3-0.2-0.4
	c-0.7-0.6-0.9-1.3-0.9-1.9c0-1.1,0.9-1.9,1.8-1.9c1.2,0,1.9,0.9,1.9,2.2c0,1.1-0.5,2.1-1,2.8v0.1c0,0.1,0,0.1,0.1,0.1
	c0,0,0.1,0,0.1-0.1l6-5.7c0.3-0.3,0.5-0.6,0.5-1s-0.2-0.7-0.5-1l-6-5.7c-0.1-0.1-0.1-0.1-0.1-0.1c-0.1,0-0.1,0.1-0.1,0.1v0.1
	c0.5,0.8,1,1.7,1,2.8c0,1.2-0.7,2.2-1.9,2.2c-0.9,0-1.8-0.8-1.8-1.9c0-0.6,0.3-1.2,0.9-1.9c0.1-0.1,0.2-0.3,0.2-0.4
	C70.8,0.8,69.6,0,68.3,0 M7.9,9.6c0-0.6,0.3-1.1,0.7-1.4c0.5-0.3,1.1-0.5,1.8-0.5c0.5,0,0.9,0.1,1.3,0.2V7.2c0-0.7-0.3-1.1-1-1.1
	c-0.2,0-0.5,0.1-0.7,0.1c0,0.1,0.1,0.2,0.1,0.3c0,0.2-0.1,0.5-0.2,0.6C9.7,7.3,9.6,7.3,9.3,7.3C8.8,7.3,8.5,7,8.5,6.5
	c0-0.8,1-1.4,2.3-1.4c1.1,0,1.7,0.2,2.1,0.7c0.3,0.4,0.3,1,0.3,1.9v2.2c0,0.5,0.2,0.6,0.8,0.6h0.1v0.1c0,0.6-0.5,0.8-0.9,0.9
	c-0.1,0-0.1,0-0.1,0c-0.5,0-0.9-0.2-1.1-0.7c-0.3,0.2-0.9,0.7-1.8,0.7C8.9,11.5,7.9,10.7,7.9,9.6 M45.8,11.2
	c-0.1-0.2-0.2-0.3-0.2-0.6c-0.1,0.1-0.2,0.2-0.2,0.2c-0.4,0.4-0.9,0.6-1.5,0.6s-1.2-0.2-1.5-0.7c-0.5-0.6-0.5-1.5-0.5-2.6V7
	c0-0.5-0.2-0.6-0.6-0.6c-0.1,0-0.1,0-0.2,0H41V6.3c0-0.1-0.1-0.2-0.1-0.2c0-0.6,0.7-0.9,1.1-0.9c0.2,0,0.3-0.1,0.4-0.1
	c0.3,0,0.6,0.1,0.7,0.3c0.2,0.2,0.2,0.5,0.2,0.7V8c0,0.7,0.1,1.3,0.2,1.5c0.2,0.3,0.4,0.5,0.9,0.5s0.8-0.2,1-0.5s0.2-0.7,0.2-1.1
	V6.9c0-0.5-0.2-0.6-0.6-0.6c-0.1,0-0.1,0-0.2,0h0.1V6.2c0-0.1-0.1-0.2-0.1-0.2c0-0.6,0.7-0.9,1.1-0.9c0.2,0,0.3-0.1,0.4-0.1
	c0.3,0,0.6,0.1,0.7,0.3c0.2,0.2,0.2,0.5,0.2,0.7s0,0.6,0,2.2c0,0.7,0,1.1,0,1.1c0,0.5,0.2,0.7,0.6,0.7c0.1,0,0.1,0,0.2,0h0.1v0.1
	c0,0.1,0.1,0.2,0.1,0.2c0,0.5-0.7,0.7-1.1,0.8c-0.2,0-0.3,0.1-0.4,0.1l0,0C46.2,11.5,46,11.4,45.8,11.2 M24.1,8.5
	c0-0.9,0.3-1.8,0.9-2.3s1.3-0.9,2.3-0.9c0.9,0,1.5,0.3,1.9,0.8s0.6,1,0.6,1.5c0,0.3-0.1,0.6-0.2,0.9l0,0h-3.8c0.1,1.1,0.8,1.9,2,1.9
	c0.7,0,1.3-0.4,1.5-0.6l0.1-0.1l0.1,0.1c0.1,0.1,0.2,0.2,0.2,0.5c0,0.6-0.7,1.4-2.4,1.4C25.5,11.5,24.1,10.2,24.1,8.5 M37.4,11.5
	c-0.9,0-1.6-0.3-2.2-0.9s-0.9-1.4-0.9-2.3c0-1.9,1.5-3.1,3.1-3.1c0.9,0,1.7,0.3,2.2,0.9c0.6,0.6,0.9,1.4,0.9,2.3s-0.3,1.7-0.9,2.3
	C39.1,11.2,38.3,11.5,37.4,11.5L37.4,11.5z M49,11.3c-0.3-0.1-0.5-0.2-0.5-0.5c0-0.1,0-0.2,0.1-0.3l0,0l0,0c0.1,0,0.3-0.1,0.4-0.2
	c0.2-0.1,0.2-0.3,0.2-0.8V7c0-0.5-0.1-0.6-0.5-0.6c-0.1,0-0.2,0-0.3,0h-0.1V6.3c-0.1-0.1-0.1-0.2-0.1-0.3c0-0.5,0.6-0.8,0.9-0.9
	C49.3,5,49.4,5,49.5,5c0.5,0,0.8,0.3,0.9,0.8c0.3-0.6,0.9-0.9,1.4-0.9s1,0.3,1,0.9c0,0.5-0.3,0.9-0.8,0.9c-0.4,0-0.7-0.2-0.8-0.6
	c-0.3,0.1-0.7,0.5-0.7,1.7v1.5c0,0.5,0.1,0.7,0.2,0.8c0.2,0.1,0.5,0.2,0.6,0.2l0,0l0,0c0.1,0.1,0.1,0.2,0.1,0.3
	c0,0.2-0.2,0.3-0.4,0.4c-0.2,0.1-0.6,0.1-1.1,0.1C49.5,11.3,49.3,11.4,49,11.3 M30.8,11.3c-0.3-0.1-0.5-0.2-0.5-0.5
	c0-0.1,0-0.2,0.1-0.3l0,0l0,0c0.1,0,0.3-0.1,0.4-0.2C31,10.2,31,10,31,9.5V6.2h-0.9V6.1C30,6,30,5.9,30,5.8c0-0.3,0.2-0.5,0.6-0.5
	H31V5c0-0.9,0.2-1.4,0.4-1.7c0.3-0.5,1-0.9,1.9-0.9c1.1,0,2.1,0.5,2.2,1.4c0,0.4-0.3,0.9-0.8,0.9c-0.4,0-0.8-0.3-0.8-0.8
	c0-0.2,0.1-0.3,0.1-0.5c-0.1-0.1-0.3-0.2-0.6-0.2s-0.6,0.1-0.7,0.3S32.5,4,32.5,4.4v1H34v0.1c0.1,0.1,0.1,0.2,0.1,0.3
	c0,0.3-0.2,0.6-0.5,0.6c-0.1,0-0.2,0-0.3,0c-0.3,0-0.5,0-0.7,0v3.3c0,0.5,0.1,0.7,0.2,0.8c0.2,0.1,0.5,0.2,0.6,0.2l0,0l0,0
	c0.1,0.1,0.1,0.2,0.1,0.2c0,0.2-0.2,0.3-0.5,0.5c-0.3,0.1-0.7,0.1-1.2,0.1C31.4,11.4,31,11.4,30.8,11.3 M20.1,11.3
	c-0.3-0.1-0.5-0.2-0.5-0.5c0-0.1,0-0.2,0.1-0.3l0,0l0,0c0.1,0,0.3-0.1,0.4-0.2c0.1-0.1,0.2-0.3,0.2-0.8V7c0-0.5-0.1-0.6-0.5-0.6
	c-0.1,0-0.2,0-0.3,0h-0.1V6.3c-0.1-0.1-0.1-0.2-0.1-0.3c0-0.5,0.6-0.8,0.9-0.9C20.4,5,20.5,5,20.6,5c0.5,0,0.8,0.3,0.9,0.8
	c0.3-0.5,0.9-0.9,1.4-0.9s1,0.3,1,0.9c0,0.5-0.3,0.9-0.8,0.9c-0.4,0-0.7-0.2-0.8-0.6c-0.3,0.1-0.7,0.5-0.7,1.7v1.5
	c0,0.5,0.1,0.7,0.2,0.8c0.2,0.1,0.5,0.2,0.6,0.2l0,0l0,0c0.1,0.1,0.1,0.2,0.1,0.3c0,0.2-0.2,0.3-0.4,0.4c-0.2,0.1-0.6,0.1-1.1,0.1
	C20.7,11.4,20.3,11.4,20.1,11.3 M15,11.3c-0.3-0.1-0.5-0.2-0.5-0.5c0-0.1,0-0.2,0.1-0.3l0,0l0,0c0.1,0,0.3-0.1,0.4-0.2
	c0.2-0.1,0.2-0.3,0.2-0.8V7c0-0.5-0.1-0.6-0.5-0.6c-0.1,0-0.2,0-0.3,0h-0.1V6.3c-0.1-0.1-0.1-0.2-0.1-0.3c0-0.5,0.6-0.8,0.9-0.9
	C15.3,5,15.4,5,15.5,5c0.5,0,0.8,0.3,0.9,0.8c0.3-0.5,0.9-0.9,1.4-0.9s1,0.3,1,0.9c0,0.5-0.3,0.9-0.8,0.9c-0.4,0-0.7-0.2-0.8-0.6
	c-0.3,0.1-0.7,0.5-0.7,1.7v1.5c0,0.5,0.1,0.7,0.2,0.8c0.2,0.1,0.5,0.2,0.6,0.2l0,0l0,0c0.1,0.1,0.1,0.2,0.1,0.3
	c0,0.2-0.2,0.3-0.4,0.4c-0.2,0.1-0.6,0.1-1.1,0.1C15.7,11.4,15.3,11.4,15,11.3 M36.1,8.2c0,1.7,0.7,2.4,1.4,2.4
	c0.8,0,1.4-0.7,1.4-2.1c0-0.7-0.2-1.3-0.5-1.7s-0.6-0.6-1-0.6C36.6,6.1,36.1,6.9,36.1,8.2 M10.7,8.5c-0.7,0-1.1,0.3-1.1,0.9
	c0,0.6,0.4,1,1,1c0.4,0,0.8-0.2,1.1-0.6V8.9c0-0.1-0.1-0.2-0.2-0.3C11.2,8.6,11,8.5,10.7,8.5 M27.9,7.5c0.1,0,0.2,0,0.2-0.1
	s0-0.1,0-0.2c0-0.6-0.5-1.1-1.1-1.1c-0.9,0-1.3,0.7-1.3,1.4L27.9,7.5L27.9,7.5z M1.2,10.4C0.5,9.7,0,8.5,0,7.2S0.5,4.8,1.2,4
	s1.7-1.3,2.7-1.3c1.9,0,3.2,1.3,3.2,2.4c0,0.6-0.4,1.1-0.9,1.1C5.9,6.2,5.7,6.1,5.5,6C5.3,5.8,5.2,5.6,5.2,5.3s0.2-0.6,0.3-0.7
	C5.3,4.1,4.8,3.8,4,3.8c-0.6,0-1.2,0.3-1.6,0.9S1.8,6.1,1.8,7.1S2,8.9,2.4,9.5c0.4,0.6,1,0.9,1.6,0.9c0.8,0,1.3-0.3,1.5-0.8
	C5.3,9.4,5.2,9.3,5.2,8.9c0-0.3,0.1-0.5,0.3-0.7S5.9,8,6.2,8c0.5,0,0.9,0.5,0.9,1.1c0,1.1-1.3,2.4-3.2,2.4
	C2.9,11.6,1.9,11.2,1.2,10.4 M1.2,10.4C0.5,9.7,0,8.5,0,7.2S0.5,4.8,1.2,4s1.7-1.3,2.7-1.3c1.9,0,3.2,1.3,3.2,2.4
	c0,0.6-0.4,1.1-0.9,1.1C5.9,6.2,5.7,6.1,5.5,6C5.3,5.8,5.2,5.6,5.2,5.3s0.2-0.6,0.3-0.7C5.3,4.1,4.8,3.8,4,3.8
	c-0.6,0-1.2,0.3-1.6,0.9S1.8,6.1,1.8,7.1S2,8.9,2.4,9.5c0.4,0.6,1,0.9,1.6,0.9c0.8,0,1.3-0.3,1.5-0.8C5.3,9.4,5.2,9.3,5.2,8.9
	c0-0.3,0.1-0.5,0.3-0.7S5.9,8,6.2,8c0.5,0,0.9,0.5,0.9,1.1c0,1.1-1.3,2.4-3.2,2.4C2.9,11.6,1.9,11.2,1.2,10.4 M1.2,10.4
	C0.5,9.7,0,8.5,0,7.2S0.5,4.8,1.2,4s1.7-1.3,2.7-1.3c1.9,0,3.2,1.3,3.2,2.4c0,0.6-0.4,1.1-0.9,1.1C5.9,6.2,5.7,6.1,5.5,6
	C5.3,5.8,5.2,5.6,5.2,5.3s0.2-0.6,0.3-0.7C5.3,4.1,4.8,3.8,4,3.8c-0.6,0-1.2,0.3-1.6,0.9S1.8,6.1,1.8,7.1S2,8.9,2.4,9.5
	c0.4,0.6,1,0.9,1.6,0.9c0.8,0,1.3-0.3,1.5-0.8C5.3,9.4,5.2,9.3,5.2,8.9c0-0.3,0.1-0.5,0.3-0.7S5.9,8,6.2,8c0.5,0,0.9,0.5,0.9,1.1
	c0,1.1-1.3,2.4-3.2,2.4C2.9,11.6,1.9,11.2,1.2,10.4"/>
</svg>
