<?xml version="1.0" encoding="utf-8"?>
<!-- Generator: Adobe Illustrator 25.2.0, SVG Export Plug-In . SVG Version: 6.00 Build 0)  -->
<svg version="1.1" xmlns="http://www.w3.org/2000/svg" xmlns:xlink="http://www.w3.org/1999/xlink" x="0px" y="0px"
	 viewBox="0 0 160 107" style="enable-background:new 0 0 160 107;" xml:space="preserve">
<style type="text/css">
	.st0{clip-path:url(#SVGID_2_);}
	.st1{fill:#FFFFFF;}
	.st2{clip-path:url(#SVGID_4_);}
</style>
<g id="Calque_2">
</g>
<g id="Calque_1">
	<g>
		<g>
			<defs>
				<rect id="SVGID_1_" x="0.5" y="1.1" width="158.7" height="105.2"/>
			</defs>
			<clipPath id="SVGID_2_">
				<use xlink:href="#SVGID_1_"  style="overflow:visible;"/>
			</clipPath>
			<g class="st0">
				
					<image style="overflow:visible;opacity:0.75;" width="79" height="130" xlink:href="20546431.png"  transform="matrix(1 0 0 1 -8 -4)">
				</image>
				<g>
					<path class="st1" d="M47.5,4.7l-43.4,42c-2.2,1.8-3.6,4-3.6,7.1s1.4,5.2,3.6,7.1l43.4,42c0.3,0.3,0.5,0.4,0.8,0.4
						c0.4,0,0.7-0.4,0.7-0.8c0-0.3-0.1-0.6-0.4-0.8C38.4,88.9,31,74.4,31,53.9s7.4-35.3,17.6-48C48.9,5.6,49,5.4,49,5.1
						c0-0.5-0.3-0.8-0.7-0.8C48,4.3,47.8,4.4,47.5,4.7"/>
				</g>
			</g>
		</g>
		<g>
			<defs>
				<rect id="SVGID_3_" x="0.5" y="1.1" width="158.7" height="105.2"/>
			</defs>
			<clipPath id="SVGID_4_">
				<use xlink:href="#SVGID_3_"  style="overflow:visible;"/>
			</clipPath>
			<g class="st2">
				
					<image style="overflow:visible;opacity:0.75;" width="133" height="136" xlink:href="20546433.png"  transform="matrix(1 0 0 1 49 -7)">
				</image>
				<g>
					<path class="st1" d="M80.8,1.1c-17,0-23.6,24.1-23.6,52.8s6.6,52.5,23.6,52.5c10.2,0,18.9-6,18.9-10.9c0-1.1-0.4-2.1-1.3-3
						c-4.8-4.7-6.7-9.3-6.7-13.5c0-7.9,6.8-13.7,13.1-13.7c8.6,0,13.7,6.8,13.7,15.6c0,8.3-3.6,15.3-7.4,20.8
						c-0.2,0.2-0.2,0.5-0.2,0.7c0,0.4,0.3,0.8,0.6,0.8c0.2,0,0.5-0.1,0.8-0.4l43.4-42c2.2-1.9,3.6-4,3.6-7.1s-1.4-5.3-3.6-7.1
						l-43.4-42c-0.3-0.3-0.6-0.4-0.8-0.4c-0.4,0-0.6,0.4-0.6,0.8c0,0.2,0.1,0.5,0.2,0.7c3.9,5.6,7.4,12.5,7.4,20.8
						c0,8.8-5.1,15.6-13.7,15.6c-6.3,0-13.1-5.8-13.1-13.7c0-4.1,1.9-8.8,6.7-13.4c0.9-0.9,1.3-1.9,1.3-3C99.7,7.1,91,1.1,80.8,1.1"
						/>
				</g>
			</g>
		</g>
	</g>
</g>
</svg>
