<?xml version="1.0" encoding="utf-8"?>
<!-- Generator: Adobe Illustrator 16.0.0, SVG Export Plug-In . SVG Version: 6.00 Build 0)  -->
<svg version="1.1" id="Layer_1" xmlns="http://www.w3.org/2000/svg" xmlns:xlink="http://www.w3.org/1999/xlink" x="0px" y="0px"
	 width="36px" height="108px" viewBox="0 0 36 108" enable-background="new 0 0 36 108" xml:space="preserve">
<g>
	<g>
		<rect fill="#1C69D4" width="18" height="108"/>
		<path fill="#FFFFFF" d="M13.715,22.078v9.637h-2.677h-0.329H4.077v-9.637h6.631h0.329H13.715z"/>
		<path fill="#FFFFFF" d="M4.448,2.965H5l9.085,5.583v0.37L5,14.827H4.448V2.965z"/>
		<path fill="#FFFFFF" d="M13.715,40.078h-3.336v9.637h3.336V40.078z M7.413,49.715H4.077v-9.637h3.336V49.715z"/>
		<path fill="#FFFFFF" d="M12.784,62.734c0-1.285-0.366-2.534-1.06-3.61l-1.248,0.802c0.54,0.837,0.824,1.809,0.824,2.809
			c0,0.999-0.284,1.97-0.824,2.807l1.248,0.801C12.417,65.268,12.784,64.019,12.784,62.734 M15.749,62.734
			c0-1.856-0.529-3.659-1.529-5.212l-1.247,0.803c0.847,1.313,1.293,2.837,1.293,4.409c0,1.57-0.448,3.096-1.293,4.41l1.247,0.803
			C15.22,66.392,15.749,64.59,15.749,62.734 M5.37,60.672l3.336-3.336h0.189v11.12H8.706L5.37,65.12H3.517
			c-0.614,0-1.293-0.662-1.293-1.275v-2.224c0-0.613,0.68-0.949,1.293-0.949H5.37L5.37,60.672z"/>
		<path fill="#FFFFFF" d="M3.517,78.673c-0.613,0-1.292,0.335-1.292,0.949v2.224c0,0.613,0.679,1.274,1.292,1.274h1.854l3.336,3.336
			h0.19V75.338h-0.19l-3.336,3.335H3.517z M14.203,80.734l1.7,1.699l-1.049,1.047l-1.7-1.697l-1.7,1.697l-1.048-1.047l1.7-1.699
			l-1.7-1.701l1.048-1.047l1.7,1.7l1.7-1.7l1.049,1.047L14.203,80.734z"/>
		<path fill="#FFFFFF" d="M10.379,98.896l3.892,3.893l-1.482,1.482l-3.892-3.893l-3.893,3.893l-1.482-1.482l3.892-3.893
			l-3.892-3.892l1.482-1.482l3.893,3.891l3.892-3.891l1.482,1.482L10.379,98.896z"/>
	</g>
	<g>
		<rect x="18" fill="#0653B6" width="18" height="108"/>
		<path fill="#FFFFFF" d="M31.715,22.078v9.637h-2.677h-0.329h-6.632v-9.637h6.632h0.329H31.715z"/>
		<path fill="#FFFFFF" d="M22.448,2.965H23l9.086,5.583v0.37L23,14.828h-0.552V2.965z"/>
		<path fill="#FFFFFF" d="M31.715,40.078h-3.336v9.637h3.336V40.078z M25.413,49.715h-3.336v-9.637h3.336V49.715z"/>
		<path fill="#FFFFFF" d="M30.784,62.734c0-1.285-0.367-2.534-1.061-3.61l-1.247,0.802c0.539,0.837,0.824,1.809,0.824,2.809
			c0,0.999-0.285,1.97-0.824,2.807l1.247,0.801C30.417,65.268,30.784,64.019,30.784,62.734 M33.749,62.734
			c0-1.856-0.528-3.659-1.529-5.212l-1.247,0.803c0.848,1.313,1.294,2.837,1.294,4.409c0,1.57-0.448,3.096-1.294,4.41l1.247,0.803
			C33.221,66.392,33.749,64.59,33.749,62.734 M23.37,60.672l3.336-3.336h0.189v11.12h-0.189L23.37,65.12h-1.854
			c-0.614,0-1.294-0.662-1.294-1.275v-2.224c0-0.613,0.68-0.949,1.294-0.949H23.37L23.37,60.672z"/>
		<path fill="#FFFFFF" d="M21.517,78.673c-0.612,0-1.292,0.335-1.292,0.949v2.224c0,0.613,0.68,1.274,1.292,1.274h1.854l3.336,3.336
			h0.189V75.338h-0.189l-3.336,3.335H21.517z M32.203,80.734l1.7,1.699l-1.049,1.047l-1.699-1.697l-1.7,1.697l-1.048-1.047
			l1.699-1.699l-1.699-1.701l1.048-1.047l1.7,1.7l1.699-1.7l1.049,1.047L32.203,80.734z"/>
		<path fill="#FFFFFF" d="M28.379,98.896l3.893,3.893l-1.482,1.482l-3.893-3.893l-3.894,3.893l-1.481-1.482l3.892-3.893
			l-3.892-3.892l1.481-1.482l3.894,3.891l3.893-3.891l1.482,1.482L28.379,98.896z"/>
	</g>
</g>
</svg>
