<?xml version="1.0" encoding="utf-8"?>
<!-- Generator: Adobe Illustrator 16.0.0, SVG Export Plug-In . SVG Version: 6.00 Build 0)  -->
<!DOCTYPE svg PUBLIC "-//W3C//DTD SVG 1.1//EN" "http://www.w3.org/Graphics/SVG/1.1/DTD/svg11.dtd">
<svg version="1.1" id="Layer_1" xmlns="http://www.w3.org/2000/svg" xmlns:xlink="http://www.w3.org/1999/xlink" x="0px" y="0px"
	 width="30px" height="30px" viewBox="0 0 30 30" enable-background="new 0 0 30 30" xml:space="preserve">
<g>
	<g>
		<path fill="#E6E7E8" d="M15,13.181c-1.606,0-2.907,1.222-2.907,2.729s1.301,2.729,2.907,2.729c1.604,0,2.907-1.222,2.907-2.729
			S16.604,13.181,15,13.181z M22.753,10.453h-2.326c-0.319,0-0.664-0.233-0.765-0.518l-0.602-1.693
			c-0.102-0.285-0.445-0.518-0.766-0.518h-6.59c-0.32,0-0.665,0.233-0.766,0.518l-0.601,1.693c-0.101,0.285-0.446,0.518-0.765,0.518
			H7.247c-1.066,0-1.938,0.819-1.938,1.819v8.185c0,1,0.873,1.819,1.938,1.819h15.506c1.066,0,1.938-0.819,1.938-1.819v-8.185
			C24.691,11.271,23.819,10.453,22.753,10.453z M15,20.457c-2.677,0-4.846-2.036-4.846-4.547c0-2.512,2.169-4.547,4.846-4.547
			c2.676,0,4.846,2.036,4.846,4.547C19.846,18.421,17.676,20.457,15,20.457z M22.075,13.544c-0.375,0-0.679-0.285-0.679-0.636
			c0-0.352,0.304-0.637,0.679-0.637s0.678,0.285,0.678,0.637C22.753,13.259,22.45,13.544,22.075,13.544z"/>
	</g>
</g>
</svg>
