<?xml version="1.0" encoding="utf-8"?>
<!-- Generator: Adobe Illustrator 23.0.3, SVG Export Plug-In . SVG Version: 6.00 Build 0)  -->
<svg version="1.1" id="Calque_1" xmlns="http://www.w3.org/2000/svg" xmlns:xlink="http://www.w3.org/1999/xlink" x="0px" y="0px"
	 viewBox="0 0 16 16" style="enable-background:new 0 0 16 16;" xml:space="preserve">
<style type="text/css">
	.st0{fill:#FFFFFF;}
</style>
<path class="st0" d="M3,3v10h10V3H3z M6.1,12.4H3.6V9.9h2.5V12.4z M6.1,9.3H3.6V6.8h2.5V9.3z M6.1,6.1H3.6V3.6h2.5V6.1z M9.3,12.4
	H6.8V9.9h2.5V12.4z M9.3,9.3H6.8V6.8h2.5V9.3z M9.3,6.1H6.8V3.6h2.5V6.1z M12.4,12.4H9.9V9.9h2.5V12.4z M12.4,9.3H9.9V6.8h2.5V9.3z
	 M12.4,6.1H9.9V3.6h2.5V6.1z"/>
</svg>
