<?xml version="1.0" encoding="utf-8"?>
<!-- Generator: Adobe Illustrator 23.0.3, SVG Export Plug-In . SVG Version: 6.00 Build 0)  -->
<svg version="1.1" id="Capa_1" xmlns="http://www.w3.org/2000/svg" xmlns:xlink="http://www.w3.org/1999/xlink" x="0px" y="0px"
	 viewBox="0 0 418 418" style="enable-background:new 0 0 418 418;" xml:space="preserve">
<style type="text/css">
	.st0{fill:#FFFFFF;}
</style>
<path class="st0" d="M274.3,91.6c3.1-3.1,4.1-7.9,2.4-12c-1.7-4.1-5.7-6.8-10.2-6.8h-115c-4.4,0-8.5,2.7-10.2,6.8
	c-0.6,1.4-0.8,2.8-0.8,4.2c0,2.9,1.1,5.7,3.2,7.8l57.5,57.5c2.1,2.1,4.9,3.2,7.8,3.2s5.7-1.2,7.8-3.2L274.3,91.6z M276.7,338.4
	c1.7-4.1,0.8-8.8-2.4-12l-57.5-57.5c-2.1-2.1-4.9-3.2-7.8-3.2s-5.7,1.2-7.8,3.2l-57.5,57.5c-2.1,2.1-3.2,4.9-3.2,7.8
	c0,1.4,0.3,2.8,0.8,4.2c1.7,4.1,5.7,6.8,10.2,6.8h115C271,345.2,275,342.5,276.7,338.4z M418,212v-6c0-6.1-4.9-11-11-11h-35
	c-6.1,0-11,4.9-11,11v6c0,6.1,4.9,11,11,11h35C413.1,223,418,218.1,418,212z M322.6,212v-6c0-6.1-4.9-11-11-11h-72.5
	c-6.1,0-11,4.9-11,11v6c0,6.1,4.9,11,11,11h72.5C317.7,223,322.6,218.1,322.6,212z M189.8,212v-6c0-6.1-4.9-11-11-11h-72.5
	c-6.1,0-11,4.9-11,11v6c0,6.1,4.9,11,11,11h72.5C184.9,223,189.8,218.1,189.8,212z M57,212v-6c0-6.1-4.9-11-11-11H11
	c-6.1,0-11,4.9-11,11v6c0,6.1,4.9,11,11,11h35C52.1,223,57,218.1,57,212z"/>
</svg>
