<?xml version="1.0" encoding="utf-8"?>
<!-- Generator: Adobe Illustrator 23.0.3, SVG Export Plug-In . SVG Version: 6.00 Build 0)  -->
<svg version="1.1" id="Capa_1" xmlns="http://www.w3.org/2000/svg" xmlns:xlink="http://www.w3.org/1999/xlink" x="0px" y="0px"
	 viewBox="0 0 60.1 45.3" style="enable-background:new 0 0 60.1 45.3;" xml:space="preserve">
<style type="text/css">
	.st0{fill:#FFFFFF;}
</style>
<path class="st0" d="M57.1,44.5H16.9c-1.7,0-3-1.3-3-3s1.3-3,3-3h40.2c1.7,0,3,1.3,3,3S58.8,44.5,57.1,44.5z M57.1,25.6H16.9
	c-1.7,0-3-1.3-3-3s1.3-3,3-3h40.2c1.7,0,3,1.3,3,3C60.1,24.3,58.8,25.6,57.1,25.6z M57.1,6.8H16.9c-1.7,0-3-1.3-3-3s1.3-3,3-3h40.2
	c1.7,0,3,1.3,3,3S58.8,6.8,57.1,6.8z M4,0c2.2,0,4,1.8,4,4s-1.8,4-4,4S0,6.3,0,4S1.8,0,4,0z M4,18.6c2.2,0,4,1.8,4,4s-1.8,4-4,4
	s-4-1.8-4-4S1.8,18.6,4,18.6z M4,37.2c2.2,0,4,1.8,4,4s-1.8,4-4,4s-4-1.8-4-4S1.8,37.2,4,37.2z"/>
</svg>
