<?xml version="1.0" encoding="utf-8"?>
<!-- Generator: Adobe Illustrator 23.0.3, SVG Export Plug-In . SVG Version: 6.00 Build 0)  -->
<svg version="1.1" id="Capa_1" xmlns="http://www.w3.org/2000/svg" xmlns:xlink="http://www.w3.org/1999/xlink" x="0px" y="0px"
	 viewBox="0 0 418 418" style="enable-background:new 0 0 418 418;" xml:space="preserve">
<style type="text/css">
	.st0{fill:#FFFFFF;}
</style>
<path class="st0" d="M91.6,143.7c-3.1-3.1-7.9-4.1-12-2.4c-4.1,1.7-6.8,5.7-6.8,10.2v115c0,4.4,2.7,8.5,6.8,10.2
	c1.4,0.6,2.8,0.8,4.2,0.8c2.9,0,5.7-1.1,7.8-3.2l57.5-57.5c2.1-2.1,3.2-4.9,3.2-7.8s-1.2-5.7-3.2-7.8L91.6,143.7z M338.4,141.3
	c-4.1-1.7-8.8-0.8-12,2.4l-57.5,57.5c-2.1,2.1-3.2,4.9-3.2,7.8s1.2,5.7,3.2,7.8l57.5,57.5c2.1,2.1,4.9,3.2,7.8,3.2
	c1.4,0,2.8-0.3,4.2-0.8c4.1-1.7,6.8-5.7,6.8-10.2v-115C345.2,147,342.5,143,338.4,141.3z M212,0h-6c-6.1,0-11,4.9-11,11v35
	c0,6.1,4.9,11,11,11h6c6.1,0,11-4.9,11-11V11C223,4.9,218.1,0,212,0z M212,95.4h-6c-6.1,0-11,4.9-11,11v72.5c0,6.1,4.9,11,11,11h6
	c6.1,0,11-4.9,11-11v-72.5C223,100.3,218.1,95.4,212,95.4z M212,228.2h-6c-6.1,0-11,4.9-11,11v72.5c0,6.1,4.9,11,11,11h6
	c6.1,0,11-4.9,11-11v-72.5C223,233.1,218.1,228.2,212,228.2z M212,361h-6c-6.1,0-11,4.9-11,11v35c0,6.1,4.9,11,11,11h6
	c6.1,0,11-4.9,11-11v-35C223,365.9,218.1,361,212,361z"/>
</svg>
