<svg version="1.1" id="logo" xmlns="http://www.w3.org/2000/svg" xmlns:xlink="http://www.w3.org/1999/xlink" x="0px" y="0px"
	 viewBox="0 0 179.9 143" style="enable-background:new 0 0 179.9 143;" xml:space="preserve">
<path tyle="fill:#000000;" d="M8.8,126.5c-2-0.2-2.3-0.9-2.3-2.1c0-1.1,0.6-1.7,2.1-1.7h29.9V118H7.8
	c-4.4,0-7.3,1.7-7.3,6.6s2.2,6.6,7.2,7l24.2,2c1.9,0.2,2.4,0.8,2.4,2.1s-0.6,2.1-2.2,2.1H1.7v4.8h30.9c5.3,0,7.7-2.1,7.7-7.2
	c0-4.6-2.1-6.4-7.3-6.8L8.8,126.5z M55.2,133c0,3.4,0.7,4.7,4.5,4.7h27.1v4.8H58.2c-6.5,0-9.5-2.9-9.5-8.4V118h38.1v4.8H55.2v4.8
	h30.3v4.7H55.2V133z M142.4,118v4.8h15.2v19.7h6.5v-19.7h15.3V118H142.4z M106.3,118c-6.5,0-9.5,3.5-9.5,9v15.6h6.5v-7.2H128v7.2
	h6.5V118H106.3z M127.9,122.8v7.8h-24.7v-2.2c0-3.4,0.5-5.6,4.5-5.6C107.7,122.8,127.9,122.8,127.9,122.8z M142.4,118v4.8h15.2v19.7
	h6.5v-19.7h15.3V118H142.4z M37.9,34.3c0.1-3.3,0.3-11.5,0.5-16.4c0.2-6.2,1.5-9.9,4.1-12.2c3.5-3.1,7.6-3.9,17.4-4.4
	c22.7-1.2,45.8-1.1,74.8,1c3,0.2,4.2,0.8,4.8,1.2c1.3,0.9,1.4,1.9,1.8,7c0.2,2.9,0.6,10.8,0.8,15.1c-10-0.5-27-1.4-41.7-1.5
	c-14.8-0.1-28.1,0.1-29.7,0.3c-3.2,0.4-4.7,1.9-5.1,2.6l76.7,14.2v11.2L37.9,34.3z M37.8,39.7L142,59.1c-0.1,2.8-0.3,11.8-0.5,17
	c-0.2,6.2-1.5,9.9-4.1,12.2c-3.5,3.1-7.6,3.9-17.4,4.4c-22.7,1.2-45.8,1.1-74.8-1c-3-0.2-4.2-0.8-4.8-1.2c-1.3-0.9-1.4-1.9-1.8-7
	c-0.2-3.4-0.7-13.6-0.9-17c13.4,0.9,34.1,1.6,50.9,1.6c4.2,0,15.2,0.1,18.1,0.1c2.3,0,5.4-0.6,6.9-3.1l-76-13V39.7H37.8z"/>
</svg>
