<svg xmlns="http://www.w3.org/2000/svg" xmlns:xlink="http://www.w3.org/1999/xlink" version="1.1" id="logo" x="0px" y="0px" viewBox="0 0 146 33" style="enable-background:new 0 0 146 33;" xml:space="preserve"><path style="fill:#000000;" d="M53.3,13.4c0,0.6,0.2,1,1.3,1.1l12.9,1.1c2.8,0.2,3.9,1.2,3.9,3.7c0,2.7-1.3,3.8-4.1,3.8H50.8v-2.6H67c0.9,0,1.2-0.4,1.2-1.1s-0.3-1-1.3-1.1l-13-1.1C51.2,17,50,16.1,50,13.5s1.6-3.5,3.9-3.5h16.4v2.5h-16C53.6,12.5,53.3,12.8,53.3,13.4z M79.4,18c0,1.8,0.4,2.5,2.4,2.5h14.5V23H81c-3.5,0-5.1-1.6-5.1-4.5V9.9h20.4v2.6H79.4v2.6h16.2v2.5H79.4V18z M106.7,9.9c-3.5,0-5.1,1.8-5.1,4.8V23h3.5v-3.8h13.2V23h3.5V9.9H106.7z M126,12.5V9.9h19.8v2.6h-8.2V23h-3.5V12.5H126z M118.3,12.5v4.1h-13.2v-1.2c0-1.8,0.3-3,2.4-3L118.3,12.5L118.3,12.5z M0.3,12c0-1.2,0.1-4.1,0.2-5.8c0-2.1,0.5-3.5,1.4-4.3C3.1,0.8,4.6,0.6,8,0.4C16,0,24.2,0,34.4,0.7c1,0.1,1.4,0.3,1.6,0.4c0.5,0.3,0.5,0.7,0.6,2.5c0.1,1,0.2,3.8,0.3,5.3c-3.5-0.2-9.5-0.5-14.7-0.5c-5.2-0.1-9.9,0-10.5,0.1C10.6,8.6,10,9.2,9.9,9.4l27,5v3.9L0.3,12z M0.2,13.9L37,20.8c0,1-0.1,4.2-0.2,6c-0.1,2.2-0.5,3.5-1.4,4.3c-1.2,1.1-2.7,1.4-6.1,1.6c-8,0.4-16.2,0.4-26.4-0.3c-1.1-0.1-1.5-0.3-1.7-0.4c-0.5-0.3-0.5-0.7-0.6-2.5c-0.1-1.2-0.3-4.8-0.3-6C5,23.7,12.3,24,18.2,24c1.5,0,5.4,0,6.4,0c0.8,0,1.9-0.2,2.4-1.1L0.2,18.4V13.9z"/></svg>
