<svg version="1.1" id="logo" xmlns="http://www.w3.org/2000/svg" xmlns:xlink="http://www.w3.org/1999/xlink" x="0px" y="0px" viewBox="0 0 286.8 96.7" style="visibility:inherit;opacity:1;" xml:space="preserve"><path fill="#FFFFFF" d="M48.4,96.7C21.7,96.7,0,75,0,48.4S21.7,0,48.4,0C75,0,96.7,21.7,96.7,48.4S75,96.7,48.4,96.7 M48.4,6C25,6,6,25,6,48.4s19,42.4,42.4,42.4s42.4-19,42.4-42.4S71.7,6,48.4,6 M111.6,96.7c-26.7,0-48.4-21.7-48.4-48.4S84.9,0,111.6,0c26.7,0,48.4,21.7,48.4,48.4S138.2,96.7,111.6,96.7 M111.6,6C88.2,6,69.2,25,69.2,48.4s19,42.4,42.4,42.4s42.4-19,42.4-42.4S134.9,6,111.6,6 M174.7,96.7c-26.7,0-48.4-21.7-48.4-48.4S148.1,0,174.7,0s48.4,21.7,48.4,48.4S201.4,96.7,174.7,96.7 M174.7,6c-23.4,0-42.4,19-42.4,42.4s19,42.4,42.4,42.4s42.4-19,42.4-42.4S198.1,6,174.7,6 M238.4,96.7C211.7,96.7,190,75,190,48.4S211.7,0,238.4,0s48.4,21.7,48.4,48.4S265.1,96.7,238.4,96.7 M238.4,6C215,6,196,25,196,48.4s19,42.4,42.4,42.4c23.4,0,42.4-19,42.4-42.4S261.7,6,238.4,6"></path></svg>
