<?xml version="1.0" encoding="utf-8"?><svg version="1.1" id="Calque_1" class="abs center_w febiac white" xmlns="http://www.w3.org/2000/svg" xmlns:xlink="http://www.w3.org/1999/xlink" x="0px" y="0px" viewBox="0 0 313.5 24.1" style="enable-background:new 0 0 313.5 24.1;" xml:space="preserve"><style type="text/css">.st0{fill:#FFF}.st1{fill:#FFF;stroke:#000;stroke-width:.721}.st2{fill:#F5C900}.st3{fill:none;stroke:#000;stroke-width:.587}.st4{fill:#44B034}.st5{fill:none;stroke:#000;stroke-width:.336}.st6{fill:#DEDEDE}.st7{fill:none;stroke:#000;stroke-width:.364}.st8{fill:none}.st9{fill:none;stroke:#000;stroke-width:.234}.st10{fill:#357C33}</style><path class="st0" d="M121.2,20.8h0.6c1.4,0,2.5-1.4,2.5-3.1s-1.1-3.1-2.5-3.1c-0.3,0-0.6,0-0.6,0V20.8 M119.7,13h2.2c2.3,0,4.2,2.1,4.2,4.7s-1.9,4.7-4.2,4.7c-0.2,0-2.2,0-2.2,0V13z M131,21.3c0.8,0,1.2-1.1,1.2-2.4c0-1.4-0.4-2.4-1.2-2.4s-1.2,1.1-1.2,2.4S130.2,21.3,131,21.3 M131,15.2c1.6,0,2.4,1.6,2.4,3.6s-0.9,3.6-2.4,3.6s-2.4-1.6-2.4-3.6S129.5,15.2,131,15.2z M139.3,15.3h1.1v7h-0.9l-2.8-4.5v4.5h-1v-7h0.9l2.7,4.5V15.3 M146.4,15.3h1v7h-0.9l-2.7-4.5v4.5h-1.1v-7h0.9l2.8,4.5V15.3 M152.1,21.3c0.8,0,1.2-1.1,1.2-2.4c0-1.4-0.4-2.4-1.2-2.4s-1.2,1.1-1.2,2.4S151.3,21.3,152.1,21.3 M152.1,15.2c1.6,0,2.4,1.6,2.4,3.6s-0.9,3.6-2.4,3.6s-2.4-1.6-2.4-3.6C149.6,16.8,150.4,15.2,152.1,15.2z M160.3,15.3h1.2v7h-1l-2.7-4.5v4.5h-1v-7h0.8l2.7,4.5V15.3 M165.4,22.4c-0.8,0-1.3-0.3-2-0.8l0.2-1c0.7,0.3,1.3,0.6,1.9,0.6c0.5,0,1.2-0.3,1.2-0.9c0-1.3-3.3-0.8-3.3-3.2c0-1.2,1-2.1,2.3-2.1c0.8,0,1.3,0.3,2.1,0.9l-0.3,1c-0.5-0.3-1-0.6-1.6-0.6c-0.7,0-1.1,0.3-1.1,0.8c0,1.2,3.3,1,3.3,3.1C167.9,21.6,166.7,22.4,165.4,22.4 M178.5,17.6c0-0.7-0.5-1.2-1.1-1.2c-0.1,0-1.4,0-1.4,0v2.3h1.4C177.9,18.8,178.5,18.3,178.5,17.6 M179.7,17.6c0,1.3-1,2.3-2.3,2.3c-0.1,0-1.4,0-1.4,0v2.3h-1.1v-7h2.6C178.6,15.3,179.7,16.3,179.7,17.6z M185.1,17.6c0-0.7-0.5-1.2-1.1-1.2c-0.1,0-1,0-1,0v2.3h1C184.6,18.8,185.1,18.3,185.1,17.6 M187,22.3h-1.5l-1.6-2.3c-0.3,0-0.9,0-0.9,0v2.3h-1.1v-7h2.3c1.3,0,2.3,1,2.3,2.3c0,0.9-0.5,1.7-1.3,2.1L187,22.3z M190,16.4h-1.2v-1.1h3.5v1.1h-1.2v4.7h1.2v1.2h-3.5v-1.2h1.2V16.4 M197,21.3c0.8,0,1.2-1.1,1.2-2.4c0-1.4-0.4-2.4-1.2-2.4s-1.2,1.1-1.2,2.4S196.2,21.3,197,21.3 M197,15.2c1.6,0,2.4,1.6,2.4,3.6s-0.9,3.6-2.4,3.6s-2.4-1.6-2.4-3.6C194.5,16.8,195.4,15.2,197,15.2z M205.1,17.6c0-0.7-0.5-1.2-1.1-1.2c-0.1,0-1,0-1,0v2.3h1C204.6,18.8,205.1,18.3,205.1,17.6 M206.8,22.3h-1.5l-1.6-2.3c-0.3,0-0.9,0-0.9,0v2.3h-1.1v-7h2.3c1.3,0,2.3,1,2.3,2.3c0,0.9-0.5,1.7-1.3,2.1L206.8,22.3z M209.9,16.4h-1.3v-1.1h3.6v1.1H211v4.7h1.2v1.2h-3.6v-1.2h1.3V16.4 M213.7,16.4v-1.1h5.2v1.1h-2v5.9h-1.2v-5.9H213.7 M221.5,14.4l-0.3-0.3l2.2-2.8l1,1L221.5,14.4 M220.3,15.3h3.5v1.1h-2.3v1.4h2.3v1.1h-2.3V21h2.3v1.1h-3.5V15.3z M234.9,17.9c0-1-0.5-1.6-1.1-1.6s-1.1,0.5-1.1,1.6v1h2.3L234.9,17.9 M232.6,22.3h-1.1v-4.4c0-1.7,1-2.7,2.3-2.7s2.3,1,2.3,2.7v4.4h-1.2V20h-2.3V22.3z M234,14.4l-2.8-2.2l1-1l2.2,2.8L234,14.4z M244.7,21.1h2v1.2h-3.2v-7h1.2V21.1 M251.7,17.9c0-1-0.5-1.6-1.1-1.6s-1.1,0.5-1.1,1.6v1h2.3L251.7,17.9 M249.4,22.3h-1.2v-4.4c0-1.7,1-2.7,2.3-2.7s2.3,1,2.3,2.7v4.4h-1.1V20h-2.3V22.3L249.4,22.3z M262,22.4c-0.8,0-1.3-0.3-2-0.8l0.2-1c0.7,0.3,1.3,0.6,1.9,0.6c0.5,0,1.2-0.3,1.2-0.9c0-1.3-3.3-0.8-3.3-3.2c0-1.2,1-2.1,2.3-2.1c0.8,0,1.3,0.3,2.1,0.9l-0.3,1c-0.5-0.3-1.1-0.6-1.6-0.6c-0.7,0-1.1,0.3-1.1,0.8c0,1.2,3.3,1,3.3,3.1C264.5,21.6,263.3,22.4,262,22.4 M267.3,14.4l-0.3-0.3l2.2-2.8l1,1L267.3,14.4 M266.2,15.3h3.5v1.1h-2.3v1.4h2.3v1.1h-2.3V21h2.3v1.1h-3.5V15.3z M274.9,15.2c0.9,0,1.7,0.5,2.3,1.4l-0.8,0.7c-0.4-0.6-1-0.9-1.5-0.9c-1,0-1.7,1-1.7,2.4c0,1.5,0.8,2.4,1.7,2.4c0.5,0,1-0.3,1.5-0.9l0.8,0.7c-0.5,0.8-1.4,1.4-2.3,1.4c-1.7,0-2.9-1.6-2.9-3.6C271.9,16.8,273.2,15.2,274.9,15.2 M280.3,15.3v4.4c0,1,0.5,1.5,1.1,1.5s1.1-0.5,1.1-1.5v-4.4h1.2v4.4c0,1.7-1,2.7-2.3,2.7s-2.3-1-2.3-2.7v-4.4L280.3,15.3 M289.5,17.6c0-0.7-0.5-1.2-1.1-1.2c-0.1,0-1,0-1,0v2.3h1C288.9,18.8,289.5,18.3,289.5,17.6 M291.3,22.3h-1.5l-1.6-2.3c-0.3,0-0.9,0-0.9,0v2.3h-1.1v-7h2.3c1.3,0,2.3,1,2.3,2.3c0,0.9-0.5,1.7-1.3,2.1L291.3,22.3z M294.3,21.1h-1.2v1.2h3.6v-1.2h-1.3v-4.7h1.3v-1.1h-3.6v1.1h1.2V21.1 M300.1,16.4v5.9h1.2v-5.9h2v-1.1h-5.2v1.1H300.1 M305.9,14.4l-0.3-0.3l2.2-2.8l1,1L305.9,14.4 M304.8,15.3h3.5v1.1H306v1.4h2.3v1.1H306V21h2.3v1.1h-3.5V15.3z M313.5,21.4c0-0.6-0.5-1.1-1.1-1.1s-1.1,0.5-1.1,1.1s0.5,1.1,1.1,1.1S313.5,22,313.5,21.4"/><path class="st1" d="M118.2,11.2c0.4,0.4,0.4,1.1,0,1.5l-10.5,10.7c-0.4,0.4-1.1,0.4-1.5,0L95.4,12.9c-0.4-0.4-0.4-1.1,0-1.5l10.5-10.7c0.4-0.4,1.1-0.4,1.5,0L118.2,11.2z"/><path class="st2" d="M114.7,11.5c0.3,0.3,0.3,0.8,0,1l-7.3,7.5c-0.3,0.3-0.8,0.3-1,0l-7.5-7.3c-0.3-0.3-0.3-0.8,0-1l7.3-7.5c0.3-0.3,0.8-0.3,1,0L114.7,11.5z"/><path class="st3" d="M114.7,11.5c0.3,0.3,0.3,0.8,0,1l-7.3,7.5c-0.3,0.3-0.8,0.3-1,0l-7.5-7.3c-0.3-0.3-0.3-0.8,0-1l7.3-7.5c0.3-0.3,0.8-0.3,1,0L114.7,11.5z"/><path class="st4" d="M108.8,11.1c0-0.8-0.9-1.5-2-1.5s-2,0.7-2,1.5l-0.5,3.4v0.1c0,0.5,1.1,1,2.5,1s2.5-0.5,2.5-1L108.8,11.1z"/><path class="st5" d="M108.8,11.1c0-0.8-0.9-1.5-2-1.5s-2,0.7-2,1.5l-0.5,3.4v0.1c0,0.5,1.1,1,2.5,1s2.5-0.5,2.5-1L108.8,11.1z"/><path class="st6" d="M109.3,14.4c-0.1,0.7-1.2,1.2-2.6,1.2c-1.3,0-2.4-0.6-2.6-1.2c-0.3,0.1-0.3,0.7-0.3,0.8c0,0.6,1.3,1.4,2.9,1.4s2.9-0.9,2.9-1.4C109.7,15.1,109.7,14.5,109.3,14.4z"/><path class="st7" d="M109.3,14.4c-0.1,0.7-1.2,1.2-2.6,1.2c-1.3,0-2.4-0.6-2.6-1.2c-0.3,0.1-0.3,0.7-0.3,0.8c0,0.6,1.3,1.4,2.9,1.4s2.9-0.9,2.9-1.4C109.7,15.1,109.7,14.5,109.3,14.4z"/><path class="st0" d="M105.8,10.7c0,0-0.5,0.3-0.5,0.7s-0.3,2.7-0.3,2.7s0.1,0.2,0.7,0.3l0.1-2.9C105.8,11.5,105.7,11,105.8,10.7"/><line class="st8" x1="106.6" y1="8.5" x2="106.6" y2="6.7"/><line class="st9" x1="106.6" y1="8.5" x2="106.6" y2="6.7"/><line class="st8" x1="108.1" y1="8.8" x2="108.8" y2="7.6"/><line class="st9" x1="108.1" y1="8.8" x2="108.8" y2="7.6"/><line class="st8" x1="109.1" y1="9.5" x2="110.1" y2="8.6"/><line class="st9" x1="109.1" y1="9.5" x2="110.1" y2="8.6"/><line class="st8" x1="105.2" y1="8.8" x2="104.4" y2="7.6"/><line class="st9" x1="105.2" y1="8.8" x2="104.4" y2="7.6"/><line class="st8" x1="104.4" y1="9.6" x2="103.3" y2="8.7"/><line class="st9" x1="104.4" y1="9.6" x2="103.3" y2="8.7"/><path class="st10" d="M108.7,11c0.1,0.2,0.4,3.7,0.4,3.7s-0.2,0.3-0.5,0.5c-0.2,0.1-0.3-3.6-0.3-4.1s-0.6-1-0.8-1.1C107.4,9.9,108.4,10,108.7,11"/><g id="Layer_1"><path class="st0" d="M30.7,11.5c-3,0-5.3,2.3-5.3,5.5c0,3.2,2.4,5.4,5.6,5.4c2.2,0,3.8-1,4.7-3l-2.7-0.7c-0.3,0.7-1,1.1-1.9,1.1c-1.2,0-2.1-0.8-2.3-2H36v-0.7C36,13.7,33.8,11.5,30.7,11.5z M28.6,15.8c0.3-1.3,1-1.8,2.1-1.8s1.9,0.6,2,1.8H28.6z M41.3,8.7h-3.2v3.1h-1.7v2.7h1.7v7.6h3.2v-7.6h2.4v-2.7h-2.4V8.7z M18.5,8.1L20,9.9v12.3h3.4v-15H19C18.5,7.2,18.3,7.7,18.5,8.1z M49.4,11.5c-3,0-5.3,2.3-5.3,5.5c0,3.2,2.4,5.4,5.6,5.4c2.2,0,3.8-1,4.7-3l-2.7-0.7c-0.3,0.7-1,1.1-1.9,1.1c-1.2,0-2.1-0.8-2.3-2h7.4v-0.7C54.7,13.7,52.5,11.5,49.4,11.5z M47.3,15.8c0.3-1.3,1-1.8,2.1-1.8c1.1,0,1.9,0.6,2,1.8H47.3z M59.2,13.4L59.2,13.4l0-1.6h-3v10.3h3.2v-4.5c0-2.3,1.1-3,2.5-3c0.3,0,0.5,0,0.7,0.1v-3c-0.2-0.1-0.4-0.2-0.8-0.2C60.7,11.7,59.7,12.3,59.2,13.4z M68.7,11.5c-3,0-5.3,2.3-5.3,5.5c0,3.2,2.4,5.4,5.6,5.4c2.2,0,3.8-1,4.7-3l-2.7-0.7c-0.3,0.7-1,1.1-1.9,1.1c-1.2,0-2.1-0.8-2.3-2H74v-0.7C74,13.7,71.8,11.5,68.7,11.5z M66.6,15.8c0.3-1.3,1-1.8,2.1-1.8s1.9,0.6,2,1.8H66.6z M81.6,11.5c-1.4,0-2.5,0.7-3.1,1.5h0v-1.2h-3v10.3h3.2v-5.9c0-1.2,0.8-2,1.8-2c0.9,0,1.5,0.6,1.5,1.8v6h3.2v-6.7C85.2,12.9,83.8,11.5,81.6,11.5z M5.1,7.2H0.4v14.9h4.1c5,0,8.8-1.9,8.8-7.5C13.4,10.2,10.4,7.2,5.1,7.2z M5.2,19.1H3.8v-8.8h1.4c3,0,4.7,1.7,4.7,4.4C9.9,17.3,8.3,19.1,5.2,19.1z M15.4,5.9L13.8,5C13.5,4.8,13,5,13,5.5v1.7v1.7c0,0.4,0.4,0.7,0.8,0.5l1.5-0.9l1.5-0.9c0.4-0.2,0.4-0.7,0-0.9L15.4,5.9z"/></g></svg>