<svg version="1.1" id="mask" class="abs center" xmlns="http://www.w3.org/2000/svg" xmlns:xlink="http://www.w3.org/1999/xlink" x="0px" y="0px" viewBox="0 0 600 600" style="enable-background:new 0 0 600 600;" xml:space="preserve"><path fill="#000;" d="M276.49,300.2c0,4.81-1.82,9.19-4.8,12.53c-2.97-3.34-4.8-7.72-4.8-12.53s1.82-9.19,4.8-12.53C274.66,291.01,276.49,295.39,276.49,300.2z M299.84,287.66c-2.98,3.34-4.81,7.73-4.81,12.54s1.83,9.2,4.81,12.54c2.98-3.34,4.81-7.73,4.81-12.54S302.81,291,299.84,287.66z M328.09,287.78c-2.91,3.32-4.7,7.66-4.7,12.42s1.78,9.1,4.7,12.42c2.91-3.32,4.7-7.66,4.7-12.42S331,291.1,328.09,287.78z M264.21,300.2c0-5.54,2.12-10.58,5.57-14.4c-3.29-2.78-7.54-4.47-12.17-4.47c-10.41,0-18.88,8.47-18.88,18.88c0,10.41,8.47,18.88,18.88,18.88c4.64,0,8.88-1.69,12.17-4.47C266.33,310.78,264.21,305.74,264.21,300.2z M599.94,0.2v600h-600V0.2H599.94z M363.82,300.2c0-11.88-9.67-21.55-21.55-21.55c-5.43,0-10.39,2.04-14.18,5.36c-3.79-3.33-8.75-5.36-14.18-5.36c-5.38,0-10.29,1.99-14.07,5.26c-3.78-3.27-8.69-5.26-14.07-5.26c-5.38,0-10.3,2-14.08,5.27c-3.78-3.27-8.7-5.27-14.08-5.27c-11.88,0-21.55,9.67-21.55,21.55c0,11.88,9.67,21.55,21.55,21.55c5.38,0,10.3-2,14.08-5.27c3.78,3.27,8.7,5.27,14.08,5.27c5.38,0,10.29-1.99,14.07-5.26c3.78,3.27,8.69,5.26,14.07,5.26c5.43,0,10.39-2.04,14.18-5.36c3.79,3.33,8.75,5.36,14.18,5.36C354.15,321.75,363.82,312.08,363.82,300.2z M342.27,281.32c-4.69,0-8.98,1.73-12.29,4.57c3.39,3.81,5.48,8.81,5.48,14.3c0,5.49-2.08,10.49-5.48,14.3c3.31,2.84,7.59,4.57,12.29,4.57c10.41,0,18.88-8.47,18.88-18.88C361.14,289.79,352.68,281.32,342.27,281.32z M292.35,300.2c0-5.54,2.12-10.59,5.58-14.41c-3.29-2.78-7.53-4.46-12.16-4.46c-4.64,0-8.88,1.69-12.17,4.47c3.45,3.82,5.57,8.86,5.57,14.4c0,5.54-2.12,10.58-5.57,14.4c3.29,2.78,7.54,4.47,12.17,4.47c4.63,0,8.88-1.68,12.16-4.46C294.48,310.79,292.35,305.75,292.35,300.2z M320.72,300.2c0-5.49,2.08-10.49,5.48-14.3c-3.31-2.84-7.59-4.57-12.29-4.57c-4.63,0-8.88,1.68-12.16,4.46c3.45,3.82,5.58,8.87,5.58,14.41s-2.12,10.59-5.58,14.41c3.29,2.78,7.53,4.46,12.16,4.46c4.69,0,8.98-1.73,12.29-4.57C322.8,310.69,320.72,305.69,320.72,300.2z"></path></svg>
