<svg version="1.1" id="mask" class="abs" xmlns="http://www.w3.org/2000/svg" xmlns:xlink="http://www.w3.org/1999/xlink" x="0px" y="0px"
	 viewBox="0 0 120 600" style="enable-background:new 0 0 120 600;" xml:space="preserve">
<path d="M46.5,300c0,2.8-1,5.3-2.8,7.2c-1.7-1.9-2.8-4.4-2.8-7.2c0-2.8,1-5.3,2.8-7.2C45.4,294.7,46.5,297.2,46.5,300z M59.9,292.8
	c-1.7,1.9-2.8,4.5-2.8,7.2c0,2.8,1.1,5.3,2.8,7.2c1.7-1.9,2.8-4.5,2.8-7.2C62.7,297.2,61.7,294.7,59.9,292.8z M76.2,292.8
	c-1.7,1.9-2.7,4.4-2.7,7.2c0,2.7,1,5.2,2.7,7.2c1.7-1.9,2.7-4.4,2.7-7.2C78.9,297.3,77.9,294.8,76.2,292.8z M39.4,300
	c0-3.2,1.2-6.1,3.2-8.3c-1.9-1.6-4.3-2.6-7-2.6c-6,0-10.9,4.9-10.9,10.9c0,6,4.9,10.9,10.9,10.9c2.7,0,5.1-1,7-2.6
	C40.6,306.2,39.4,303.3,39.4,300z M120,0v600H0V0H120z M96.8,300c0-6.8-5.6-12.4-12.4-12.4c-3.1,0-6,1.2-8.2,3.1
	c-2.2-1.9-5-3.1-8.2-3.1c-3.1,0-5.9,1.1-8.1,3c-2.2-1.9-5-3-8.1-3s-5.9,1.2-8.1,3c-2.2-1.9-5-3-8.1-3c-6.8,0-12.4,5.6-12.4,12.4
	s5.6,12.4,12.4,12.4c3.1,0,5.9-1.2,8.1-3c2.2,1.9,5,3,8.1,3s5.9-1.1,8.1-3c2.2,1.9,5,3,8.1,3s6-1.2,8.2-3.1c2.2,1.9,5,3.1,8.2,3.1
	C91.2,312.5,96.8,306.9,96.8,300z M84.4,289.1c-2.7,0-5.2,1-7.1,2.6c2,2.2,3.2,5.1,3.2,8.2c0,3.2-1.2,6-3.2,8.2
	c1.9,1.6,4.4,2.6,7.1,2.6c6,0,10.9-4.9,10.9-10.9C95.3,294,90.4,289.1,84.4,289.1z M55.6,300c0-3.2,1.2-6.1,3.2-8.3
	c-1.9-1.6-4.3-2.6-7-2.6s-5.1,1-7,2.6c2,2.2,3.2,5.1,3.2,8.3c0,3.2-1.2,6.1-3.2,8.3c1.9,1.6,4.3,2.6,7,2.6s5.1-1,7-2.6
	C56.9,306.2,55.6,303.3,55.6,300z M72,300c0-3.2,1.2-6,3.2-8.2c-1.9-1.6-4.4-2.6-7.1-2.6s-5.1,1-7,2.6c2,2.2,3.2,5.1,3.2,8.3
	s-1.2,6.1-3.2,8.3c1.9,1.6,4.3,2.6,7,2.6s5.2-1,7.1-2.6C73.2,306.1,72,303.3,72,300z"/>
</svg>
