<?xml version="1.0" encoding="utf-8"?>
<!-- Generator: Adobe Illustrator 16.0.0, SVG Export Plug-In . SVG Version: 6.00 Build 0)  -->
<!DOCTYPE svg PUBLIC "-//W3C//DTD SVG 1.1//EN" "http://www.w3.org/Graphics/SVG/1.1/DTD/svg11.dtd">
<svg version="1.1" id="Layer_1" xmlns="http://www.w3.org/2000/svg" xmlns:xlink="http://www.w3.org/1999/xlink" x="0px" y="0px"
	 width="50px" height="50px" viewBox="0 0 50 50" enable-background="new 0 0 50 50" xml:space="preserve">
<g>
	<polygon fill="#999999" points="19.218,9.259 30.98,12.167 22.583,20.9 	"/>
	<g>
		<path fill="#999999" d="M33.137,14.8l-3.16,3.313c2.576,1.734,4.682,5.039,4.682,8.378c0,5.334-4.324,9.656-9.657,9.656
			c-5.333,0-9.658-4.322-9.658-9.656c0-5.005,3.808-9.12,8.684-9.609V12.29c-7.414,0.503-13.276,6.66-13.276,14.202
			c0,7.869,6.38,14.25,14.25,14.25c7.872,0,14.249-6.381,14.249-14.25C39.25,21.648,36.828,17.375,33.137,14.8z"/>
	</g>
</g>
</svg>
