<svg version="1.1" id="logo" class="logo-left abs" xmlns="http://www.w3.org/2000/svg" xmlns:xlink="http://www.w3.org/1999/xlink" x="0px" y="0px"
	 viewBox="0 0 545.8 90.3" style="enable-background:new 0 0 545.8 90.3;" xml:space="preserve">
<path style="fill:#FFFFFF;" d="M35.7,90.3c11.5,0,20.8-4.1,28-12.9L51,63.9c-3.8,4.2-8.1,7.2-14.5,7.2c-9.5,0-14.6-5.9-14.6-17.8
	c0-10.6,5.2-16.2,13.9-16.5c5.6-0.1,10.9,2.4,13.6,5.8l12.2-14.8c-6-6.3-15.9-10.2-25.8-10.2C15.1,17.7,0,32.7,0,53.3
	C0,75.7,14,90.3,35.7,90.3 M70.2,89.2h21.4V18.8H70.2V89.2z M117.2,89.2h21.4V37.8h17.9V18.8H99.3v19.1h17.9V89.2z M164.1,89.2h21.2
	v-23h3.7c6,6.9,10.9,14.2,13.6,23h21.8c-2.7-11.3-8.3-20.4-17-29.1c7.6-4.1,11.3-10.3,11.3-17.9c0-15.4-9.8-23.5-27.4-23.5h-27.2
	V89.2z M185.3,49.4V35.7h6.3c3.7,0,6,2.3,6,6.6c0,4.3-2.3,7.1-6,7.1H185.3z M261,90.3c21.6,0,35.7-14.7,35.7-37.1
	c0-21-14.7-35.5-35.7-35.5c-20.7,0-35.4,14.7-35.4,35.5C225.6,75.7,239.5,90.3,261,90.3 M261,71.1c-8.2,0-13.5-7-13.5-18
	c0-10.3,4.8-16.2,13.5-16.2c8.3,0,13.7,6.5,13.7,16.2C274.7,64.8,269.9,71.1,261,71.1 M318.3,15.8c4.3,0,7.9-3.6,7.9-8
	c0-4.4-3.6-7.8-7.9-7.8c-4.5,0-8.1,3.4-8.1,7.8C310.2,12.2,313.8,15.8,318.3,15.8 M338.7,15.8c4.3,0,7.9-3.6,7.9-8
	c0-4.4-3.6-7.8-7.9-7.8c-4.5,0-8.1,3.4-8.1,7.8C330.6,12.2,334.2,15.8,338.7,15.8 M305.4,89.2h47.8V70.5h-26.4v-7.9h20.8V44.9h-20.8
	v-7.5h24.5V18.8h-45.9V89.2z M363.1,89.2h21.4V51.5c12.5,11.7,22.3,23.2,29.6,37.7h18.1V18.7h-21.4v29.7
	c-9.8-10.9-23.5-22.5-36.2-30.9h-11.5V89.2z M542.7,74c0.1,0.1,3.1,3.5,3.1,7.4c0,3-0.2,6.1-0.2,6.1c0,0.1-0.1,1.4-0.8,1.8
	c-0.1,0.1-0.2,0.1-0.4,0.1c-0.3,0-0.6-0.1-0.9-0.4c0,0,0,0,0,0c-0.8-0.7-31.6-27.2-43.7-27.2c-12.2,0-42.9,26.5-43.7,27.2
	c0,0,0,0,0,0c-0.3,0.2-0.6,0.3-0.9,0.3c-0.1,0-0.3,0-0.4-0.1c-0.7-0.4-0.8-1.6-0.8-1.8c0,0-0.2-3.1-0.2-6.1c0-3.9,3-7.2,3.1-7.4
	c1.3-1.4,31.9-34.5,42.9-34.5C510.8,39.6,541.4,72.6,542.7,74 M542.7,42.6c0.1,0.1,3.1,3.5,3.1,7.4c0,3-0.2,6.1-0.2,6.1
	c0,0.1-0.1,1.4-0.8,1.8c-0.1,0.1-0.2,0.1-0.4,0.1c-0.3,0-0.6-0.1-0.9-0.4c0,0,0,0,0,0c-0.8-0.7-31.6-27.2-43.7-27.2
	c-12.2,0-42.9,26.5-43.7,27.2c0,0,0,0,0,0c-0.3,0.2-0.6,0.3-0.9,0.3c-0.1,0-0.3,0-0.4-0.1c-0.7-0.4-0.8-1.6-0.8-1.8
	c0,0-0.2-3.1-0.2-6.1c0-3.9,3-7.2,3.1-7.4c1.3-1.4,31.9-34.5,42.9-34.5C510.8,8.1,541.4,41.2,542.7,42.6"/>
</svg>
