<?xml version="1.0" encoding="utf-8"?>
<!-- Generator: Adobe Illustrator 26.3.1, SVG Export Plug-In . SVG Version: 6.00 Build 0)  -->
<svg version="1.1" id="logo" xmlns="http://www.w3.org/2000/svg" xmlns:xlink="http://www.w3.org/1999/xlink" x="0px" y="0px"
	 viewBox="0 0 350 229.5" style="enable-background:new 0 0 350 229.5;" xml:space="preserve">
<path style="fill:#FFFFFF;" d="M115.6,33.1c3.2,5.5,6.5,11,9.9,16.7c-5.7,2.2-11.4,4.4-17.2,6.7C96.4,37.8,84.4,19,72.3,0
	c0.8,0.2,1.2,0.3,1.6,0.5c30.4,10.7,60.8,21.4,91.2,32.1c2.3,0.8,4.6,1.5,6.9,2.4c1.8,0.7,3.5,0.6,5.4,0
	c15.5-5.5,31.1-10.8,46.6-16.3c17.1-6,34.2-12.1,51.2-18.1c0.4-0.2,0.9-0.3,1.5-0.2c-11.9,18.7-23.8,37.4-35.8,56.2
	c-5.8-2.3-11.4-4.5-17.2-6.7c3.3-5.6,6.6-11.1,9.9-16.6c-0.1-0.1-0.1-0.2-0.2-0.3c-10.6,5.2-21.2,10.4-32.2,15.8
	c2.7,1,5.1,1.9,7.4,2.8c4.9,1.9,9.9,3.8,14.8,5.8c1.6,0.6,3.1,1.4,4.5,2.4c4.6,3.2,6,7.9,4,13.1c-0.7,1.8-1.7,3.6-2.8,5.3
	c-16.6,26-33.2,52-49.8,78c-0.2,0.3-0.4,0.5-0.8,1.2c0-1,0-1.6,0-2.2c0-5.5,0-10.9,0-16.4c0-0.8,0.2-1.6,0.4-2.4
	c6-19.8,12-39.7,18-59.5c0.7-2.3,0.3-3.4-1.7-4.8c-0.3-0.2-0.6-0.4-0.9-0.5c-6.3-3-12.5-6.1-18.8-9.1c-0.7-0.3-1.8-0.3-2.4,0
	c-6.2,2.9-12.3,5.9-18.4,9c-3,1.5-3.5,2.8-2.5,5.9c5.9,19.6,11.9,39.2,17.8,58.8c0.6,2,0.7,4.1,0.7,6.2c0.1,4.8,0,9.6,0,14.5
	c-0.1,0-0.3,0.1-0.4,0.1c-0.2-0.3-0.5-0.5-0.6-0.8c-16.7-26.2-33.4-52.4-50.1-78.7c-1.1-1.8-2.1-3.8-2.7-5.8
	c-1.5-4.6-0.1-8.7,3.7-11.5c1.7-1.3,3.6-2.3,5.6-3.1c6.5-2.6,13.1-5.1,19.6-7.6c0.5-0.2,1.1-0.4,2-0.8
	c-10.9-5.4-21.5-10.6-32.1-15.8C115.7,33,115.6,33.1,115.6,33.1z M287.2,229.3c0-0.5-0.1-0.9-0.1-1.3c0-7.6,0-15.2,0-22.8
	c0-5.4,3.8-9.1,9.2-9.1c10.4,0,20.8,0,31.2,0c7.2,0,14.3,0,21.5,0c0.3,0,0.6,0,0.9,0c0,0.3,0.1,0.5,0.1,0.7
	c0,10.3-0.1,20.6-0.1,30.9c0,1.2-0.3,1.7-1.5,1.6c-2,0-4.1,0-6.1,0.1c-1.6,0.1-2.1-0.7-2.2-2c-0.1-1.5,0-3,0-4.5c0-1.1,0-2.2,0-3.4
	c-14.2,0-28.4,0-42.6,0c0,3.2,0,6.5,0,9.8C294,229.3,290.6,229.3,287.2,229.3z M297.5,211.2c14.3,0,28.4,0,42.5,0c0-2.6,0-5,0-7.5
	c-14.2,0-28.4,0-42.5,0C297.5,206.3,297.5,208.7,297.5,211.2z M225.8,219.5c0,3.2,0,6.3,0,9.7c-3.5,0-7,0-10.5,0c0-11.1,0-22,0-33.1
	c0.6,0,1.1,0,1.5,0c17.3,0,34.6,0,51.9,0c2.6,0,4.9,0.6,7,2.2c1.7,1.3,2.6,2.9,2.6,5.1c0,2.7-0.1,5.5,0,8.2c0.1,2.9-1.2,4.9-3.5,6.5
	c-0.8,0.5-1.5,1-2.3,1.5c2.2,3.1,4.3,6.2,6.7,9.7c-3.5,0.1-6.5,0.3-9.5,0.2c-1.7,0-3.1-1.1-4-2.6c-1.3-2.2-2.6-4.4-4-6.5
	c-0.3-0.4-0.9-0.9-1.4-0.9c-11.2-0.1-22.4-0.1-33.6-0.1C226.4,219.4,226.2,219.5,225.8,219.5z M225.9,203.2c0,2.8,0,5.4,0,8.1
	c0.5,0,0.9,0,1.3,0c10.1,0,20.3,0,30.4,0c3,0,6-0.1,9.1-0.1c1.8,0,2.3-0.6,2.5-2.3c0.1-0.8,0.1-1.6,0.1-2.3c0-2.4-0.7-3.2-3.1-3.2
	c-10.7-0.1-21.4-0.1-32-0.1C231.5,203.2,228.8,203.2,225.9,203.2z M63,196.1c0,3.1,0,6,0,9.2c-2.5,0-5,0-7.5,0
	c-14.5,0-29.1,0.1-43.6,0.1c-2.2,0-2.6,0.5-2.7,2.6c0,3.5,0,7-0.1,10.5c0,0.9,0.3,1.3,1.1,1.3c1.4,0.1,2.9,0.4,4.3,0.5
	c15.5,0,31,0,46.5,0c0.6,0,1.2,0,1.9,0c0,2.9,0,5.8,0,9c-3,0-5.9,0-8.9,0c-14.5,0-29.1,0.1-43.6,0c-2,0-4.1-0.5-6-1.1
	c-2.6-0.9-4.1-3-4.2-5.8c-0.1-6-0.3-12-0.1-18c0.2-5.4,3.7-8.4,9.2-8.4c14.8,0,29.7,0,44.5,0C56.9,196.1,59.8,196.1,63,196.1z
	 M153.7,229.2c-3.6,0-6.9,0-10.2,0c0-11.1,0-22,0-33.1c0.5,0,0.9-0.1,1.4-0.1c17.8,0,35.5,0,53.3,0.1c1.7,0,3.6,0.5,5.2,1.2
	c2.1,0.9,3.3,2.8,3.4,5.2c0,3.3,0.1,6.6,0,9.9c-0.1,4-3.6,6.8-8.1,6.8c-14.1,0-28.3,0-42.4,0c-0.7,0-1.5,0-2.3,0
	C153.7,222.7,153.7,225.9,153.7,229.2z M153.7,211.2c0.3,0.1,0.5,0.1,0.7,0.1c13.6,0,27.2-0.1,40.8-0.1c1.4,0,2-0.8,2.1-2
	c0.1-1.8,0-3.6,0-5.6c-14.7,0-29.2,0-43.6,0C153.7,206.2,153.7,208.6,153.7,211.2z M82.7,220.2c13.8,0,27.3,0,41,0c0-8,0-16,0-24
	c3.8,0,7.4,0,11.1,0c0,0.3,0.1,0.7,0.1,1c0,7.9,0,15.8,0,23.7c0,4.3-3.1,7.9-7.3,8.3c-3.7,0.3-7.4,0.3-11.1,0.3c-10.7,0-21.4,0-32,0
	c-2,0-4.1-0.1-6.1-0.4c-4.2-0.7-6.7-3.9-6.7-8.1c0-8.2,0-16.4,0-24.7c3.7,0,7.2,0,11,0C82.7,204.1,82.7,212.1,82.7,220.2z"/>
</svg>
