<svg version="1.1" id="brand" class="abs" xmlns="http://www.w3.org/2000/svg" xmlns:xlink="http://www.w3.org/1999/xlink" x="0px" y="0px"
	 viewBox="0 0 506.9 47.8" style="enable-background:new 0 0 506.9 47.8;" xml:space="preserve">
<path style="fill:#F8F8F8;" d="M326.7,10.5v11.2H387c1.3,0,2.3-1,2.3-2.1v-6.9c0-1.2-1-2.1-2.3-2.1H326.7z M311.4,47.8l0-47.8h78.3
	c7.3,0,13.2,4.5,13.2,11.2v9.9c0,6.9-4.6,11.6-9.3,11.6L404,47.8h-17l-9-14.6h-51.3v14.6L311.4,47.8z M91.4,47.8H13.2
	C5.9,47.8,0,42.4,0,35.7V12.2C0,5.5,5.9,0,13.2,0h78.3v13.1H15.8c-1.3,0-2.3,1-2.3,2.1v17.4c0,1.2,1,2.1,2.3,2.1h75.7V47.8z
	 M195.3,0v35.7c0,6.7-5.9,12.2-13.2,12.2h-65.2c-7.3,0-13.2-5.5-13.2-12.2V0h15.7v32.6c0,1.2,1,2.1,2.3,2.1h55.5
	c1.3,0,2.3-1,2.3-2.1V0H195.3z M492.1,21.7V10.5h-59.8c-1.3,0-2.3,1-2.3,2.1v9C430,21.5,470.7,21.6,492.1,21.7z M506.9,47.8h-14.8
	V33.3h-62v14.6h-14.8l-0.1-35.7c0-6.7,5.9-12.2,13.2-12.2h78.3c0.1,0.1,0.2,0.1,0.2,0V47.8z M222.3,21.7h61.1c1.3,0,2.3-1,2.3-2.1
	v-6.9c0-1.2-1-2.1-2.3-2.1h-61.1V21.7z M286,0c9.7,0,13.2,4.5,13.2,11.2v9.9c0,6.7-3,12.2-13.2,12.2h-63.7v14.6h-14.8V0H286z"/>
</svg>
