<svg version="1.1" id="cta-2" class="cta" xmlns="http://www.w3.org/2000/svg" xmlns:xlink="http://www.w3.org/1999/xlink" x="0px" y="0px"
	 viewBox="0 0 129.5 35" style="enable-background:new 0 0 129.5 35;" xml:space="preserve">
<path fill="#FFFFFF" d="M74,15.4c0,1.4-0.8,2.1-2.4,2.1c-0.4,0-0.8,0-1.2-0.1v-3.7c0.5,0,0.7,0,0.8,0C73.3,13.7,74,14.1,74,15.4z
	 M21.3,13.8h-1.9v6.7h1.9c2,0,3.2-1.6,3.2-3.3C24.4,15.4,23.2,13.8,21.3,13.8z M46.5,13.7c-2,0-3.2,1.6-3.2,3.4s1.3,3.4,3.2,3.4
	s3.2-1.6,3.2-3.4S48.5,13.7,46.5,13.7z M81.8,13.7c-0.1,0-0.4,0-0.8,0v3.7c0.4,0.1,0.9,0.1,1.2,0.1c1.6,0,2.4-0.7,2.4-2.1
	C84.6,14.1,83.9,13.7,81.8,13.7z M129.5,33c-0.1,0.7-0.5,1.3-1,1.6c-0.4,0.2-0.9,0.4-1.4,0.4H4.5C2,35,0,33,0,30.5v-26
	C0,2,2,0,4.5,0h100.7c1.9,0,3.5,0.9,4.5,2.4l19.4,28.7C129.5,31.7,129.6,32.3,129.5,33z M28.7,11.5l0.3,0.5l2.8-1.7l-0.6-0.9
	L28.7,11.5z M25.5,17.1c0-2.2-1.6-4.3-4.1-4.3h-3.1v8.5h3.1C23.9,21.4,25.5,19.3,25.5,17.1z M32.5,20.4h-4.1v-3.2h3.8v-0.9h-3.8
	v-2.6h4.1v-0.9h-5.1v8.5h5.2V20.4z M41.2,20.3l-0.6-0.7c-0.6,0.6-1.4,0.9-2.4,0.9c-2,0-3.2-1.6-3.2-3.4s1.3-3.4,3.2-3.4
	c0.9,0,1.7,0.3,2.3,0.9l0.6-0.7c-0.7-0.7-1.8-1.1-2.9-1.1c-2.5,0-4.3,2-4.3,4.4s1.8,4.4,4.3,4.4C39.4,21.5,40.5,21,41.2,20.3z
	 M50.8,17.1c0-2.4-1.8-4.4-4.3-4.4s-4.3,2-4.3,4.4s1.8,4.4,4.3,4.4S50.8,19.5,50.8,17.1z M59.2,12.8h-1v5.3c0,1.7-0.7,2.4-2.3,2.4
	s-2.3-0.7-2.3-2.4v-5.3h-1v5.3c0,2,0.9,3.3,3.3,3.3s3.3-1.4,3.3-3.3V12.8z M68.1,12.8H67l-2.8,6.6l-2.8-6.6h-1.1l3.8,8.8h0.1
	L68.1,12.8z M73,18.2c1.3-0.4,2.1-1.4,2.1-2.8c0-1.8-1.1-2.7-3.5-2.7c-0.7,0-1.8,0.1-2.2,0.1v8.5h1v-3c0.4,0.1,0.9,0.1,1.3,0.1h0.3
	l1.9,3H75L73,18.2z M77.8,12.8h-1v8.5h1V12.8z M83.6,18.2c1.3-0.4,2.1-1.4,2.1-2.8c0-1.8-1.1-2.7-3.5-2.7c-0.7,0-1.8,0.1-2.2,0.1
	v8.5h1v-3c0.4,0.1,0.9,0.1,1.3,0.1h0.3l1.9,3h1.2L83.6,18.2z"/>
</svg>
