<svg version="1.1" id="cta" class="cta" xmlns="http://www.w3.org/2000/svg" xmlns:xlink="http://www.w3.org/1999/xlink" x="0px" y="0px"
	 viewBox="0 0 129.5 35" style="enable-background:new 0 0 129.5 35;" xml:space="preserve">
<path fill="#FFFFFF" d="M127.1,35H4.5C2,35,0,33,0,30.5v-26C0,2,2,0,4.5,0h100.7c1.9,0,3.5,0.9,4.5,2.4l19.4,28.7
	c0.8,1.2,0.5,2.8-0.6,3.5C128.1,34.9,127.6,35,127.1,35z M4.5,1C2.6,1,1,2.6,1,4.5v26C1,32.4,2.6,34,4.5,34h122.6
	c0.3,0,0.6-0.1,0.8-0.2c0.7-0.4,0.8-1.4,0.4-2.1L108.9,3c-0.8-1.3-2.2-2-3.7-2H4.5z M22.5,21.5c0.8,0,1.6-0.2,2.2-0.6
	c0.7-0.4,1.2-0.9,1.5-1.6c0.4-0.7,0.5-1.4,0.5-2.2c0-0.8-0.2-1.5-0.5-2.2c-0.4-0.7-0.9-1.2-1.5-1.6c-0.7-0.4-1.4-0.6-2.2-0.6
	c-0.8,0-1.6,0.2-2.2,0.6c-0.7,0.4-1.2,0.9-1.5,1.6c-0.4,0.7-0.5,1.4-0.5,2.2s0.2,1.5,0.5,2.2c0.4,0.7,0.9,1.2,1.5,1.6
	S21.7,21.5,22.5,21.5z M22.5,20.6c-0.6,0-1.2-0.2-1.7-0.5s-0.9-0.7-1.1-1.3c-0.3-0.5-0.4-1.1-0.4-1.7s0.1-1.2,0.4-1.7
	s0.7-0.9,1.1-1.3c0.5-0.3,1.1-0.5,1.7-0.5s1.2,0.2,1.7,0.5s0.9,0.7,1.1,1.3c0.3,0.5,0.4,1.1,0.4,1.7s-0.1,1.2-0.4,1.7
	s-0.7,0.9-1.1,1.3C23.7,20.4,23.1,20.6,22.5,20.6z M34.2,12.8V19l-5.5-6.2h-0.1v8.7h1v-6.1l5.5,6.2h0.1v-8.7L34.2,12.8L34.2,12.8z
	 M43.5,12.8h-6.7v0.9h2.8v7.6h1v-7.6h2.8v-0.9H43.5z M48.2,12.8h-3.1v8.6h3.1c0.8,0,1.5-0.2,2.2-0.6c0.6-0.4,1.1-0.9,1.4-1.6
	c0.3-0.7,0.5-1.4,0.5-2.1c0-0.8-0.2-1.5-0.5-2.1c-0.3-0.7-0.8-1.2-1.4-1.6C49.8,13,49,12.8,48.2,12.8z M48.1,20.5h-1.9v-6.7h1.9
	c0.6,0,1.2,0.2,1.7,0.5s0.9,0.7,1.1,1.2c0.3,0.5,0.4,1.1,0.4,1.7s-0.1,1.1-0.4,1.7c-0.3,0.5-0.6,0.9-1.1,1.2
	C49.3,20.3,48.7,20.5,48.1,20.5z M55.2,20.5v-3.2H59v-0.9h-3.8v-2.6h4.1v-0.9h-5.1v8.6h5.2v-0.9h-4.2V20.5z M62.1,12.8h-1v8.6h1
	V12.8z M63.5,16.8l3.4-3.9h-1.3l-3.4,3.9v0.1l4,4.6h1.3L63.5,16.8z M69.7,12.8h-1v8.6h1V12.8z M71,16.8l3.4-3.9h-1.3l-3.4,3.9v0.1
	l4,4.6H75L71,16.8z M77.3,20.5v-3.2h3.8v-0.9h-3.8v-2.6h4.1v-0.9h-5.1v8.6h5.2v-0.9h-4.2V20.5z M88.8,12.8V19l-5.5-6.2h-0.1v8.7h1
	v-6.1l5.5,6.2h0.1v-8.7L88.8,12.8L88.8,12.8z"/>
</svg>
