<svg version="1.1" id="cta" class="cta" xmlns="http://www.w3.org/2000/svg" xmlns:xlink="http://www.w3.org/1999/xlink" x="0px" y="0px"
	 viewBox="0 0 129.5 35" style="enable-background:new 0 0 129.5 35;" xml:space="preserve">
<path fill="#FFFFFF" d="M127.1,35H4.5C2,35,0,33,0,30.5v-26C0,2,2,0,4.5,0h100.7c1.9,0,3.5,0.9,4.5,2.4l19.4,28.7
	c0.4,0.5,0.5,1.2,0.4,1.9c-0.1,0.7-0.5,1.3-1,1.6C128.1,34.9,127.6,35,127.1,35z M4.5,1C2.6,1,1,2.6,1,4.5v26C1,32.4,2.6,34,4.5,34
	h122.6c0.3,0,0.6-0.1,0.8-0.2c0.3-0.2,0.5-0.5,0.6-1c0.1-0.4,0-0.8-0.2-1.2L108.9,3c-0.8-1.3-2.2-2-3.7-2H4.5z M25.5,17.1
	c0,2.2-1.6,4.3-4.1,4.3h-3.1v-8.5h3.1C23.9,12.8,25.5,14.9,25.5,17.1z M24.4,17.1c0-1.7-1.2-3.3-3.2-3.3h-1.9v6.7h1.9
	C23.2,20.4,24.4,18.8,24.4,17.1z M32.5,20.4v0.9h-5.2v-8.5h5.1v0.9h-4.1v2.6h3.8v0.9h-3.8v3.2H32.5z M29.1,11.9l-0.3-0.5l2.5-2.2
	l0.6,0.9L29.1,11.9z M33.8,17.1c0-2.4,1.8-4.4,4.3-4.4c1.2,0,2.2,0.4,2.9,1.1l-0.6,0.7c-0.6-0.5-1.4-0.9-2.3-0.9
	c-2,0-3.2,1.6-3.2,3.4s1.3,3.4,3.2,3.4c1,0,1.8-0.4,2.4-0.9l0.6,0.7c-0.7,0.7-1.8,1.2-3,1.2C35.6,21.5,33.8,19.5,33.8,17.1z
	 M42.2,17.1c0-2.4,1.8-4.4,4.3-4.4s4.3,2,4.3,4.4s-1.8,4.4-4.3,4.4S42.2,19.5,42.2,17.1z M49.8,17.1c0-1.9-1.3-3.4-3.2-3.4
	s-3.2,1.6-3.2,3.4s1.3,3.4,3.2,3.4S49.8,19,49.8,17.1z M52.6,18.1v-5.3h1v5.3c0,1.7,0.7,2.4,2.3,2.4s2.3-0.7,2.3-2.4v-5.3h1v5.3
	c0,2-0.9,3.3-3.3,3.3S52.6,20.1,52.6,18.1z M68.1,12.8l-3.8,8.8h-0.1l-3.8-8.8h1.1l2.8,6.6l2.8-6.6H68.1z M73,18.2l2.1,3.1h-1.2
	l-1.9-3h-0.3c-0.4,0-0.9,0-1.3-0.1v3h-1v-8.5c0.4,0,1.6-0.1,2.2-0.1c2.4,0,3.5,0.9,3.5,2.7C75.1,16.9,74.3,17.9,73,18.2z M70.3,17.4
	c0.4,0.1,0.9,0.1,1.2,0.1c1.6,0,2.4-0.7,2.4-2.1c0-1.3-0.7-1.7-2.9-1.7c-0.1,0-0.4,0-0.8,0V17.4z M77.8,21.4h-1v-8.5h1V21.4z
	 M83.6,18.2l2.1,3.1h-1.2l-1.9-3h-0.3c-0.4,0-0.9,0-1.3-0.1v3h-1v-8.5c0.4,0,1.6-0.1,2.2-0.1c2.4,0,3.5,0.9,3.5,2.7
	C85.7,16.9,85,17.9,83.6,18.2z M81,17.4c0.4,0.1,0.9,0.1,1.2,0.1c1.6,0,2.4-0.7,2.4-2.1c0-1.3-0.7-1.7-2.9-1.7c-0.1,0-0.4,0-0.8,0
	V17.4z"/>
</svg>
