<svg version="1.1" id="cta" class="cta" xmlns="http://www.w3.org/2000/svg" xmlns:xlink="http://www.w3.org/1999/xlink" x="0px" y="0px"
	 viewBox="0 0 157.2 50" style="enable-background:new 0 0 157.2 50;" xml:space="preserve">
<path fill="#FFFFFF" d="M148.7,1.5c3.8,0,7,3.1,7,7v33c0,3.8-3.1,7-7,7H23.8c-2.4,0-4.6-1.3-5.7-3.5L2.4,13.4c-1.3-2.6-1.1-5.6,0.4-8
	c1.5-2.4,4.1-3.9,7-3.9H148.7 M148.7,0H9.7C2.5,0-2.2,7.6,1,14.1l15.8,31.6c1.3,2.7,4,4.3,7,4.3h124.9c4.7,0,8.5-3.8,8.5-8.5v-33
	C157.2,3.8,153.4,0,148.7,0L148.7,0z M32.9,24.2c0,3-2.1,5.6-5.4,5.6h-4.4V18.6h4.4C30.9,18.6,32.9,21.2,32.9,24.2z M30.8,24.2
	c0-2.1-1.3-3.8-3.5-3.8h-2V28h2C29.4,28,30.8,26.3,30.8,24.2z M42.4,28v1.8h-7.2V18.6h7.1v1.8h-5v2.6h4.5v1.7h-4.5V28H42.4z
	 M37.6,17.6L37,16.8l3.5-3.3l1.2,1.5L37.6,17.6z M44.2,24.2c0-3.2,2.3-5.7,5.7-5.7c1.7,0,3,0.6,4,1.5l-1.2,1.4c-0.7-0.6-1.6-1-2.7-1
	c-2.3,0-3.6,1.7-3.6,3.9c0,2.2,1.3,3.9,3.6,3.9c1.2,0,2.1-0.4,2.9-1.1l1.2,1.3c-1,0.9-2.3,1.6-4.1,1.6C46.4,30,44.2,27.4,44.2,24.2z
	 M55.3,24.2c0-3.2,2.2-5.7,5.7-5.7c3.5,0,5.7,2.6,5.7,5.7S64.4,30,61,30C57.5,30,55.3,27.4,55.3,24.2z M64.5,24.2
	c0-2.2-1.4-3.9-3.5-3.9c-2.2,0-3.5,1.7-3.5,3.9s1.4,3.9,3.5,3.9C63.2,28.1,64.5,26.4,64.5,24.2z M68.9,25.3v-6.7H71v6.7
	c0,1.8,0.8,2.7,2.5,2.7c1.8,0,2.5-0.9,2.5-2.7v-6.7h2.1v6.7c0,2.6-1.2,4.6-4.6,4.6C70,30,68.9,28,68.9,25.3z M90.3,18.6L85.1,30
	h-0.3l-5.2-11.4h2.2l3.1,7.7l3.1-7.7H90.3z M97.8,29.8l-2.3-3.7h-0.1c-0.5,0-1.1,0-1.6-0.1v3.8h-2.1V18.6c0.8-0.1,2.7-0.2,3.6-0.2
	c3.2,0,4.7,1.2,4.7,3.7c0,1.8-0.8,3-2.4,3.6l2.6,4H97.8z M93.9,24.3c0.5,0,1,0.1,1.4,0.1c1.8,0,2.7-0.8,2.7-2.3c0-1.4-0.8-1.9-3-1.9
	c-0.2,0-0.6,0-1.1,0V24.3z M109.5,28v1.8h-7.2V18.6h7.1v1.8h-5v2.6h4.5v1.7h-4.5V28H109.5z M120.2,18.7l-6,9.3h5.7v1.8h-9.1v-0.1
	l6-9.3h-5.3v-1.8h8.7V18.7z M127.2,24.9v1.5h-5.4v-1.5H127.2z M136.5,28v1.8h-6.8V18.6h2.1V28H136.5z M144.9,27.7h-4.7l-0.9,2.1
	h-2.2l5.2-11.4h0.4l5.2,11.4h-2.2L144.9,27.7z M144.2,26.1l-1.7-4l-1.7,4H144.2z"/>
</svg>
