<svg version="1.1" id="cta-2" class="cta" xmlns="http://www.w3.org/2000/svg" xmlns:xlink="http://www.w3.org/1999/xlink" x="0px" y="0px"
	 viewBox="0 0 157.2 50" style="enable-background:new 0 0 157.2 50;" xml:space="preserve">
<g>
	<path fill="#FFFFFF" d="M97.9,22.1c0,1.5-0.9,2.3-2.7,2.3c-0.4,0-0.9,0-1.4-0.1v-4.1c0.5,0,0.8,0,1.1,0C97.1,20.2,97.9,20.7,97.9,22.1
		z M61,20.3c-2.2,0-3.5,1.7-3.5,3.9c0,2.2,1.4,3.9,3.5,3.9c2.2,0,3.5-1.7,3.5-3.9C64.5,22,63.2,20.3,61,20.3z M27.3,20.4h-2V28h2
		c2.2,0,3.5-1.7,3.5-3.8C30.8,22.1,29.4,20.4,27.3,20.4z M157.2,8.5v33c0,4.7-3.8,8.5-8.5,8.5H23.8c-3,0-5.7-1.7-7-4.3L1,14.1
		C-2.2,7.6,2.5,0,9.7,0h139C153.4,0,157.2,3.8,157.2,8.5z M37,16.8l0.6,0.7l4.1-2.5l-1.2-1.5L37,16.8z M32.9,24.2
		c0-3-2.1-5.6-5.4-5.6h-4.4v11.2h4.4C30.9,29.8,32.9,27.2,32.9,24.2z M42.4,28h-5.1v-3.2h4.5v-1.7h-4.5v-2.6h5v-1.8h-7.1v11.2h7.2
		V28z M54,28.3L52.8,27c-0.8,0.7-1.7,1.1-2.9,1.1c-2.3,0-3.6-1.7-3.6-3.9c0-2.2,1.3-3.9,3.6-3.9c1.1,0,2,0.4,2.7,1l1.2-1.4
		c-0.9-0.8-2.3-1.5-4-1.5c-3.4,0-5.7,2.5-5.7,5.7c0,3.2,2.2,5.7,5.7,5.7C51.7,30,53,29.3,54,28.3z M66.7,24.2c0-3.2-2.2-5.7-5.7-5.7
		c-3.5,0-5.7,2.6-5.7,5.7c0,3.2,2.2,5.7,5.7,5.7C64.4,30,66.7,27.4,66.7,24.2z M78.1,18.6H76v6.7c0,1.8-0.8,2.7-2.5,2.7
		c-1.8,0-2.5-0.9-2.5-2.7v-6.7h-2.1v6.7c0,2.6,1.2,4.6,4.6,4.6s4.6-2,4.6-4.6V18.6z M90.3,18.6H88l-3.1,7.7l-3.1-7.7h-2.2L84.7,30
		h0.3L90.3,18.6z M100.3,29.8l-2.6-4c1.5-0.6,2.4-1.8,2.4-3.6c0-2.5-1.6-3.7-4.7-3.7c-0.8,0-2.8,0.1-3.6,0.2v11.2h2.1V26
		c0.5,0,1.1,0.1,1.6,0.1h0.1l2.3,3.7H100.3z M109.5,28h-5.1v-3.2h4.5v-1.7h-4.5v-2.6h5v-1.8h-7.1v11.2h7.2V28z M120.2,18.6h-8.7v1.8
		h5.3l-6,9.3v0.1h9.1V28h-5.7l6-9.3V18.6z M127.2,24.9h-5.4v1.5h5.4V24.9z M136.5,28h-4.7v-9.4h-2.1v11.2h6.8V28z M148,29.8
		l-5.2-11.4h-0.4l-5.2,11.4h2.2l0.9-2.1h4.7l0.9,2.1H148z M140.9,26.1h3.3l-1.7-4L140.9,26.1z"/>
</g>
</svg>
