<?xml version="1.0" encoding="utf-8"?>
<!-- Generator: Adobe Illustrator 28.0.0, SVG Export Plug-In . SVG Version: 6.00 Build 0)  -->
<svg version="1.1" id="logo" xmlns="http://www.w3.org/2000/svg" xmlns:xlink="http://www.w3.org/1999/xlink" x="0px" y="0px"
	 viewBox="0 0 520.9 506.7" style="enable-background:new 0 0 520.9 506.7;" xml:space="preserve">
<path style="fill:#FFFFFF;" d="M412,82.4c-28.1,13.7-56.4,27.6-84.5,41.3l0,0c17.1,6.5,34.3,13.2,51.6,19.7
	c10.6,4.1,23.3,9.3,27.9,21.8c4.8,12.8-2.2,24.3-8.4,34.1c-9.4,14.7-18.7,29.3-28.1,44c-33.4,52.3-66.6,104.5-100.2,156.6
	c0-16.1-0.2-32.2-0.2-48.3l0,0c12.8-40.3,25.4-80.7,37.3-121.1c3.4-11.5,6.9-23,10.1-34.6c2.1-7,0.7-11.1-6-14.4
	c-17.1-8.4-34.1-16.8-51.2-25.2c-17.1,8.4-34.1,16.8-51.2,25.2c-6.7,3.3-8.1,7.5-6,14.4c3.4,11.5,6.7,23,10.1,34.6
	c12,40.4,24.5,80.9,37.3,121.1l0,0c0,16.1,0,32.2-0.2,48.3c-33.4-52.1-66.8-104.3-100.2-156.6c-9.4-14.7-18.7-29.3-28.1-44
	c-6.2-9.8-13.2-21.2-8.4-34.1c4.6-12.5,17.3-17.6,27.9-21.8c17.1-6.7,34.3-13.2,51.6-19.7l0,0c-28.1-13.7-56.4-27.6-84.5-41.3l0,0
	c8.7,14.7,17.6,29.5,26.4,44.2c-14.6,5.7-29.1,11.1-43.5,16.8C60.8,95.6,30.3,47.8,0,0c86.7,30.7,173.4,61.7,260.4,91.5
	C347.5,61.7,434,30.7,520.7,0c-30.3,47.8-60.8,95.6-91.3,143.4c-14.6-5.7-29-11.1-43.5-16.8C394.6,111.9,403.3,97.1,412,82.4
	 M397.7,468.3c1.3,0,2.4,1,2.4,2.2v7.1c0,1.2-1.1,2.2-2.4,2.2h-62v-11.5L397.7,468.3L397.7,468.3z M335.7,506.7v-15h52.7l9.2,15
	h17.5l-10.7-15.6c4.8,0,9.5-4.8,9.5-11.9V469c0-6.9-6.1-11.5-13.5-11.5H320v49.1L335.7,506.7z M94,493.2H16.2c-1.3,0-2.4-1-2.4-2.2
	v-17.8c0-1.2,1.1-2.2,2.4-2.2H94v-13.5H13.5C6.1,457.5,0,463.1,0,470v24.1c0,6.9,6.1,12.5,13.5,12.5H94V493.2z M184.5,457.5V491
	c0,1.2-1.1,2.2-2.4,2.2h-57c-1.3,0-2.4-1-2.4-2.2v-33.5h-16.2v36.6c0,6.9,6.1,12.5,13.5,12.5h67c7.5,0,13.5-5.6,13.5-12.5v-36.6
	H184.5z M441.8,479.8v-9.3c0-1.2,1.1-2.2,2.4-2.2h61.4v11.5C483.7,479.7,441.8,479.6,441.8,479.8z M520.8,457.5c0,0.1-0.1,0.1-0.2,0
	h-80.4c-7.5,0-13.5,5.6-13.5,12.5l0.1,36.6H442v-15h63.7v15h15.2v-49.1H520.8z M228.4,468.3h62.8c1.3,0,2.4,1,2.4,2.2v7.1
	c0,1.2-1.1,2.2-2.4,2.2h-62.8L228.4,468.3L228.4,468.3z M213.2,457.5v49.2h15.2v-15h65.5c10.5,0,13.5-5.6,13.5-12.5V469
	c0-6.9-3.6-11.5-13.5-11.5H213.2z"/>
</svg>
