<svg version="1.1" id="logo-long" class="abs" xmlns="http://www.w3.org/2000/svg" xmlns:xlink="http://www.w3.org/1999/xlink" x="0px" y="0px"
	 viewBox="0 0 692.9 99.2" style="enable-background:new 0 0 692.9 99.2;" xml:space="preserve">
<path style="fill:#F8F8F8;" d="M102.2,20.5c-7,3.4-14,6.8-20.9,10.3l0,0c4.3,1.6,8.5,3.3,12.8,4.9c2.6,1,5.8,2.3,6.9,5.4
	c1.2,3.2-0.6,6-2.1,8.5c-2.3,3.6-4.6,7.3-7,10.9c-8.3,13-16.5,25.9-24.8,38.8c0-4,0-8,0-12l0,0c3.2-10,6.3-20,9.3-30
	c0.8-2.9,1.7-5.7,2.5-8.6c0.5-1.7,0.2-2.8-1.5-3.6c-4.2-2.1-8.5-4.2-12.7-6.3c-4.2,2.1-8.5,4.2-12.7,6.3c-1.7,0.8-2,1.9-1.5,3.6
	c0.8,2.9,1.7,5.7,2.5,8.6c3,10,6.1,20,9.3,30l0,0c0,4,0,8,0,12c-8.3-12.9-16.6-25.9-24.8-38.8c-2.3-3.6-4.6-7.3-7-10.9
	c-1.5-2.4-3.3-5.3-2.1-8.5c1.2-3.1,4.3-4.4,6.9-5.4c4.3-1.6,8.5-3.3,12.8-4.9l0,0c-7-3.4-14-6.8-20.9-10.3l0,0
	c2.2,3.6,4.4,7.3,6.5,10.9c-3.6,1.4-7.2,2.8-10.8,4.2C15.1,23.7,7.5,11.9,0,0c21.5,7.6,43,15.3,64.6,22.7
	C86.1,15.3,107.6,7.6,129.1,0c-7.5,11.9-15.1,23.7-22.7,35.5c-3.6-1.4-7.2-2.8-10.8-4.2C97.8,27.7,100,24.1,102.2,20.5 M512.7,36.2
	v11.2h60.4c1.3,0,2.3-1,2.3-2.1v-6.9c0-1.2-1-2.1-2.3-2.1H512.7z M497.5,73.5l0-47.8h78.3c7.3,0,13.2,4.5,13.2,11.2v9.9
	c0,6.9-4.6,11.6-9.3,11.6l10.4,15.2h-17l-9-14.6h-51.3v14.6L497.5,73.5z M277.5,73.5h-78.3c-7.3,0-13.2-5.5-13.2-12.2V37.9
	c0-6.7,5.9-12.2,13.2-12.2h78.3v13.1h-75.7c-1.3,0-2.3,1-2.3,2.1v17.4c0,1.2,1,2.1,2.3,2.1h75.7V73.5z M381.4,25.7v35.7
	c0,6.7-5.9,12.2-13.2,12.2H303c-7.3,0-13.2-5.5-13.2-12.2V25.7h15.7v32.6c0,1.2,1,2.1,2.3,2.1h55.5c1.3,0,2.3-1,2.3-2.1V25.7H381.4z
	 M678.2,47.4V36.2h-59.8c-1.3,0-2.3,1-2.3,2.1v9C616.1,47.2,656.8,47.3,678.2,47.4z M692.9,73.5h-14.8V59h-62v14.6h-14.8l-0.1-35.7
	c0-6.7,5.9-12.2,13.2-12.2h78.3c0.1,0.1,0.2,0,0.2,0V73.5z M408.4,47.4h61.1c1.3,0,2.3-1,2.3-2.1v-6.9c0-1.2-1-2.1-2.3-2.1h-61.1
	V47.4z M472.1,25.7c9.7,0,13.2,4.5,13.2,11.2v9.9c0,6.7-3,12.2-13.2,12.2h-63.7v14.6h-14.8V25.7H472.1z"/>
</svg>
