<?xml version="1.0" encoding="utf-8"?>
<!-- Generator: Adobe Illustrator 26.5.0, SVG Export Plug-In . SVG Version: 6.00 Build 0)  -->
<svg version="1.1" id="logo" xmlns="http://www.w3.org/2000/svg" xmlns:xlink="http://www.w3.org/1999/xlink" x="0px" y="0px"
	 viewBox="0 0 120.5 109.9" style="enable-background:new 0 0 120.5 109.9;" xml:space="preserve">
<g>
	<g>
		<g>
			<linearGradient id="SVGID_1_" gradientUnits="userSpaceOnUse" x1="19.3409" y1="-0.321" x2="90.59" y2="59.4641">
				<stop  offset="0" style="stop-color:#05773D"/>
				<stop  offset="1.051602e-02" style="stop-color:#0D7D3F"/>
				<stop  offset="9.332132e-02" style="stop-color:#49AA4F"/>
				<stop  offset="0.1329" style="stop-color:#60BB55"/>
				<stop  offset="0.2937" style="stop-color:#B0D24A"/>
				<stop  offset="0.5131" style="stop-color:#60BB55"/>
				<stop  offset="0.5599" style="stop-color:#58B75D"/>
				<stop  offset="0.6343" style="stop-color:#44AD75"/>
				<stop  offset="0.7267" style="stop-color:#239D9A"/>
				<stop  offset="0.8085" style="stop-color:#008CC1"/>
				<stop  offset="1" style="stop-color:#004F6D"/>
			</linearGradient>
			<path style="fill:url(#SVGID_1_);" d="M113.8,57.8L23.9,0.6c-1.3-0.8-2-0.8-3.3-0.1L3.9,10.3c0.9-0.4,1.9-0.4,2.7,0.1L96.6,68
				c1.5,0.9,2,0.8,3.3,0.1l16.9-10.2C115.8,58.3,114.6,58.2,113.8,57.8z"/>
		</g>
		<g>
			<defs>
				<path id="SVGID_00000036225654144578466040000006862353861558313104_" d="M113.8,57.8L23.9,0.6c-1.3-0.8-2-0.8-3.3-0.1L3.9,10.3
					c0.9-0.4,1.9-0.4,2.7,0.1L96.6,68c1.5,0.9,2,0.8,3.3,0.1l16.9-10.2C115.8,58.3,114.7,58.3,113.8,57.8z"/>
			</defs>
			<clipPath id="SVGID_00000014614532238822833730000010375865534173309614_">
				<use xlink:href="#SVGID_00000036225654144578466040000006862353861558313104_"  style="overflow:visible;"/>
			</clipPath>
			<g style="opacity:0.9;clip-path:url(#SVGID_00000014614532238822833730000010375865534173309614_);">
			</g>
		</g>
		<g>
			
				<linearGradient id="SVGID_00000057866802598920571060000008870830504103720881_" gradientUnits="userSpaceOnUse" x1="612.7568" y1="-7.603" x2="682.8255" y2="75.9016" gradientTransform="matrix(-1 0 0 1 708.0571 0)">
				<stop  offset="0" style="stop-color:#05773D"/>
				<stop  offset="1.200925e-02" style="stop-color:#0D7D3F"/>
				<stop  offset="0.1066" style="stop-color:#49AA4F"/>
				<stop  offset="0.1517" style="stop-color:#60BB55"/>
				<stop  offset="0.3314" style="stop-color:#C6D85D"/>
				<stop  offset="0.5508" style="stop-color:#60BB55"/>
				<stop  offset="0.5909" style="stop-color:#58B75D"/>
				<stop  offset="0.6547" style="stop-color:#44AD75"/>
				<stop  offset="0.7337" style="stop-color:#239D9A"/>
				<stop  offset="0.8038" style="stop-color:#008CC1"/>
				<stop  offset="0.956" style="stop-color:#004F6D"/>
			</linearGradient>
			<path style="fill:url(#SVGID_00000057866802598920571060000008870830504103720881_);" d="M6.7,57.8l90-57.2
				c1.3-0.9,2-0.8,3.3-0.1l16.7,9.8c-0.9-0.4-1.9-0.5-2.7,0.1L24.1,68c-1.8,1-2,0.7-3.3,0.1l-17-10.1C4.7,58.4,5.8,58.4,6.7,57.8z"
				/>
		</g>
		
			<linearGradient id="SVGID_00000126309629690854629190000010088164382658107318_" gradientUnits="userSpaceOnUse" x1="1.1284" y1="11.284" x2="16.7631" y2="54.2397">
			<stop  offset="9.475987e-02" style="stop-color:#00361B"/>
			<stop  offset="0.1848" style="stop-color:#0F4922"/>
			<stop  offset="0.5723" style="stop-color:#4A993C"/>
			<stop  offset="0.75" style="stop-color:#62B947"/>
			<stop  offset="0.7949" style="stop-color:#5CB446"/>
			<stop  offset="0.8531" style="stop-color:#4CA542"/>
			<stop  offset="0.9184" style="stop-color:#328C3D"/>
			<stop  offset="0.9885" style="stop-color:#0D6A35"/>
			<stop  offset="1" style="stop-color:#066434"/>
		</linearGradient>
		<path style="fill:url(#SVGID_00000126309629690854629190000010088164382658107318_);" d="M6.9,57.7l11.8-7.5
			c-0.7-4.2-1.1-9.9-1.1-16.1c0-6.2,0.4-11.8,1.1-16l-12-7.7c-0.9-0.5-2-0.6-2.9-0.1c-0.7,0.4-1,0.9-1,0.9c-0.1,0.1-0.1,0.2-0.2,0.3
			C1.1,14.5,0,23.5,0,34.1c0,10.8,1.1,19.8,2.7,22.7C2.7,56.8,4.1,59.5,6.9,57.7z"/>
		
			<linearGradient id="SVGID_00000145751937234271983270000003612971732331732632_" gradientUnits="userSpaceOnUse" x1="339.5525" y1="12.5529" x2="358.2389" y2="52.626" gradientTransform="matrix(-1 0 0 1 460.9701 0)">
			<stop  offset="9.475987e-02" style="stop-color:#00361B"/>
			<stop  offset="0.1848" style="stop-color:#0F4922"/>
			<stop  offset="0.5723" style="stop-color:#4A993C"/>
			<stop  offset="0.75" style="stop-color:#62B947"/>
			<stop  offset="0.794" style="stop-color:#5AB245"/>
			<stop  offset="0.8611" style="stop-color:#459E41"/>
			<stop  offset="0.9427" style="stop-color:#237E3A"/>
			<stop  offset="1" style="stop-color:#066434"/>
		</linearGradient>
		<path style="fill:url(#SVGID_00000145751937234271983270000003612971732331732632_);" d="M113.6,57.6l-11.8-7.5
			c0.7-4.2,1.1-9.8,1.1-16c0-6.2-0.4-11.7-1.1-15.9l12-7.8c0.9-0.5,2-0.6,2.9-0.1c0.7,0.4,1,0.9,1,0.9c0.1,0.1,0.1,0.2,0.2,0.3
			c1.5,3,2.6,11.9,2.6,22.5c0,10.8-1.1,19.8-2.7,22.7C117.8,56.8,116.3,59.4,113.6,57.6z"/>
	</g>
	<path fill="#FFFFFF" d="M5.5,84.1c-0.2,0-0.3-0.1-0.3-0.3V72.9c0-0.2,0.1-0.3,0.3-0.3h5c0.1,0,0.2,0.1,0.3,0.2l5.5,8.5l5.5-8.5
		c0.1-0.1,0.2-0.2,0.3-0.2h5c0.2,0,0.3,0.1,0.3,0.3v10.8c0,0.2-0.1,0.3-0.3,0.3h-3.1c-0.2,0-0.3-0.1-0.3-0.3l0-7.5l-5.1,7.7
		c-0.1,0.1-0.2,0.2-0.3,0.2h-4c-0.1,0-0.2-0.1-0.3-0.1l-5.1-7.7v7.5c0,0.2-0.1,0.3-0.3,0.3H5.5 M36.3,79.6v4.1
		c0,0.2,0.1,0.3,0.3,0.3h3.1c0.2,0,0.3-0.1,0.3-0.3v-4.1l7.3-6.4c0.1-0.1,0.1-0.2,0.1-0.3c0-0.2-0.1-0.3-0.3-0.3h-3.9
		c-0.1,0-0.2,0-0.2,0.1l-4.7,4.2l-4.7-4.2c-0.1-0.1-0.1-0.1-0.2-0.1h-4.1c-0.2,0-0.3,0.2-0.3,0.4c0,0.1,0,0.2,0.1,0.3L36.3,79.6z
		 M81.6,72.7c0-0.1-0.1-0.1-0.2-0.1h-3.5c-0.1,0-0.2,0.1-0.2,0.1l-4.4,8.4l-4.1-8.4c0-0.1-0.1-0.1-0.2-0.1h-3.6
		c-0.1,0-0.2,0.1-0.2,0.1L61,81.1l-4.4-8.4c0-0.1-0.1-0.1-0.2-0.1h-3.6c-0.1,0-0.2,0.1-0.2,0.1c0,0.1-0.1,0.2,0,0.2l6,11.1
		c0,0.1,0.1,0.1,0.2,0.1H63c0.1,0,0.2-0.1,0.2-0.1l3.9-7.9l3.9,7.9c0,0.1,0.1,0.1,0.2,0.1h4.2c0.1,0,0.2-0.1,0.2-0.1l6-11.1
		C81.6,72.8,81.6,72.7,81.6,72.7 M99.8,83.6c0.1,0.1,0.1,0.2,0,0.3c0,0.1-0.1,0.1-0.2,0.1H96c-0.1,0-0.1-0.1-0.2-0.1l-1.4-2h-9.5
		l-1.4,2c-0.1,0.1-0.1,0.1-0.2,0.1h-3.5c-0.1,0-0.2-0.1-0.2-0.1s0-0.2,0-0.3l7.9-11.1c0.1-0.1,0.1-0.1,0.2-0.1h4
		c0.1,0,0.1,0.1,0.2,0.1L99.8,83.6z M89.6,75.1l-2.8,4h5.6L89.6,75.1z M114.9,72.5h-4c-0.1,0-0.1,0-0.2,0.1l-4.8,4.3l-4.8-4.3
		c-0.1,0-0.1-0.1-0.2-0.1h-4.2c-0.1,0-0.2,0.1-0.2,0.3c0,0.1,0,0.1,0.1,0.2l7.4,6.6v4.2c0,0.1,0.1,0.2,0.2,0.2h3.1
		c0.1,0,0.2-0.1,0.2-0.2v-4.2l7.4-6.5c0.1-0.1,0.1-0.2,0.1-0.2C115.2,72.6,115,72.5,114.9,72.5 M5.3,109.6h19.4
		c2.2,0,4.1-0.1,5.6-0.4c1.5-0.3,2.7-0.6,3.6-1.1c0.9-0.5,1.5-1,1.9-1.7c0.4-0.7,0.6-1.4,0.6-2.2c0-1-0.2-1.8-0.7-2.4
		c-0.5-0.7-1.2-1.2-2.3-1.6c-1.1-0.4-2.5-0.7-4.3-0.9v-0.1c1.6-0.2,2.9-0.5,4-0.8c1-0.4,1.8-0.9,2.3-1.5c0.5-0.6,0.8-1.4,0.8-2.3
		c0-1.1-0.4-2-1.2-2.8c-0.8-0.7-2-1.3-3.7-1.7c-1.7-0.4-3.8-0.6-6.5-0.6H5.3c-0.3,0-0.5,0.2-0.5,0.5v19.2
		C4.8,109.4,5,109.6,5.3,109.6z M13.2,93.3c0-0.2,0.2-0.4,0.4-0.4h8.1c1.7,0,2.9,0.1,3.7,0.2c0.8,0.1,1.4,0.4,1.8,0.7
		c0.3,0.4,0.5,0.9,0.5,1.6c0,0.6-0.2,1.1-0.6,1.4c-0.4,0.4-1,0.6-1.9,0.8c-0.9,0.2-2.1,0.2-3.6,0.2h-8.1c-0.2,0-0.4-0.2-0.4-0.4
		V93.3z M13.2,101.5c0-0.2,0.2-0.4,0.4-0.4H22c1.6,0,2.8,0.1,3.7,0.2c0.9,0.2,1.5,0.4,1.9,0.8c0.4,0.4,0.5,0.9,0.5,1.6
		c0,0.7-0.2,1.2-0.5,1.6c-0.3,0.4-1,0.6-1.9,0.8c-0.9,0.1-2.1,0.2-3.7,0.2h-8.4c-0.2,0-0.4-0.2-0.4-0.4V101.5z M66.5,109.6
		c1.9-0.2,3.5-0.5,4.7-0.8c1.2-0.4,2.1-0.9,2.7-1.6c0.6-0.7,1-1.6,1.2-2.6c0.2-1.1,0.3-2.3,0.3-3.8V90c0-0.3-0.2-0.5-0.5-0.5h-7.5
		c-0.3,0-0.5,0.2-0.5,0.5v11.7c0,1-0.1,1.9-0.2,2.5c-0.1,0.6-0.4,1.1-0.9,1.4c-0.5,0.3-1.2,0.5-2.3,0.7c-1,0.1-2.5,0.2-4.3,0.2
		c-1.9,0-3.3-0.1-4.4-0.2c-1.1-0.1-1.8-0.3-2.3-0.7c-0.5-0.3-0.7-0.8-0.9-1.4c-0.1-0.6-0.2-1.5-0.2-2.5V90c0-0.3-0.2-0.5-0.5-0.5
		h-7.5c-0.3,0-0.5,0.2-0.5,0.5v10.7c0,1.5,0.1,2.7,0.3,3.8c0.2,1.1,0.6,1.9,1.2,2.6c0.6,0.7,1.5,1.2,2.7,1.6
		c1.2,0.4,2.7,0.7,4.7,0.8c1.9,0.2,4.3,0.3,7.2,0.3C62.1,109.9,64.5,109.8,66.5,109.6z M94.2,109.6h7.5c0.3,0,0.5-0.2,0.5-0.5v-6.7
		l13.1-12.2c0.3-0.3,0.1-0.8-0.3-0.8h-7.1c-0.1,0-0.2,0-0.3,0.1l-9.1,8.8h-0.4l-9.2-8.8c-0.1-0.1-0.2-0.1-0.3-0.1H81
		c-0.4,0-0.6,0.5-0.3,0.8l13.1,12.2v6.7C93.7,109.4,93.9,109.6,94.2,109.6z"/>
</g>
</svg>
