<?xml version="1.0" encoding="utf-8"?>
<!-- Generator: Adobe Illustrator 26.5.0, SVG Export Plug-In . SVG Version: 6.00 Build 0)  -->
<svg version="1.1" id="logo" xmlns="http://www.w3.org/2000/svg" xmlns:xlink="http://www.w3.org/1999/xlink" x="0px" y="0px"
	 viewBox="0 0 137.7 145.9" style="enable-background:new 0 0 137.7 145.9;" xml:space="preserve">
<g>
	<g>
		
			<linearGradient id="SVGID_1_" gradientUnits="userSpaceOnUse" x1="28.5284" y1="148.3292" x2="99.7775" y2="88.5441" gradientTransform="matrix(1 0 0 -1 0 148)">
			<stop  offset="0" style="stop-color:#05773D"/>
			<stop  offset="1.051602e-02" style="stop-color:#0D7D3F"/>
			<stop  offset="9.332132e-02" style="stop-color:#49AA4F"/>
			<stop  offset="0.1329" style="stop-color:#60BB55"/>
			<stop  offset="0.2937" style="stop-color:#B0D24A"/>
			<stop  offset="0.5131" style="stop-color:#60BB55"/>
			<stop  offset="0.5599" style="stop-color:#58B75D"/>
			<stop  offset="0.6343" style="stop-color:#44AD75"/>
			<stop  offset="0.7267" style="stop-color:#239D9A"/>
			<stop  offset="0.8085" style="stop-color:#008CC1"/>
			<stop  offset="1" style="stop-color:#004F6D"/>
		</linearGradient>
		<path style="fill:url(#SVGID_1_);" d="M123,57.8L33.1,0.6c-1.3-0.8-2-0.8-3.3-0.1l-16.7,9.7c0.9-0.4,1.9-0.4,2.7,0.1L105.7,68
			c1.5,0.9,2,0.8,3.3,0.1l16.9-10.2C125,58.3,123.8,58.2,123,57.8z"/>
	</g>
	<g>
		<g>
			<defs>
				<path id="SVGID_00000095322192116394880770000004899349327054861450_" d="M123,57.8L33.1,0.6c-1.3-0.8-2-0.8-3.3-0.1l-16.7,9.7
					c0.9-0.4,1.9-0.4,2.7,0.1L105.7,68c1.5,0.9,2,0.8,3.3,0.1l16.9-10.2C125,58.3,123.9,58.3,123,57.8z"/>
			</defs>
			<clipPath id="SVGID_00000041281187738932214600000008905137665427431569_">
				<use xlink:href="#SVGID_00000095322192116394880770000004899349327054861450_"  style="overflow:visible;"/>
			</clipPath>
		</g>
	</g>
	<g>
		
			<linearGradient id="SVGID_00000110463813127914980240000018371613585207048625_" gradientUnits="userSpaceOnUse" x1="601.9252" y1="155.6626" x2="672.0113" y2="72.1374" gradientTransform="matrix(-1 0 0 -1 706.4183 148)">
			<stop  offset="0" style="stop-color:#05773D"/>
			<stop  offset="1.200925e-02" style="stop-color:#0D7D3F"/>
			<stop  offset="0.1066" style="stop-color:#49AA4F"/>
			<stop  offset="0.1517" style="stop-color:#60BB55"/>
			<stop  offset="0.3314" style="stop-color:#C6D85D"/>
			<stop  offset="0.5508" style="stop-color:#60BB55"/>
			<stop  offset="0.5909" style="stop-color:#58B75D"/>
			<stop  offset="0.6547" style="stop-color:#44AD75"/>
			<stop  offset="0.7337" style="stop-color:#239D9A"/>
			<stop  offset="0.8038" style="stop-color:#008CC1"/>
			<stop  offset="0.956" style="stop-color:#004F6D"/>
		</linearGradient>
		<path style="fill:url(#SVGID_00000110463813127914980240000018371613585207048625_);" d="M15.9,57.8l90-57.2
			c1.3-0.9,2-0.8,3.3-0.1l16.7,9.8c-0.9-0.4-1.9-0.5-2.7,0.1L33.2,68c-1.8,1-2,0.7-3.3,0.1L13,57.9C13.9,58.4,15,58.4,15.9,57.8z"/>
	</g>
	
		<linearGradient id="SVGID_00000044137862200918505960000003926603668056359081_" gradientUnits="userSpaceOnUse" x1="10.3356" y1="136.7641" x2="25.9826" y2="93.7747" gradientTransform="matrix(1 0 0 -1 0 148)">
		<stop  offset="9.475987e-02" style="stop-color:#00361B"/>
		<stop  offset="0.1848" style="stop-color:#0F4922"/>
		<stop  offset="0.5723" style="stop-color:#4A993C"/>
		<stop  offset="0.75" style="stop-color:#62B947"/>
		<stop  offset="0.7949" style="stop-color:#5CB446"/>
		<stop  offset="0.8531" style="stop-color:#4CA542"/>
		<stop  offset="0.9184" style="stop-color:#328C3D"/>
		<stop  offset="0.9885" style="stop-color:#0D6A35"/>
		<stop  offset="1" style="stop-color:#066434"/>
	</linearGradient>
	<path style="fill:url(#SVGID_00000044137862200918505960000003926603668056359081_);" d="M16.1,57.7l11.8-7.5
		c-0.7-4.2-1.1-9.9-1.1-16.1s0.4-11.8,1.1-16l-12-7.7c-0.9-0.5-2-0.6-2.9-0.1c-0.7,0.4-1,0.9-1,0.9c-0.1,0.1-0.1,0.2-0.2,0.3
		c-1.5,3-2.6,11.9-2.6,22.5c0,10.8,1.1,19.8,2.7,22.7C11.9,56.8,13.3,59.5,16.1,57.7z"/>
	
		<linearGradient id="SVGID_00000165944509854863417660000000047044909980833204_" gradientUnits="userSpaceOnUse" x1="328.718" y1="135.44" x2="347.4145" y2="95.3452" gradientTransform="matrix(-1 0 0 -1 459.3313 148)">
		<stop  offset="9.475987e-02" style="stop-color:#00361B"/>
		<stop  offset="0.1848" style="stop-color:#0F4922"/>
		<stop  offset="0.5723" style="stop-color:#4A993C"/>
		<stop  offset="0.75" style="stop-color:#62B947"/>
		<stop  offset="0.794" style="stop-color:#5AB245"/>
		<stop  offset="0.8611" style="stop-color:#459E41"/>
		<stop  offset="0.9427" style="stop-color:#237E3A"/>
		<stop  offset="1" style="stop-color:#066434"/>
	</linearGradient>
	<path style="fill:url(#SVGID_00000165944509854863417660000000047044909980833204_);" d="M122.8,57.6L111,50.1
		c0.7-4.2,1.1-9.8,1.1-16s-0.4-11.7-1.1-15.9l12-7.8c0.9-0.5,2-0.6,2.9-0.1c0.7,0.4,1,0.9,1,0.9c0.1,0.1,0.1,0.2,0.2,0.3
		c1.5,3,2.6,11.9,2.6,22.5c0,10.8-1.1,19.8-2.7,22.7C126.9,56.8,125.5,59.4,122.8,57.6z"/>
</g>
<path fill="#FFFFFF" d="M0,131.7h1.4l2.4,8.8l0,0l2.6-8.8h1.4l2.6,8.8l0,0l2.5-8.8h1.3l-3.1,10.6H9.8l-2.6-9l0,0l-2.6,9H3.1L0,131.7z
	 M15.3,132.6c0-0.2,0.1-0.4,0.2-0.6c0.2-0.2,0.4-0.3,0.6-0.3s0.4,0.1,0.6,0.3s0.2,0.4,0.2,0.6c0,0.2-0.1,0.5-0.2,0.6
	s-0.4,0.2-0.6,0.2s-0.5-0.1-0.6-0.2C15.4,133,15.3,132.8,15.3,132.6z M15.6,135.3h1.2v7h-1.2C15.6,142.3,15.6,135.3,15.6,135.3z
	 M22.9,136.3h-2.1v3.5c0,0.2,0,0.4,0,0.6c0,0.2,0.1,0.4,0.1,0.5c0.1,0.1,0.2,0.3,0.3,0.3c0.1,0.1,0.3,0.1,0.6,0.1
	c0.2,0,0.3,0,0.5-0.1s0.3-0.1,0.5-0.2v1.1c-0.2,0.1-0.4,0.2-0.7,0.2c-0.2,0-0.5,0.1-0.7,0.1c-0.4,0-0.8-0.1-1-0.2s-0.4-0.3-0.6-0.5
	c-0.1-0.2-0.2-0.4-0.3-0.7s-0.1-0.6-0.1-1v-3.9h-1.5v-1h1.5v-2h1.2v2h2.1v1.2H22.9z M24.4,131h1.2v5.3l0,0c0.1-0.1,0.2-0.3,0.3-0.4
	c0.1-0.1,0.3-0.3,0.5-0.4c0.2-0.1,0.4-0.2,0.7-0.3c0.2-0.1,0.5-0.1,0.8-0.1c0.5,0,0.9,0.1,1.2,0.2c0.3,0.1,0.6,0.3,0.8,0.6
	s0.4,0.6,0.5,0.9c0.1,0.4,0.2,0.7,0.2,1.2v4.3h-1.2v-4.2c0-0.6-0.1-1.1-0.4-1.4s-0.7-0.5-1.2-0.5c-0.4,0-0.7,0.1-1,0.2
	c-0.3,0.1-0.5,0.3-0.7,0.6c-0.2,0.2-0.3,0.5-0.4,0.9s-0.1,0.7-0.1,1.1v3.4h-1.2C24.4,142.4,24.4,131,24.4,131z M39.4,144
	c-0.1,0.3-0.2,0.6-0.4,0.8s-0.3,0.5-0.5,0.6c-0.2,0.2-0.4,0.3-0.6,0.4c-0.2,0.1-0.5,0.1-0.9,0.1c-0.2,0-0.3,0-0.5,0
	s-0.4-0.1-0.5-0.1l0.2-1c0.1,0,0.2,0.1,0.4,0.1s0.3,0,0.5,0c0.4,0,0.7-0.1,0.8-0.3c0.2-0.2,0.3-0.5,0.5-0.8l0.5-1.3l-2.9-7.1h1.4
	l2.2,5.5l0,0l2.1-5.5H43L39.4,144z M43.7,138.8c0-0.6,0.1-1.1,0.3-1.5c0.2-0.5,0.5-0.8,0.8-1.2c0.3-0.3,0.7-0.6,1.2-0.8
	s1-0.3,1.5-0.3s1,0.1,1.5,0.3s0.9,0.4,1.2,0.8c0.3,0.3,0.6,0.7,0.8,1.2c0.2,0.4,0.3,0.9,0.3,1.5c0,0.5-0.1,1-0.3,1.5
	c-0.2,0.4-0.5,0.8-0.8,1.2c-0.3,0.3-0.7,0.6-1.2,0.8s-1,0.3-1.5,0.3s-1-0.1-1.5-0.3s-0.9-0.4-1.2-0.8c-0.3-0.3-0.6-0.7-0.8-1.2
	C43.8,139.9,43.7,139.4,43.7,138.8z M45,138.8c0,0.4,0.1,0.7,0.2,1c0.1,0.3,0.3,0.6,0.5,0.8s0.5,0.4,0.8,0.6c0.3,0.1,0.6,0.2,1,0.2
	s0.7-0.1,1-0.2c0.3-0.1,0.6-0.3,0.8-0.6c0.2-0.2,0.4-0.5,0.5-0.8s0.2-0.7,0.2-1c0-0.4-0.1-0.7-0.2-1s-0.3-0.6-0.5-0.8
	s-0.5-0.4-0.8-0.6c-0.3-0.1-0.6-0.2-1-0.2s-0.7,0.1-1,0.2c-0.3,0.1-0.6,0.3-0.8,0.6s-0.4,0.5-0.5,0.8C45,138.1,45,138.5,45,138.8z
	 M59.1,140.7c0,0.3,0,0.6,0,0.9c0,0.3,0,0.5,0,0.8H58c0-0.2,0-0.4,0-0.6s0-0.4,0-0.6l0,0c-0.1,0.2-0.2,0.3-0.3,0.5s-0.3,0.3-0.5,0.4
	s-0.4,0.2-0.7,0.3c-0.2,0.1-0.5,0.1-0.8,0.1c-0.5,0-0.9-0.1-1.2-0.2c-0.3-0.1-0.6-0.3-0.8-0.6c-0.2-0.2-0.4-0.6-0.5-0.9
	c-0.1-0.4-0.2-0.7-0.2-1.2v-4.3h1.2v4.2c0,0.6,0.1,1.1,0.4,1.4c0.3,0.3,0.7,0.5,1.2,0.5c0.4,0,0.7-0.1,1-0.2
	c0.3-0.1,0.5-0.3,0.7-0.6c0.2-0.2,0.3-0.5,0.4-0.9s0.1-0.7,0.1-1.1v-3.4h1.2v5.5H59.1z M65.4,136.2c0.4-0.4,0.8-0.6,1.3-0.8
	s1-0.3,1.5-0.3c1,0,1.8,0.2,2.2,0.7c0.5,0.5,0.7,1.2,0.7,2.2v3c0,0.2,0,0.4,0,0.6c0,0.2,0,0.4,0.1,0.6h-1.1c0-0.2-0.1-0.3-0.1-0.5
	s0-0.4,0-0.5l0,0c-0.2,0.4-0.5,0.7-0.9,0.9s-0.8,0.3-1.4,0.3c-0.4,0-0.7,0-1-0.1s-0.6-0.2-0.8-0.4c-0.2-0.2-0.4-0.4-0.6-0.7
	c-0.1-0.3-0.2-0.6-0.2-0.9c0-0.6,0.2-1,0.5-1.4s0.7-0.6,1.1-0.7s0.9-0.3,1.4-0.3s1-0.1,1.4-0.1H70v-0.2c0-0.5-0.2-0.9-0.5-1.2
	s-0.7-0.4-1.3-0.4c-0.4,0-0.8,0.1-1.1,0.2c-0.4,0.1-0.7,0.3-1,0.6L65.4,136.2z M68.8,139c-0.8,0-1.3,0.1-1.8,0.3
	c-0.4,0.2-0.7,0.6-0.7,1s0.1,0.8,0.4,0.9s0.7,0.3,1.1,0.3c0.3,0,0.6-0.1,0.9-0.2c0.3-0.1,0.5-0.3,0.6-0.5s0.3-0.4,0.4-0.7
	s0.1-0.5,0.2-0.8V139H68.8z M73.4,131h1.2v11.3h-1.2V131z M77,131h1.2v11.3H77V131z M88.5,136.3h-2.1v3.5c0,0.2,0,0.4,0,0.6
	c0,0.2,0.1,0.4,0.1,0.5c0.1,0.1,0.2,0.3,0.3,0.3c0.1,0.1,0.3,0.1,0.6,0.1c0.2,0,0.3,0,0.5-0.1s0.3-0.1,0.5-0.2v1.1
	c-0.2,0.1-0.4,0.2-0.7,0.2c-0.2,0-0.5,0.1-0.7,0.1c-0.4,0-0.8-0.1-1-0.2s-0.4-0.3-0.6-0.5c-0.1-0.2-0.2-0.4-0.3-0.7s-0.1-0.6-0.1-1
	v-3.9h-1.5v-1H85v-2h1.2v2h2.1v1.2H88.5z M90,131h1.2v5.3l0,0c0.1-0.1,0.2-0.3,0.3-0.4c0.1-0.1,0.3-0.3,0.5-0.4
	c0.2-0.1,0.4-0.2,0.7-0.3c0.2-0.1,0.5-0.1,0.8-0.1c0.5,0,0.9,0.1,1.2,0.2c0.3,0.1,0.6,0.3,0.8,0.6s0.4,0.6,0.5,0.9
	c0.1,0.4,0.2,0.7,0.2,1.2v4.3H95v-4.2c0-0.6-0.1-1.1-0.4-1.4s-0.7-0.5-1.2-0.5c-0.4,0-0.7,0.1-1,0.2c-0.3,0.1-0.5,0.3-0.7,0.6
	c-0.2,0.2-0.3,0.5-0.4,0.9s-0.1,0.7-0.1,1.1v3.4H90V131z M104.6,141.1c-0.4,0.5-0.9,0.9-1.4,1.1s-1.1,0.3-1.7,0.3
	c-0.5,0-1-0.1-1.5-0.3c-0.4-0.2-0.8-0.5-1.1-0.8c-0.3-0.3-0.5-0.7-0.7-1.2s-0.2-0.9-0.2-1.4s0.1-1,0.3-1.5c0.2-0.5,0.4-0.8,0.8-1.2
	c0.3-0.3,0.7-0.6,1.1-0.8s0.9-0.3,1.4-0.3s0.9,0.1,1.4,0.2c0.4,0.2,0.8,0.4,1.1,0.7c0.3,0.3,0.5,0.7,0.7,1.2s0.2,1,0.2,1.6v0.4h-5.7
	c0,0.3,0.1,0.6,0.2,0.9c0.1,0.3,0.3,0.5,0.5,0.7s0.4,0.4,0.7,0.5s0.6,0.2,0.9,0.2c0.5,0,0.9-0.1,1.3-0.3s0.7-0.4,0.9-0.8
	L104.6,141.1z M103.6,138.2c0-0.6-0.2-1.1-0.6-1.4s-0.9-0.5-1.5-0.5s-1.2,0.2-1.6,0.5c-0.4,0.4-0.6,0.8-0.7,1.4H103.6z M118.4,142.3
	h-1.2l-2-5.4l0,0l-1.8,5.4h-1.2l-2.3-7h1.3l1.6,5.4l0,0l1.8-5.4h1.2l1.8,5.4l0,0l1.6-5.4h1.3L118.4,142.3z M121.9,136.2
	c0.4-0.4,0.8-0.6,1.3-0.8s1-0.3,1.5-0.3c1,0,1.8,0.2,2.2,0.7c0.5,0.5,0.7,1.2,0.7,2.2v3c0,0.2,0,0.4,0,0.6c0,0.2,0,0.4,0.1,0.6h-1.1
	c0-0.2-0.1-0.3-0.1-0.5s0-0.4,0-0.5l0,0c-0.2,0.4-0.5,0.7-0.9,0.9s-0.8,0.3-1.4,0.3c-0.4,0-0.7,0-1-0.1s-0.6-0.2-0.8-0.4
	c-0.2-0.2-0.4-0.4-0.6-0.7c-0.1-0.3-0.2-0.6-0.2-0.9c0-0.6,0.2-1,0.5-1.4s0.7-0.6,1.1-0.7s0.9-0.3,1.4-0.3s1-0.1,1.4-0.1h0.5v-0.2
	c0-0.5-0.2-0.9-0.5-1.2s-0.7-0.4-1.3-0.4c-0.4,0-0.8,0.1-1.1,0.2c-0.4,0.1-0.7,0.3-1,0.6L121.9,136.2z M125.2,139
	c-0.8,0-1.3,0.1-1.8,0.3c-0.4,0.2-0.7,0.6-0.7,1s0.1,0.8,0.4,0.9s0.7,0.3,1.1,0.3c0.3,0,0.6-0.1,0.9-0.2c0.3-0.1,0.5-0.3,0.6-0.5
	s0.3-0.4,0.4-0.7s0.1-0.5,0.2-0.8V139H125.2z M132.3,144c-0.1,0.3-0.2,0.6-0.4,0.8s-0.3,0.5-0.5,0.6c-0.2,0.2-0.4,0.3-0.6,0.4
	c-0.2,0.1-0.5,0.1-0.9,0.1c-0.2,0-0.3,0-0.5,0s-0.4-0.1-0.5-0.1l0.2-1c0.1,0,0.2,0.1,0.4,0.1s0.3,0,0.5,0c0.4,0,0.7-0.1,0.8-0.3
	c0.2-0.2,0.3-0.5,0.5-0.8l0.5-1.3l-2.9-7.1h1.4l2.2,5.5l0,0l2.1-5.5h1.3L132.3,144z M136.8,140.6c0.2,0,0.5,0.1,0.6,0.3
	c0.2,0.2,0.3,0.4,0.3,0.6s-0.1,0.5-0.3,0.6c-0.2,0.2-0.4,0.3-0.6,0.3c-0.2,0-0.4-0.1-0.6-0.3c-0.2-0.2-0.3-0.4-0.3-0.6
	s0.1-0.5,0.3-0.6C136.4,140.7,136.6,140.6,136.8,140.6z M14.7,84.1h2.9c0.2,0,0.3-0.1,0.3-0.3v-7.5L23,84c0.1,0.1,0.2,0.1,0.3,0.1h4
	c0.1,0,0.2-0.1,0.3-0.2l5.1-7.7v7.5c0,0.2,0.2,0.3,0.3,0.3h3.1c0.2,0,0.3-0.1,0.3-0.3V72.9c0-0.2-0.1-0.3-0.3-0.3h-5
	c-0.1,0-0.2,0.1-0.3,0.2l-5.5,8.5l-5.5-8.5c-0.1-0.1-0.2-0.2-0.3-0.2h-5c-0.2,0-0.3,0.2-0.3,0.3v10.8C14.3,83.9,14.4,84.1,14.7,84.1
	 M45.5,79.6v4.1c0,0.2,0.1,0.3,0.3,0.3h3.1c0.2,0,0.3-0.1,0.3-0.3v-4.1l7.3-6.4c0.1-0.1,0.1-0.2,0.1-0.3c0-0.2-0.1-0.3-0.3-0.3h-3.9
	c-0.1,0-0.2,0-0.2,0.1l-4.7,4.2l-4.7-4.2c-0.1-0.1-0.1-0.1-0.2-0.1h-4.1c-0.2,0-0.3,0.2-0.3,0.4c0,0.1,0,0.2,0.1,0.3L45.5,79.6z
	 M90.8,72.7c0-0.1-0.1-0.1-0.2-0.1h-3.5c-0.1,0-0.2,0.1-0.2,0.1l-4.4,8.4l-4.1-8.4c0-0.1-0.1-0.1-0.2-0.1h-3.6
	c-0.1,0-0.2,0.1-0.2,0.1l-4.1,8.4l-4.4-8.4c0-0.1-0.1-0.1-0.2-0.1H62c-0.1,0-0.2,0.1-0.2,0.1c0,0.1-0.1,0.2,0,0.2l6,11.1
	c0,0.1,0.1,0.1,0.2,0.1h4.2c0.1,0,0.2-0.1,0.2-0.1l3.9-7.9l3.9,7.9c0,0.1,0.1,0.1,0.2,0.1h4.2c0.1,0,0.2-0.1,0.2-0.1l6-11.1
	C90.8,72.8,90.8,72.7,90.8,72.7 M101.1,72.6c-0.1-0.1-0.1-0.1-0.2-0.1h-4c-0.1,0-0.1,0-0.2,0.1l-7.9,11.1c-0.1,0.1-0.1,0.2,0,0.3
	s0.1,0.1,0.2,0.1h3.5c0.1,0,0.1,0,0.2-0.1l1.4-2h9.5l1.4,2c0.1,0.1,0.1,0.1,0.2,0.1h3.6c0.1,0,0.2-0.1,0.2-0.1s0-0.2,0-0.3
	L101.1,72.6z M101.6,79.1H96l2.8-4L101.6,79.1z M124.1,72.5h-4c-0.1,0-0.1,0-0.2,0.1l-4.8,4.3l-4.8-4.3c-0.1,0-0.1-0.1-0.2-0.1H106
	c-0.1,0-0.2,0.1-0.2,0.3c0,0.1,0,0.1,0.1,0.2l7.4,6.6v4.2c0,0.1,0.1,0.2,0.2,0.2h3.1c0.1,0,0.2-0.1,0.2-0.2v-4.2l7.4-6.5
	c0.1-0.1,0.1-0.2,0.1-0.2C124.3,72.6,124.2,72.5,124.1,72.5 M14,109.2V90c0-0.3,0.2-0.5,0.5-0.5h19.4l0,0c0,0,4.8,0.2,6.5,0.6
	s2.9,0.9,3.7,1.7c0.8,0.7,1.2,1.7,1.2,2.8c0,0.9-0.3,1.7-0.8,2.3c-0.5,0.6-1.3,1.2-2.3,1.5c-1,0.4-3.9,0.8-3.9,0.8l0,0v0.1l0,0
	c0,0,3.2,0.5,4.3,0.9s1.9,0.9,2.3,1.6c0.5,0.7,0.7,1.5,0.7,2.4c0,0.8-0.2,1.5-0.6,2.2c-0.4,0.7-1,1.2-1.9,1.7s-2.1,0.8-3.6,1.1
	c-1.5,0.3-5.6,0.4-5.6,0.4l0,0H14.5C14.2,109.6,14,109.4,14,109.2z M22.4,97.5c0,0.2,0.2,0.4,0.4,0.4h8.1l0,0c0,0,2.7-0.1,3.6-0.2
	c0.9-0.2,1.5-0.4,1.9-0.8s0.6-0.8,0.6-1.4c0-0.7-0.2-1.2-0.5-1.6s-0.9-0.6-1.8-0.7C33.9,93.1,31,93,31,93l0,0h-8.1
	c-0.2,0-0.4,0.2-0.4,0.4v4.1H22.4z M22.4,105.9c0,0.2,0.2,0.4,0.4,0.4h8.4l0,0c0,0,2.8-0.1,3.7-0.2c0.9-0.1,1.5-0.4,1.9-0.8
	c0.3-0.4,0.5-0.9,0.5-1.6s-0.2-1.2-0.5-1.6c-0.4-0.4-1-0.6-1.9-0.8c-0.9-0.2-3.7-0.2-3.7-0.2l0,0h-8.4c-0.2,0-0.4,0.2-0.4,0.4
	C22.4,101.5,22.4,105.9,22.4,105.9z M68.4,109.9c-2.9,0-5.3-0.1-7.2-0.3c-1.9-0.2-3.5-0.5-4.7-0.8c-1.2-0.4-2.1-0.9-2.7-1.6
	c-0.6-0.7-1-1.6-1.2-2.6c-0.2-1.1-0.3-3.8-0.3-3.8l0,0V90c0-0.3,0.2-0.5,0.5-0.5h7.5c0.3,0,0.5,0.2,0.5,0.5v11.7l0,0
	c0,0,0.1,1.9,0.2,2.5c0.1,0.6,0.4,1.1,0.9,1.4s1.2,0.5,2.3,0.7c1.1,0.1,2.5,0.2,4.4,0.2c1.8,0,3.3-0.1,4.3-0.2s1.8-0.3,2.3-0.7
	c0.5-0.3,0.8-0.8,0.9-1.4s0.2-2.5,0.2-2.5l0,0V90c0-0.3,0.2-0.5,0.5-0.5H84c0.3,0,0.5,0.2,0.5,0.5v10.6l0,0c0,0-0.1,2.7-0.3,3.8
	c-0.2,1.1-0.6,1.9-1.2,2.6s-1.5,1.2-2.7,1.6s-2.7,0.7-4.7,0.8C73.7,109.8,71.3,109.9,68.4,109.9z M102.9,109.2v-6.6l0,0L89.8,90.3
	c-0.3-0.3-0.1-0.8,0.3-0.8h7.4c0.1,0,0.2,0,0.3,0.1l9.2,8.8l0,0h0.4l0,0l9.1-8.8c0.1-0.1,0.2-0.1,0.3-0.1h7.1c0.4,0,0.6,0.5,0.3,0.8
	l-13.1,12.2l0,0v6.6c0,0.3-0.2,0.5-0.5,0.5h-7.5C103.1,109.6,102.9,109.4,102.9,109.2z"/>
</svg>
