<?xml version="1.0" encoding="utf-8"?>
<!-- Generator: Adobe Illustrator 26.5.0, SVG Export Plug-In . SVG Version: 6.00 Build 0)  -->
<svg version="1.1" id="logo" xmlns="http://www.w3.org/2000/svg" xmlns:xlink="http://www.w3.org/1999/xlink" x="0px" y="0px"
	 viewBox="0 0 367 24" style="enable-background:new 0 0 367 24;" xml:space="preserve">
<g>
	<g>
		
			<linearGradient id="SVGID_1_" gradientUnits="userSpaceOnUse" x1="6.7489" y1="26.5287" x2="31.6289" y2="5.6587" gradientTransform="matrix(1 0 0 -1 0 26.42)">
			<stop  offset="0" style="stop-color:#05773D"/>
			<stop  offset="1.000000e-02" style="stop-color:#0D7D3F"/>
			<stop  offset="9.000000e-02" style="stop-color:#48A94E"/>
			<stop  offset="0.13" style="stop-color:#60BB55"/>
			<stop  offset="0.29" style="stop-color:#B0D24A"/>
			<stop  offset="0.51" style="stop-color:#60BB55"/>
			<stop  offset="0.56" style="stop-color:#58B75D"/>
			<stop  offset="0.63" style="stop-color:#43AD74"/>
			<stop  offset="0.73" style="stop-color:#229C99"/>
			<stop  offset="0.81" style="stop-color:#008CC1"/>
			<stop  offset="1" style="stop-color:#004F6D"/>
		</linearGradient>
		<path style="fill:url(#SVGID_1_);" d="M39.7,20.2L8.3,0.2c-0.5-0.3-0.7-0.3-1.1,0L1.4,3.6c0.3-0.2,0.7-0.1,1,0l31.4,20.1c0.5,0.3,0.7,0.3,1.1,0
			l5.9-3.6C40.4,20.4,40,20.3,39.7,20.2L39.7,20.2z"/>
		
			<linearGradient id="SVGID_00000018948212990829095440000004936060280740886963_" gradientUnits="userSpaceOnUse" x1="899.8068" y1="29.0738" x2="924.2732" y2="-8.383491e-02" gradientTransform="matrix(-1 0 0 -1 933.08 26.42)">
			<stop  offset="0" style="stop-color:#05773D"/>
			<stop  offset="1.000000e-02" style="stop-color:#0D7D3F"/>
			<stop  offset="0.11" style="stop-color:#48A94E"/>
			<stop  offset="0.15" style="stop-color:#60BB55"/>
			<stop  offset="0.33" style="stop-color:#C6D85D"/>
			<stop  offset="0.55" style="stop-color:#60BB55"/>
			<stop  offset="0.59" style="stop-color:#58B75D"/>
			<stop  offset="0.65" style="stop-color:#43AD74"/>
			<stop  offset="0.73" style="stop-color:#229C99"/>
			<stop  offset="0.8" style="stop-color:#008CC1"/>
			<stop  offset="0.96" style="stop-color:#004F6D"/>
		</linearGradient>
		<path style="fill:url(#SVGID_00000018948212990829095440000004936060280740886963_);" d="M2.3,20.2l31.4-20c0.5-0.3,0.7-0.3,1.1,0
			l5.8,3.4c-0.3-0.2-0.7-0.2-1,0L8.4,23.8c-0.6,0.3-0.7,0.2-1.1,0l-5.9-3.5C1.6,20.4,2,20.4,2.3,20.2z"/>
		
			<linearGradient id="SVGID_00000103247023476527616740000005709983435370669493_" gradientUnits="userSpaceOnUse" x1="0.3915" y1="22.4764" x2="5.8498" y2="7.481" gradientTransform="matrix(1 0 0 -1 0 26.42)">
			<stop  offset="9.000000e-02" style="stop-color:#00361B"/>
			<stop  offset="0.18" style="stop-color:#0E4921"/>
			<stop  offset="0.57" style="stop-color:#4A993C"/>
			<stop  offset="0.75" style="stop-color:#62B947"/>
			<stop  offset="0.79" style="stop-color:#5CB345"/>
			<stop  offset="0.85" style="stop-color:#4CA442"/>
			<stop  offset="0.92" style="stop-color:#318C3D"/>
			<stop  offset="0.99" style="stop-color:#0C6A35"/>
			<stop  offset="1" style="stop-color:#066434"/>
		</linearGradient>
		<path style="fill:url(#SVGID_00000103247023476527616740000005709983435370669493_);" d="M2.4,20.1l4.1-2.6
			c-0.2-1.5-0.4-3.5-0.4-5.6s0.1-4.1,0.4-5.6L2.3,3.7c-0.3-0.2-0.7-0.2-1,0C1.1,3.7,1,4,1,4c0,0,0,0.1,0,0.1C0.4,5.1,0,8.2,0,11.9
			s0.4,6.9,0.9,7.9C0.9,19.8,1.4,20.8,2.4,20.1L2.4,20.1z"/>
		
			<linearGradient id="SVGID_00000065796367721676387060000014304336576370450826_" gradientUnits="userSpaceOnUse" x1="643.5974" y1="22.0402" x2="650.127" y2="8.051" gradientTransform="matrix(-1 0 0 -1 685.99 26.42)">
			<stop  offset="9.000000e-02" style="stop-color:#00361B"/>
			<stop  offset="0.18" style="stop-color:#0E4921"/>
			<stop  offset="0.57" style="stop-color:#4A993C"/>
			<stop  offset="0.75" style="stop-color:#62B947"/>
			<stop  offset="0.79" style="stop-color:#5AB145"/>
			<stop  offset="0.86" style="stop-color:#459E41"/>
			<stop  offset="0.94" style="stop-color:#227E39"/>
			<stop  offset="1" style="stop-color:#066434"/>
		</linearGradient>
		<path style="fill:url(#SVGID_00000065796367721676387060000014304336576370450826_);" d="M39.6,20.1l-4.1-2.6
			c0.2-1.5,0.4-3.4,0.4-5.6s-0.1-4.1-0.4-5.5l4.2-2.7c0.3-0.2,0.7-0.2,1,0c0.2,0.1,0.3,0.3,0.3,0.3c0,0,0,0.1,0.1,0.1
			c0.5,1,0.9,4.2,0.9,7.9c0,3.8-0.4,6.9-0.9,7.9C41.1,19.8,40.6,20.7,39.6,20.1z"/>
	</g>
	<path fill="#FFFFFF" d="M237,7.2h1.2l2.1,7.6h0l2.3-7.6h1.2l2.2,7.6h0l2.1-7.6h1.1l-2.7,9.2h-1.2l-2.3-7.8h0l-2.3,7.8h-1.2L237,7.2z
		 M250.8,8c0-0.2,0.1-0.4,0.2-0.5c0.1-0.2,0.3-0.2,0.5-0.2s0.4,0.1,0.5,0.2c0.1,0.2,0.2,0.3,0.2,0.5c0,0.2-0.1,0.4-0.2,0.5
		s-0.3,0.2-0.5,0.2s-0.4-0.1-0.5-0.2S250.8,8.2,250.8,8z M251.1,10.4h1v6.1h-1V10.4z M257.9,11.2h-1.8v3c0,0.2,0,0.4,0,0.5
		s0,0.3,0.1,0.4s0.1,0.2,0.3,0.3s0.3,0.1,0.5,0.1c0.1,0,0.3,0,0.5,0s0.3-0.1,0.4-0.2l0,0.9c-0.2,0.1-0.4,0.1-0.6,0.2
		c-0.2,0-0.4,0-0.6,0c-0.4,0-0.6,0-0.9-0.1s-0.4-0.2-0.5-0.4c-0.1-0.2-0.2-0.4-0.2-0.6c0-0.3-0.1-0.5-0.1-0.8v-3.3h-1.3v-0.9h1.3
		V8.6h1v1.7h1.8L257.9,11.2L257.9,11.2z M259.7,6.6h1v4.6h0c0.1-0.1,0.2-0.2,0.3-0.4s0.3-0.2,0.4-0.3s0.4-0.2,0.6-0.2
		c0.2-0.1,0.4-0.1,0.7-0.1c0.4,0,0.7,0.1,1,0.2s0.5,0.3,0.7,0.5s0.3,0.5,0.4,0.8c0.1,0.3,0.1,0.6,0.1,1v3.8h-1v-3.7
		c0-0.5-0.1-0.9-0.3-1.2c-0.2-0.3-0.6-0.4-1-0.4c-0.3,0-0.6,0.1-0.9,0.2s-0.4,0.3-0.6,0.5s-0.3,0.5-0.3,0.7c-0.1,0.3-0.1,0.6-0.1,1
		v3h-1L259.7,6.6L259.7,6.6z M273.9,17.8c-0.1,0.3-0.2,0.5-0.3,0.7c-0.1,0.2-0.2,0.4-0.4,0.5s-0.3,0.3-0.5,0.3
		c-0.2,0.1-0.5,0.1-0.8,0.1c-0.1,0-0.3,0-0.5,0c-0.2,0-0.3-0.1-0.5-0.1l0.1-0.9c0.1,0,0.2,0.1,0.3,0.1c0.1,0,0.2,0,0.4,0
		c0.3,0,0.6-0.1,0.7-0.3s0.3-0.4,0.4-0.7l0.4-1.1l-2.5-6.1h1.2l1.9,4.8h0l1.8-4.8h1.1L273.9,17.8L273.9,17.8z M278.1,13.4
		c0-0.5,0.1-0.9,0.2-1.3c0.2-0.4,0.4-0.7,0.7-1c0.3-0.3,0.6-0.5,1-0.7s0.8-0.2,1.3-0.2s0.9,0.1,1.3,0.2s0.7,0.4,1,0.7s0.5,0.6,0.7,1
		c0.2,0.4,0.2,0.8,0.2,1.3s-0.1,0.9-0.2,1.3s-0.4,0.7-0.7,1c-0.3,0.3-0.6,0.5-1,0.7s-0.8,0.2-1.3,0.2s-0.9-0.1-1.3-0.2
		c-0.4-0.2-0.7-0.4-1-0.7s-0.5-0.6-0.7-1C278.2,14.3,278.1,13.9,278.1,13.4z M279.2,13.4c0,0.3,0,0.6,0.1,0.9s0.2,0.5,0.4,0.7
		s0.4,0.4,0.7,0.5c0.3,0.1,0.6,0.2,0.9,0.2s0.6-0.1,0.9-0.2c0.3-0.1,0.5-0.3,0.7-0.5s0.3-0.4,0.4-0.7s0.1-0.6,0.1-0.9s0-0.6-0.1-0.9
		s-0.2-0.5-0.4-0.7c-0.2-0.2-0.4-0.4-0.7-0.5c-0.3-0.1-0.6-0.2-0.9-0.2s-0.6,0.1-0.9,0.2c-0.3,0.1-0.5,0.3-0.7,0.5s-0.3,0.4-0.4,0.7
		S279.2,13.1,279.2,13.4z M292,15c0,0.3,0,0.5,0,0.8c0,0.2,0,0.5,0,0.7h-1c0-0.2,0-0.3,0-0.5c0-0.2,0-0.3,0-0.5h0
		c-0.1,0.2-0.2,0.3-0.3,0.4c-0.1,0.1-0.3,0.3-0.5,0.4s-0.4,0.2-0.6,0.3c-0.2,0.1-0.5,0.1-0.7,0.1c-0.4,0-0.7-0.1-1-0.2
		s-0.5-0.3-0.7-0.5c-0.2-0.2-0.3-0.5-0.4-0.8s-0.1-0.6-0.1-1v-3.8h1V14c0,0.5,0.1,0.9,0.3,1.2c0.2,0.3,0.6,0.4,1,0.4
		c0.3,0,0.6-0.1,0.9-0.2c0.2-0.1,0.4-0.3,0.6-0.5s0.3-0.5,0.3-0.7c0.1-0.3,0.1-0.6,0.1-1v-3h1L292,15L292,15z M298.5,11.1
		c0.3-0.3,0.7-0.6,1.1-0.7c0.4-0.2,0.9-0.2,1.3-0.2c0.9,0,1.5,0.2,2,0.6c0.4,0.4,0.6,1.1,0.6,1.9v2.6c0,0.2,0,0.3,0,0.5
		c0,0.2,0,0.4,0.1,0.5h-1c0-0.1,0-0.3-0.1-0.5c0-0.2,0-0.3,0-0.5h0c-0.2,0.3-0.5,0.6-0.8,0.8s-0.7,0.3-1.2,0.3c-0.3,0-0.6,0-0.9-0.1
		c-0.3-0.1-0.5-0.2-0.7-0.3c-0.2-0.2-0.4-0.3-0.5-0.6s-0.2-0.5-0.2-0.8c0-0.5,0.1-0.9,0.4-1.2s0.6-0.5,1-0.6s0.8-0.2,1.2-0.3
		s0.9,0,1.2,0h0.4v-0.2c0-0.4-0.1-0.8-0.4-1s-0.6-0.3-1.1-0.3c-0.3,0-0.6,0-1,0.2s-0.6,0.3-0.8,0.5L298.5,11.1L298.5,11.1z
		 M301.5,13.5c-0.6,0-1.2,0.1-1.5,0.3c-0.4,0.2-0.6,0.5-0.6,0.9c0,0.4,0.1,0.7,0.4,0.8s0.6,0.2,1,0.2c0.3,0,0.5,0,0.8-0.2
		s0.4-0.2,0.5-0.4c0.1-0.2,0.3-0.4,0.3-0.6s0.1-0.5,0.1-0.7v-0.4L301.5,13.5L301.5,13.5z M306,6.6h1v9.8h-1
		C306,16.4,306,6.6,306,6.6z M309.6,6.6h1v9.8h-1C309.6,16.4,309.6,6.6,309.6,6.6z M320.7,11.2h-1.8v3c0,0.2,0,0.4,0,0.5
		s0,0.3,0.1,0.4s0.1,0.2,0.3,0.3s0.3,0.1,0.5,0.1c0.1,0,0.3,0,0.5,0s0.3-0.1,0.4-0.2l0,0.9c-0.2,0.1-0.4,0.1-0.6,0.2
		c-0.2,0-0.4,0-0.6,0c-0.4,0-0.6,0-0.9-0.1s-0.4-0.2-0.5-0.4c-0.1-0.2-0.2-0.4-0.2-0.6c0-0.3-0.1-0.5-0.1-0.8v-3.3h-1.3v-0.9h1.3
		V8.6h1v1.7h1.8L320.7,11.2L320.7,11.2z M322.5,6.6h1v4.6h0c0.1-0.1,0.2-0.2,0.3-0.4s0.3-0.2,0.4-0.3s0.4-0.2,0.6-0.2
		c0.2-0.1,0.4-0.1,0.7-0.1c0.4,0,0.7,0.1,1,0.2s0.5,0.3,0.7,0.5s0.3,0.5,0.4,0.8c0.1,0.3,0.1,0.6,0.1,1v3.8h-1v-3.7
		c0-0.5-0.1-0.9-0.3-1.2c-0.2-0.3-0.6-0.4-1-0.4c-0.3,0-0.6,0.1-0.9,0.2s-0.4,0.3-0.6,0.5s-0.3,0.5-0.3,0.7c-0.1,0.3-0.1,0.6-0.1,1
		v3h-1L322.5,6.6L322.5,6.6z M335.7,15.3c-0.4,0.5-0.8,0.8-1.2,1c-0.4,0.2-0.9,0.3-1.5,0.3c-0.5,0-0.9-0.1-1.3-0.2s-0.7-0.4-1-0.7
		s-0.5-0.6-0.6-1c-0.1-0.4-0.2-0.8-0.2-1.2c0-0.5,0.1-0.9,0.2-1.3c0.2-0.4,0.4-0.7,0.6-1s0.6-0.5,1-0.7s0.8-0.2,1.2-0.2
		c0.4,0,0.8,0.1,1.2,0.2c0.4,0.1,0.7,0.3,0.9,0.6s0.5,0.6,0.6,1s0.2,0.8,0.2,1.3v0.3H331c0,0.3,0.1,0.5,0.2,0.8s0.2,0.5,0.4,0.6
		c0.2,0.2,0.4,0.3,0.6,0.4c0.2,0.1,0.5,0.2,0.8,0.2c0.4,0,0.8-0.1,1.1-0.2c0.3-0.2,0.6-0.4,0.8-0.7L335.7,15.3L335.7,15.3z
		 M334.8,12.9c0-0.5-0.2-0.9-0.5-1.2s-0.8-0.5-1.3-0.5s-1,0.2-1.4,0.5s-0.5,0.7-0.6,1.2H334.8L334.8,12.9z M348.7,16.5h-1l-1.7-4.7
		h0l-1.5,4.7h-1l-2-6.1h1.1l1.4,4.7h0l1.6-4.7h1.1l1.6,4.7h0l1.4-4.7h1.1L348.7,16.5L348.7,16.5z M352.2,11.1
		c0.3-0.3,0.7-0.6,1.1-0.7c0.4-0.2,0.9-0.2,1.3-0.2c0.9,0,1.5,0.2,2,0.6c0.4,0.4,0.6,1.1,0.6,1.9v2.6c0,0.2,0,0.3,0,0.5
		c0,0.2,0,0.4,0.1,0.5h-1c0-0.1,0-0.3-0.1-0.5c0-0.2,0-0.3,0-0.5h0c-0.2,0.3-0.5,0.6-0.8,0.8s-0.7,0.3-1.2,0.3c-0.3,0-0.6,0-0.9-0.1
		c-0.3-0.1-0.5-0.2-0.7-0.3c-0.2-0.2-0.4-0.3-0.5-0.6s-0.2-0.5-0.2-0.8c0-0.5,0.1-0.9,0.4-1.2s0.6-0.5,1-0.6s0.8-0.2,1.2-0.3
		s0.9,0,1.2,0h0.4v-0.2c0-0.4-0.1-0.8-0.4-1s-0.6-0.3-1.1-0.3c-0.3,0-0.6,0-1,0.2s-0.6,0.3-0.8,0.5L352.2,11.1L352.2,11.1z
		 M355.2,13.5c-0.6,0-1.2,0.1-1.5,0.3c-0.4,0.2-0.6,0.5-0.6,0.9c0,0.4,0.1,0.7,0.4,0.8s0.6,0.2,1,0.2c0.3,0,0.5,0,0.8-0.2
		s0.4-0.2,0.5-0.4c0.1-0.2,0.3-0.4,0.3-0.6s0.1-0.5,0.1-0.7v-0.4L355.2,13.5L355.2,13.5z M361.8,17.8c-0.1,0.3-0.2,0.5-0.3,0.7
		c-0.1,0.2-0.2,0.4-0.4,0.5s-0.3,0.3-0.5,0.3c-0.2,0.1-0.5,0.1-0.8,0.1c-0.1,0-0.3,0-0.5,0c-0.2,0-0.3-0.1-0.5-0.1l0.1-0.9
		c0.1,0,0.2,0.1,0.3,0.1c0.1,0,0.2,0,0.4,0c0.3,0,0.6-0.1,0.7-0.3s0.3-0.4,0.4-0.7l0.4-1.1l-2.5-6.1h1.2l1.9,4.8h0l1.8-4.8h1.1
		L361.8,17.8L361.8,17.8z M366.3,15c0.2,0,0.4,0.1,0.5,0.2c0.1,0.2,0.2,0.3,0.2,0.5s-0.1,0.4-0.2,0.5c-0.2,0.2-0.3,0.2-0.5,0.2
		s-0.4-0.1-0.5-0.2s-0.2-0.3-0.2-0.5s0.1-0.4,0.2-0.5S366,15,366.3,15z M228.7,4.6h0.9v14.8h-0.9V4.6z M50.7,17.6h2.9
		c0.2,0,0.3-0.2,0.3-0.3V9.8l5.1,7.6c0.1,0.1,0.2,0.2,0.3,0.2h4c0.1,0,0.2-0.1,0.3-0.2l5-7.6l0,7.4c0,0.2,0.2,0.3,0.3,0.3h3
		c0.2,0,0.3-0.2,0.3-0.3V6.5c0-0.2-0.2-0.3-0.3-0.3H67c-0.1,0-0.2,0.1-0.3,0.2l-5.4,8.4l-5.4-8.4c-0.1-0.1-0.2-0.2-0.3-0.2h-4.9
		c-0.2,0-0.3,0.2-0.3,0.3v10.7C50.3,17.4,50.5,17.6,50.7,17.6 M81.2,13.2v4c0,0.2,0.2,0.3,0.4,0.3h3c0.2,0,0.4-0.2,0.4-0.3v-4.1
		l7.2-6.3c0.1-0.1,0.1-0.2,0.1-0.3c0-0.2-0.2-0.3-0.4-0.3h-3.8c-0.1,0-0.2,0-0.2,0.1l-4.6,4.1l-4.6-4.1c-0.1-0.1-0.1-0.1-0.2-0.1
		h-4.1c-0.2,0-0.4,0.2-0.4,0.4c0,0.1,0,0.2,0.1,0.3L81.2,13.2L81.2,13.2z M126,6.3c0-0.1-0.1-0.1-0.2-0.1h-3.4c-0.1,0-0.2,0-0.2,0.1
		l-4.4,8.3l-4.1-8.3c0-0.1-0.1-0.1-0.2-0.1H110c-0.1,0-0.2,0-0.2,0.1l-4.1,8.3l-4.4-8.3c0-0.1-0.1-0.1-0.2-0.1h-3.6
		c-0.1,0-0.2,0-0.2,0.1c0,0.1-0.1,0.2,0,0.2l5.9,10.9c0,0.1,0.1,0.1,0.2,0.1h4.2c0.1,0,0.2,0,0.2-0.1l3.8-7.8l3.8,7.8
		c0,0.1,0.1,0.1,0.2,0.1h4.2c0.1,0,0.2,0,0.2-0.1L126,6.5C126.1,6.5,126.1,6.4,126,6.3 M136.2,6.2c-0.1-0.1-0.1-0.1-0.2-0.1h-4
		c-0.1,0-0.1,0-0.2,0.1L124,17.2c-0.1,0.1-0.1,0.2,0,0.2s0.1,0.1,0.2,0.1h3.4c0.1,0,0.1,0,0.2-0.1l1.4-2h9.4l1.4,2
		c0.1,0.1,0.1,0.1,0.2,0.1h3.6c0.1,0,0.2,0,0.2-0.1c0-0.1,0-0.2,0-0.2L136.2,6.2L136.2,6.2z M136.7,12.7h-5.6l2.8-4L136.7,12.7z
		 M159,6.2h-3.9c-0.1,0-0.1,0-0.2,0.1l-4.8,4.3l-4.8-4.3c0,0-0.1-0.1-0.2-0.1h-4.1c-0.1,0-0.2,0.2-0.2,0.3c0,0.1,0,0.1,0.1,0.2
		l7.3,6.5v4.2c0,0.1,0.1,0.2,0.2,0.2h3.1c0.1,0,0.2-0.1,0.2-0.2v-4.2l7.4-6.5c0.1,0,0.1-0.2,0.1-0.2C159.2,6.3,159.1,6.2,159,6.2
		 M180.2,12.9c-0.3-0.4-0.7-0.7-1.3-1c-0.2-0.1-0.4-0.1-0.7-0.2c0.2,0,0.4-0.1,0.5-0.2c0.6-0.2,1-0.5,1.3-0.9
		c0.3-0.4,0.4-0.9,0.4-1.4c0-0.7-0.2-1.2-0.7-1.7c-0.4-0.4-1.1-0.8-1.9-1c-0.8-0.2-3.2-0.3-3.3-0.3h-9.7c-0.2,0-0.4,0.2-0.4,0.3V17
		c0,0.2,0.2,0.3,0.4,0.3h9.7c0.1,0,2.1-0.1,2.9-0.2c0.8-0.2,1.4-0.4,1.9-0.6c0.5-0.3,0.8-0.6,1-1c0.2-0.4,0.3-0.8,0.3-1.3
		C180.6,13.7,180.5,13.3,180.2,12.9L180.2,12.9z M176.1,10.1c-0.2,0.2-0.5,0.3-0.9,0.4c-0.4,0.1-1.5,0.1-1.9,0.2h-4.8V8.3h4.9
		c0.4,0,1.6,0.1,2,0.1c0.4,0.1,0.7,0.2,0.8,0.4c0.1,0.2,0.2,0.4,0.2,0.7C176.4,9.8,176.3,9.9,176.1,10.1L176.1,10.1z M168.5,12.8h5
		c0.4,0,1.6,0.1,2,0.1c0.4,0.1,0.7,0.2,0.9,0.4c0.2,0.2,0.2,0.4,0.2,0.7s-0.1,0.5-0.2,0.7c-0.1,0.2-0.4,0.3-0.9,0.4
		c-0.4,0.1-1.6,0.1-2.1,0.1h-4.9V12.8z M200,6.2h-3.3c-0.2,0-0.4,0.2-0.4,0.3v6.4c0,0.3-0.1,1.1-0.1,1.4c-0.1,0.3-0.2,0.5-0.4,0.6
		c-0.2,0.1-0.5,0.3-1.2,0.3c-0.6,0.1-1.4,0.1-2.5,0.1s-1.9,0-2.5-0.1c-0.7-0.1-1.1-0.2-1.2-0.3c-0.2-0.1-0.3-0.3-0.4-0.6
		c-0.1-0.3-0.1-1.1-0.1-1.4V6.5c0-0.2-0.2-0.3-0.4-0.3h-3.3c-0.2,0-0.4,0.2-0.4,0.3v5.9c0,0.1,0.1,1.5,0.2,2
		c0.1,0.6,0.4,1.1,0.7,1.5c0.3,0.4,0.8,0.7,1.5,0.9c0.6,0.2,1.4,0.4,2.4,0.5c0.9,0.1,2.1,0.1,3.6,0.1s2.6,0,3.6-0.1
		c1-0.1,1.8-0.2,2.4-0.5c0.6-0.2,1.1-0.5,1.5-1c0.3-0.4,0.6-0.9,0.7-1.5c0.1-0.6,0.2-2,0.2-2.1V6.5C200.4,6.3,200.2,6.2,200,6.2
		L200,6.2z M221,6.4c-0.1-0.1-0.2-0.2-0.3-0.2h-3.4c-0.1,0-0.2,0-0.2,0.1l-5.1,4.8l-5.2-4.8c-0.1-0.1-0.2-0.1-0.3-0.1h-3.5
		c-0.1,0-0.3,0.1-0.3,0.2c-0.1,0.1,0,0.3,0.1,0.4l7.1,6.5V17c0,0.2,0.2,0.3,0.4,0.3h3.3c0.2,0,0.4-0.2,0.4-0.3v-3.7l7.1-6.5
		C221,6.7,221.1,6.5,221,6.4L221,6.4z"/>
</g>
</svg>
