<?xml version="1.0" encoding="utf-8"?>
<!-- Generator: Adobe Illustrator 26.5.0, SVG Export Plug-In . SVG Version: 6.00 Build 0)  -->
<svg version="1.1" id="logo" xmlns="http://www.w3.org/2000/svg" xmlns:xlink="http://www.w3.org/1999/xlink" x="0px" y="0px"
	 viewBox="0 0 137.7 109.9" enable-background="new 0 0 137.7 109.9" xml:space="preserve">
<path fill="#FFFFFF" d="M65.2,88.9l-11.3,20.8c-0.1,0.1-0.2,0.2-0.4,0.2h-7.9c-0.2,0-0.3-0.1-0.4-0.3l-7.3-14.9l-7.2,14.9
	c-0.1,0.2-0.2,0.3-0.4,0.3h-8c-0.2,0-0.3-0.1-0.4-0.2L10.5,88.9c-0.1-0.1-0.1-0.3,0-0.5c0.1-0.1,0.2-0.2,0.4-0.2h6.8
	c0.2,0,0.3,0.1,0.4,0.2l8.3,15.9l7.8-15.9c0.1-0.2,0.2-0.3,0.4-0.3h6.7c0.2,0,0.3,0.1,0.4,0.3l7.7,15.8l8.3-15.8
	c0.1-0.2,0.2-0.2,0.4-0.2h6.5c0.2,0,0.3,0.1,0.4,0.2C65.3,88.6,65.3,88.8,65.2,88.9z M99.4,109.1c0.1,0.1,0.1,0.3,0,0.5
	c-0.1,0.2-0.2,0.3-0.4,0.3h-6.8c-0.2,0-0.3-0.1-0.4-0.2l-2.7-3.8H71.3l-2.7,3.8c-0.1,0.1-0.2,0.2-0.4,0.2h-6.5
	c-0.2,0-0.3-0.1-0.4-0.3c-0.1-0.2-0.1-0.3,0-0.5l14.9-20.8c0.1-0.1,0.2-0.2,0.4-0.2h7.6c0.1,0,0.3,0.1,0.4,0.2L99.4,109.1z
	 M80.2,93.1l-5.3,7.6h10.6L80.2,93.1z M127.9,88.3h-7.5c-0.1,0-0.2,0-0.3,0.1l-9.1,8.2l-9.1-8.2c-0.1-0.1-0.2-0.1-0.3-0.1h-7.9
	c-0.3,0-0.5,0.3-0.5,0.6c0,0.1,0.1,0.3,0.2,0.3l14,12.3v7.9c0,0.3,0.2,0.5,0.5,0.5h5.9c0.3,0,0.5-0.2,0.5-0.5v-8l14-12.3
	c0.1-0.1,0.2-0.3,0.2-0.4C128.3,88.5,128.1,88.3,127.9,88.3z M45,82.7h3.4c0.2,0,0.4-0.2,0.4-0.4v-8.9l6,9.1
	c0.1,0.1,0.2,0.2,0.3,0.2h4.7c0.1,0,0.3-0.1,0.3-0.2l6-9l0,8.8c0,0.2,0.2,0.4,0.4,0.4h3.6c0.2,0,0.4-0.2,0.4-0.4V69.5
	c0-0.2-0.2-0.4-0.4-0.4h-5.9c-0.1,0-0.3,0.1-0.4,0.2l-6.4,10l-6.5-10c-0.1-0.1-0.2-0.2-0.4-0.2H45c-0.2,0-0.4,0.2-0.4,0.4v12.7
	C44.5,82.5,44.7,82.7,45,82.7z M81.3,77.4v4.8c0,0.2,0.2,0.4,0.4,0.4h3.6c0.2,0,0.4-0.2,0.4-0.4v-4.8l8.5-7.5
	c0.1-0.1,0.1-0.2,0.1-0.4c0-0.2-0.2-0.4-0.4-0.4h-4.6c-0.1,0-0.2,0-0.3,0.1l-5.5,4.9l-5.5-4.9c-0.1-0.1-0.2-0.1-0.3-0.1h-4.8
	c-0.2,0-0.4,0.2-0.4,0.5c0,0.1,0.1,0.2,0.1,0.3L81.3,77.4z"/>
<g>
	<g>
		<linearGradient id="SVGID_1_" gradientUnits="userSpaceOnUse" x1="28.5215" y1="-0.321" x2="99.7706" y2="59.4641">
			<stop  offset="0" style="stop-color:#05773D"/>
			<stop  offset="1.051602e-02" style="stop-color:#0D7D3F"/>
			<stop  offset="9.332132e-02" style="stop-color:#49AA4F"/>
			<stop  offset="0.1329" style="stop-color:#60BB55"/>
			<stop  offset="0.2937" style="stop-color:#B0D24A"/>
			<stop  offset="0.5131" style="stop-color:#60BB55"/>
			<stop  offset="0.5599" style="stop-color:#58B75D"/>
			<stop  offset="0.6343" style="stop-color:#44AD75"/>
			<stop  offset="0.7267" style="stop-color:#239D9A"/>
			<stop  offset="0.8085" style="stop-color:#008CC1"/>
			<stop  offset="1" style="stop-color:#004F6D"/>
		</linearGradient>
		<path fill="url(#SVGID_1_)" d="M123,57.8L33.1,0.6c-1.3-0.8-2-0.8-3.3-0.1l-16.7,9.7c0.9-0.4,1.9-0.4,2.7,0.1L105.7,68
			c1.5,0.9,2,0.8,3.3,0.1l16.9-10.2C125,58.3,123.8,58.2,123,57.8z"/>
	</g>
	<g>
		<defs>
			<path id="SVGID_00000175307782912004537060000000915185261026666925_" d="M123,57.8L33.1,0.6c-1.3-0.8-2-0.8-3.3-0.1l-16.7,9.7
				c0.9-0.4,1.9-0.4,2.7,0.1L105.7,68c1.5,0.9,2,0.8,3.3,0.1l16.9-10.2C125,58.3,123.9,58.3,123,57.8z"/>
		</defs>
		<clipPath id="SVGID_00000147200923127409216070000013782275671001919161_">
			<use xlink:href="#SVGID_00000175307782912004537060000000915185261026666925_"  overflow="visible"/>
		</clipPath>
	</g>
	<g>
		
			<linearGradient id="SVGID_00000036215296175328771350000012237436510503462018_" gradientUnits="userSpaceOnUse" x1="621.9374" y1="-7.603" x2="692.0061" y2="75.9016" gradientTransform="matrix(-1 0 0 1 726.4183 0)">
			<stop  offset="0" style="stop-color:#05773D"/>
			<stop  offset="1.200925e-02" style="stop-color:#0D7D3F"/>
			<stop  offset="0.1066" style="stop-color:#49AA4F"/>
			<stop  offset="0.1517" style="stop-color:#60BB55"/>
			<stop  offset="0.3314" style="stop-color:#C6D85D"/>
			<stop  offset="0.5508" style="stop-color:#60BB55"/>
			<stop  offset="0.5909" style="stop-color:#58B75D"/>
			<stop  offset="0.6547" style="stop-color:#44AD75"/>
			<stop  offset="0.7337" style="stop-color:#239D9A"/>
			<stop  offset="0.8038" style="stop-color:#008CC1"/>
			<stop  offset="0.956" style="stop-color:#004F6D"/>
		</linearGradient>
		<path fill="url(#SVGID_00000036215296175328771350000012237436510503462018_)" d="M15.9,57.8l90-57.2c1.3-0.9,2-0.8,3.3-0.1
			l16.7,9.8c-0.9-0.4-1.9-0.5-2.7,0.1L33.2,68c-1.8,1-2,0.7-3.3,0.1L13,57.9C13.9,58.4,15,58.4,15.9,57.8z"/>
	</g>
	
		<linearGradient id="SVGID_00000062174239476741294580000014598923783608913047_" gradientUnits="userSpaceOnUse" x1="10.309" y1="11.284" x2="25.9437" y2="54.2397">
		<stop  offset="9.475987e-02" style="stop-color:#00361B"/>
		<stop  offset="0.1848" style="stop-color:#0F4922"/>
		<stop  offset="0.5723" style="stop-color:#4A993C"/>
		<stop  offset="0.75" style="stop-color:#62B947"/>
		<stop  offset="0.7949" style="stop-color:#5CB446"/>
		<stop  offset="0.8531" style="stop-color:#4CA542"/>
		<stop  offset="0.9184" style="stop-color:#328C3D"/>
		<stop  offset="0.9885" style="stop-color:#0D6A35"/>
		<stop  offset="1" style="stop-color:#066434"/>
	</linearGradient>
	<path fill="url(#SVGID_00000062174239476741294580000014598923783608913047_)" d="M16.1,57.7l11.8-7.5c-0.7-4.2-1.1-9.9-1.1-16.1
		c0-6.2,0.4-11.8,1.1-16l-12-7.7c-0.9-0.5-2-0.6-2.9-0.1c-0.7,0.4-1,0.9-1,0.9c-0.1,0.1-0.1,0.2-0.2,0.3c-1.5,3-2.6,11.9-2.6,22.5
		c0,10.8,1.1,19.8,2.7,22.7C11.9,56.8,13.3,59.5,16.1,57.7z"/>
	
		<linearGradient id="SVGID_00000101063782117425096590000008797497465397821075_" gradientUnits="userSpaceOnUse" x1="348.7331" y1="12.5529" x2="367.4195" y2="52.626" gradientTransform="matrix(-1 0 0 1 479.3313 0)">
		<stop  offset="9.475987e-02" style="stop-color:#00361B"/>
		<stop  offset="0.1848" style="stop-color:#0F4922"/>
		<stop  offset="0.5723" style="stop-color:#4A993C"/>
		<stop  offset="0.75" style="stop-color:#62B947"/>
		<stop  offset="0.794" style="stop-color:#5AB245"/>
		<stop  offset="0.8611" style="stop-color:#459E41"/>
		<stop  offset="0.9427" style="stop-color:#237E3A"/>
		<stop  offset="1" style="stop-color:#066434"/>
	</linearGradient>
	<path fill="url(#SVGID_00000101063782117425096590000008797497465397821075_)" d="M122.8,57.6L111,50.1c0.7-4.2,1.1-9.8,1.1-16
		c0-6.2-0.4-11.7-1.1-15.9l12-7.8c0.9-0.5,2-0.6,2.9-0.1c0.7,0.4,1,0.9,1,0.9c0.1,0.1,0.1,0.2,0.2,0.3c1.5,3,2.6,11.9,2.6,22.5
		c0,10.8-1.1,19.8-2.7,22.7C126.9,56.8,125.5,59.4,122.8,57.6z"/>
</g>
</svg>
