<?xml version="1.0" encoding="utf-8"?>
<!-- Generator: Adobe Illustrator 26.5.0, SVG Export Plug-In . SVG Version: 6.00 Build 0)  -->
<svg version="1.1" id="logo" xmlns="http://www.w3.org/2000/svg" xmlns:xlink="http://www.w3.org/1999/xlink" x="0px" y="0px"
	 viewBox="0 0 306.9 24" enable-background="new 0 0 306.9 24" xml:space="preserve">
<g>
	<g id="a">
		<path fill="#FFFFFF" d="M176.9,7.1h1.2l2.1,7.6h0l2.3-7.6h1.2l2.2,7.6h0l2.1-7.6h1.1l-2.7,9.2h-1.2l-2.3-7.8h0l-2.3,7.8h-1.2
			L176.9,7.1L176.9,7.1z M190.7,7.8c0-0.2,0.1-0.4,0.2-0.5s0.3-0.2,0.5-0.2s0.4,0.1,0.5,0.2c0.1,0.2,0.2,0.3,0.2,0.5
			c0,0.2-0.1,0.4-0.2,0.5s-0.3,0.2-0.5,0.2s-0.4-0.1-0.5-0.2S190.7,8,190.7,7.8z M190.9,10.2h1v6.1h-1V10.2z M197.8,11H196v3
			c0,0.2,0,0.4,0,0.5s0,0.3,0.1,0.4s0.1,0.2,0.3,0.3c0.1,0.1,0.3,0.1,0.5,0.1c0.1,0,0.3,0,0.5,0s0.3-0.1,0.4-0.2l0,0.9
			c-0.2,0.1-0.4,0.1-0.6,0.2c-0.2,0-0.4,0-0.6,0c-0.4,0-0.6,0-0.9-0.1s-0.4-0.2-0.5-0.4c-0.1-0.2-0.2-0.4-0.2-0.6
			c0-0.3-0.1-0.5-0.1-0.8V11h-1.3v-0.9h1.3V8.4h1v1.7h1.8L197.8,11L197.8,11z M199.6,6.4h1V11h0c0.1-0.1,0.2-0.2,0.3-0.4
			s0.3-0.2,0.4-0.3s0.4-0.2,0.6-0.2s0.4-0.1,0.7-0.1c0.4,0,0.7,0.1,1,0.2s0.5,0.3,0.7,0.5s0.3,0.5,0.4,0.8s0.1,0.6,0.1,1v3.8h-1
			v-3.7c0-0.5-0.1-0.9-0.3-1.2c-0.2-0.3-0.6-0.4-1.1-0.4c-0.3,0-0.6,0.1-0.9,0.2s-0.4,0.3-0.6,0.5c-0.1,0.2-0.3,0.5-0.3,0.7
			c-0.1,0.3-0.1,0.6-0.1,1v3h-1L199.6,6.4L199.6,6.4z M213.7,17.6c-0.1,0.3-0.2,0.5-0.3,0.7s-0.2,0.4-0.4,0.5s-0.3,0.3-0.6,0.3
			c-0.2,0.1-0.5,0.1-0.8,0.1c-0.1,0-0.3,0-0.5,0c-0.2,0-0.3-0.1-0.4-0.1l0.1-0.9c0.1,0,0.2,0.1,0.3,0.1c0.1,0,0.2,0,0.4,0
			c0.3,0,0.6-0.1,0.7-0.3c0.2-0.2,0.3-0.4,0.4-0.7l0.4-1.1l-2.5-6.1h1.2l1.9,4.8h0l1.8-4.8h1.1L213.7,17.6L213.7,17.6z M217.9,13.2
			c0-0.5,0.1-0.9,0.2-1.3c0.2-0.4,0.4-0.7,0.7-1s0.6-0.5,1-0.7s0.8-0.2,1.3-0.2s0.9,0.1,1.3,0.2s0.7,0.4,1,0.7s0.5,0.6,0.7,1
			c0.2,0.4,0.2,0.8,0.2,1.3s-0.1,0.9-0.2,1.3s-0.4,0.7-0.7,1s-0.6,0.5-1,0.7s-0.8,0.2-1.3,0.2s-0.9-0.1-1.3-0.2
			c-0.4-0.2-0.7-0.4-1-0.7s-0.5-0.6-0.7-1S217.9,13.7,217.9,13.2z M219,13.2c0,0.3,0.1,0.6,0.1,0.9c0.1,0.3,0.2,0.5,0.4,0.7
			s0.4,0.4,0.7,0.5s0.6,0.2,0.9,0.2s0.6-0.1,0.9-0.2c0.3-0.1,0.5-0.3,0.7-0.5c0.2-0.2,0.3-0.4,0.4-0.7s0.1-0.6,0.1-0.9
			s-0.1-0.6-0.1-0.9c-0.1-0.3-0.2-0.5-0.4-0.7c-0.2-0.2-0.4-0.4-0.7-0.5s-0.6-0.2-0.9-0.2s-0.6,0.1-0.9,0.2
			c-0.3,0.1-0.5,0.3-0.7,0.5c-0.2,0.2-0.3,0.4-0.4,0.7S219,12.9,219,13.2z M231.9,14.8c0,0.3,0,0.5,0,0.8c0,0.2,0,0.5,0,0.7h-1
			c0-0.2,0-0.3,0-0.5c0-0.2,0-0.3,0-0.5h0c-0.1,0.2-0.2,0.3-0.3,0.4c-0.1,0.1-0.3,0.3-0.4,0.4c-0.2,0.1-0.4,0.2-0.6,0.3
			c-0.2,0.1-0.4,0.1-0.7,0.1c-0.4,0-0.7-0.1-1-0.2s-0.5-0.3-0.7-0.5c-0.2-0.2-0.3-0.5-0.4-0.8s-0.1-0.6-0.1-1v-3.8h1v3.7
			c0,0.5,0.1,0.9,0.3,1.2c0.2,0.3,0.6,0.4,1.1,0.4c0.3,0,0.6-0.1,0.9-0.2c0.2-0.1,0.4-0.3,0.6-0.5c0.1-0.2,0.3-0.5,0.3-0.7
			c0.1-0.3,0.1-0.6,0.1-1v-3h1L231.9,14.8L231.9,14.8z M238.4,10.9c0.3-0.3,0.7-0.6,1.1-0.7c0.4-0.2,0.9-0.2,1.3-0.2
			c0.9,0,1.5,0.2,2,0.6c0.4,0.4,0.6,1.1,0.6,1.9v2.6c0,0.2,0,0.3,0,0.5s0,0.4,0.1,0.5h-1c0-0.1,0-0.3-0.1-0.5c0-0.2,0-0.3,0-0.5h0
			c-0.2,0.3-0.5,0.6-0.8,0.8c-0.3,0.2-0.7,0.3-1.2,0.3c-0.3,0-0.6,0-0.9-0.1c-0.3-0.1-0.5-0.2-0.7-0.3c-0.2-0.2-0.4-0.3-0.5-0.6
			s-0.2-0.5-0.2-0.8c0-0.5,0.1-0.9,0.4-1.2s0.6-0.5,1-0.6s0.8-0.2,1.2-0.3s0.9,0,1.2,0h0.4v-0.2c0-0.4-0.1-0.8-0.4-1
			s-0.6-0.3-1.1-0.3c-0.3,0-0.6,0-1,0.2s-0.6,0.3-0.8,0.5L238.4,10.9L238.4,10.9z M241.3,13.3c-0.6,0-1.2,0.1-1.5,0.3
			c-0.4,0.2-0.6,0.5-0.6,0.9c0,0.4,0.1,0.7,0.4,0.8s0.6,0.2,1,0.2c0.3,0,0.5,0,0.8-0.2s0.4-0.2,0.5-0.4c0.1-0.2,0.3-0.4,0.3-0.6
			s0.1-0.5,0.1-0.7v-0.4L241.3,13.3L241.3,13.3z M245.8,6.4h1v9.8h-1C245.8,16.3,245.8,6.4,245.8,6.4z M249.5,6.4h1v9.8h-1
			C249.5,16.3,249.5,6.4,249.5,6.4z M260.5,11h-1.8v3c0,0.2,0,0.4,0,0.5s0,0.3,0.1,0.4s0.1,0.2,0.3,0.3s0.3,0.1,0.5,0.1
			c0.1,0,0.3,0,0.5,0s0.3-0.1,0.4-0.2l0,0.9c-0.2,0.1-0.4,0.1-0.6,0.2c-0.2,0-0.4,0-0.6,0c-0.4,0-0.6,0-0.9-0.1s-0.4-0.2-0.5-0.4
			c-0.1-0.2-0.2-0.4-0.2-0.6c0-0.3-0.1-0.5-0.1-0.8V11h-1.3v-0.9h1.3V8.4h1v1.7h1.8L260.5,11L260.5,11z M262.3,6.4h1V11h0
			c0.1-0.1,0.2-0.2,0.3-0.4s0.3-0.2,0.4-0.3s0.4-0.2,0.6-0.2c0.2-0.1,0.4-0.1,0.7-0.1c0.4,0,0.7,0.1,1,0.2s0.5,0.3,0.7,0.5
			s0.3,0.5,0.4,0.8c0.1,0.3,0.1,0.6,0.1,1v3.8h-1v-3.7c0-0.5-0.1-0.9-0.3-1.2c-0.2-0.3-0.6-0.4-1-0.4c-0.3,0-0.6,0.1-0.9,0.2
			s-0.4,0.3-0.6,0.5s-0.3,0.5-0.3,0.7c-0.1,0.3-0.1,0.6-0.1,1v3h-1L262.3,6.4L262.3,6.4z M275.5,15.1c-0.4,0.5-0.8,0.8-1.2,1
			c-0.4,0.2-0.9,0.3-1.5,0.3c-0.5,0-0.9-0.1-1.3-0.2c-0.4-0.2-0.7-0.4-1-0.7s-0.5-0.6-0.6-1c-0.1-0.4-0.2-0.8-0.2-1.2
			c0-0.5,0.1-0.9,0.2-1.3c0.2-0.4,0.4-0.7,0.6-1s0.6-0.5,1-0.7s0.8-0.2,1.2-0.2c0.4,0,0.8,0.1,1.2,0.2c0.4,0.1,0.7,0.3,0.9,0.6
			s0.5,0.6,0.6,1s0.2,0.8,0.2,1.3v0.3h-4.9c0,0.3,0.1,0.5,0.2,0.8s0.2,0.5,0.4,0.6c0.2,0.2,0.4,0.3,0.6,0.4c0.2,0.1,0.5,0.2,0.8,0.2
			c0.4,0,0.8-0.1,1.1-0.2c0.3-0.2,0.6-0.4,0.8-0.7L275.5,15.1L275.5,15.1z M274.7,12.7c0-0.5-0.2-0.9-0.5-1.2s-0.8-0.5-1.3-0.5
			s-1,0.2-1.4,0.5s-0.5,0.7-0.6,1.2H274.7L274.7,12.7z M288.5,16.2h-1l-1.7-4.7h0l-1.5,4.7h-1l-2-6.1h1.1l1.4,4.7h0l1.6-4.7h1.1
			l1.6,4.7h0l1.4-4.7h1.1L288.5,16.2L288.5,16.2z M292.1,10.9c0.3-0.3,0.7-0.6,1.1-0.7c0.4-0.2,0.9-0.2,1.3-0.2c0.9,0,1.5,0.2,2,0.6
			c0.4,0.4,0.6,1.1,0.6,1.9v2.6c0,0.2,0,0.3,0,0.5s0,0.4,0.1,0.5h-1c0-0.1,0-0.3-0.1-0.5c0-0.2,0-0.3,0-0.5h0
			c-0.2,0.3-0.5,0.6-0.8,0.8c-0.3,0.2-0.7,0.3-1.2,0.3c-0.3,0-0.6,0-0.9-0.1c-0.3-0.1-0.5-0.2-0.7-0.3c-0.2-0.2-0.4-0.3-0.5-0.6
			s-0.2-0.5-0.2-0.8c0-0.5,0.1-0.9,0.4-1.2s0.6-0.5,1-0.6s0.8-0.2,1.2-0.3s0.9,0,1.2,0h0.4v-0.2c0-0.4-0.1-0.8-0.4-1
			S295,11,294.6,11c-0.3,0-0.6,0-1,0.2s-0.6,0.3-0.8,0.5L292.1,10.9L292.1,10.9z M295,13.3c-0.6,0-1.2,0.1-1.5,0.3
			c-0.4,0.2-0.6,0.5-0.6,0.9c0,0.4,0.1,0.7,0.4,0.8s0.6,0.2,1,0.2c0.3,0,0.5,0,0.8-0.2s0.4-0.2,0.5-0.4c0.1-0.2,0.3-0.4,0.3-0.6
			s0.1-0.5,0.1-0.7v-0.4L295,13.3L295,13.3z M301.7,17.6c-0.1,0.3-0.2,0.5-0.3,0.7c-0.1,0.2-0.2,0.4-0.4,0.5s-0.3,0.3-0.5,0.3
			c-0.2,0.1-0.5,0.1-0.8,0.1c-0.1,0-0.3,0-0.5,0c-0.2,0-0.3-0.1-0.5-0.1l0.1-0.9c0.1,0,0.2,0.1,0.3,0.1c0.1,0,0.2,0,0.4,0
			c0.3,0,0.6-0.1,0.7-0.3s0.3-0.4,0.4-0.7l0.4-1.1l-2.5-6.1h1.2l1.9,4.8h0l1.8-4.8h1.1L301.7,17.6L301.7,17.6z M306.1,14.8
			c0.2,0,0.4,0.1,0.5,0.2c0.1,0.2,0.2,0.3,0.2,0.5s-0.1,0.4-0.2,0.5c-0.2,0.2-0.3,0.2-0.5,0.2s-0.4-0.1-0.5-0.2
			c-0.2-0.1-0.2-0.3-0.2-0.5s0.1-0.4,0.2-0.5S305.9,14.8,306.1,14.8z M168.6,4.4h0.9v14.8h-0.9V4.4z M51.6,17.4h2.9
			c0.2,0,0.3-0.2,0.3-0.3V9.6l5.1,7.7c0.1,0.1,0.2,0.2,0.3,0.2h4c0.1,0,0.2-0.1,0.3-0.2l5-7.6l0,7.4c0,0.2,0.2,0.3,0.3,0.3h3
			c0.2,0,0.3-0.2,0.3-0.3V6.3c0-0.2-0.2-0.3-0.3-0.3h-4.9c-0.1,0-0.2,0.1-0.3,0.2l-5.4,8.4l-5.5-8.4C56.7,6.1,56.6,6,56.5,6h-4.9
			c-0.2,0-0.3,0.2-0.3,0.3V17C51.2,17.2,51.4,17.4,51.6,17.4 M82.2,13v4c0,0.2,0.2,0.3,0.4,0.3h3.1c0.2,0,0.3-0.2,0.3-0.3V13
			l7.2-6.3c0.1-0.1,0.1-0.2,0.1-0.3c0-0.2-0.2-0.3-0.4-0.3H89c-0.1,0-0.2,0-0.2,0.1l-4.6,4.2l-4.6-4.2C79.5,6,79.4,6,79.3,6h-4.1
			c-0.2,0-0.4,0.2-0.4,0.4c0,0.1,0,0.2,0.1,0.3L82.2,13L82.2,13z M127.1,6.1c0-0.1-0.1-0.1-0.2-0.1h-3.4c-0.1,0-0.2,0-0.2,0.1
			l-4.4,8.3l-4.1-8.3c0-0.1-0.1-0.1-0.2-0.1H111c-0.1,0-0.2,0-0.2,0.1l-4.1,8.3l-4.4-8.4c0-0.1-0.1-0.1-0.2-0.1h-3.6
			c-0.1,0-0.2,0-0.2,0.1c0,0.1-0.1,0.2,0,0.2l6,11c0,0.1,0.1,0.1,0.2,0.1h4.2c0.1,0,0.2,0,0.2-0.1l3.8-7.8l3.8,7.8
			c0,0.1,0.1,0.1,0.2,0.1h4.2c0.1,0,0.2,0,0.2-0.1l6-11C127.1,6.2,127.1,6.1,127.1,6.1 M137.3,6c-0.1-0.1-0.1-0.1-0.2-0.1h-4
			c-0.1,0-0.2,0-0.2,0.1L125,17c-0.1,0.1-0.1,0.2,0,0.2s0.1,0.1,0.2,0.1h3.4c0.1,0,0.2,0,0.2-0.1l1.4-2h9.4l1.4,2
			c0.1,0.1,0.1,0.1,0.2,0.1h3.6c0.1,0,0.2,0,0.2-0.1c0-0.1,0-0.2,0-0.2L137.3,6L137.3,6z M137.8,12.5h-5.6l2.8-4L137.8,12.5z
			 M160.1,6h-3.9C156.1,6,156,6,156,6l-4.8,4.3L146.4,6c0,0-0.1-0.1-0.2-0.1h-4.1c-0.1,0-0.2,0.2-0.2,0.3c0,0.1,0,0.1,0.1,0.2
			l7.4,6.5v4.2c0,0.1,0.1,0.2,0.2,0.2h3.1c0.1,0,0.2-0.1,0.2-0.2v-4.2l7.4-6.5c0,0,0.1-0.2,0.1-0.2C160.3,6.1,160.2,6,160.1,6"/>
		<g>
			
				<linearGradient id="SVGID_1_" gradientUnits="userSpaceOnUse" x1="6.7489" y1="26.7187" x2="31.6289" y2="5.8487" gradientTransform="matrix(1 0 0 -1 0 26.62)">
				<stop  offset="0" style="stop-color:#09773D"/>
				<stop  offset="0" style="stop-color:#0D7A3E"/>
				<stop  offset="9.000000e-02" style="stop-color:#48A94F"/>
				<stop  offset="0.13" style="stop-color:#60BC56"/>
				<stop  offset="0.29" style="stop-color:#B1D34A"/>
				<stop  offset="0.51" style="stop-color:#60BC56"/>
				<stop  offset="0.56" style="stop-color:#58B85E"/>
				<stop  offset="0.63" style="stop-color:#44AE75"/>
				<stop  offset="0.73" style="stop-color:#239E9A"/>
				<stop  offset="0.81" style="stop-color:#008EC3"/>
				<stop  offset="1" style="stop-color:#00506D"/>
			</linearGradient>
			<path fill="url(#SVGID_1_)" d="M39.7,20.2L8.4,0.2c-0.5-0.3-0.7-0.3-1.1,0L1.4,3.6c0.3-0.2,0.7-0.1,1,0l31.4,20.1
				c0.5,0.3,0.7,0.3,1.1,0l5.9-3.6C40.4,20.4,40,20.3,39.7,20.2L39.7,20.2z"/>
			
				<linearGradient id="SVGID_00000000937172732025162870000000684948142442006187_" gradientUnits="userSpaceOnUse" x1="-224.1897" y1="29.2746" x2="-199.7303" y2="0.1154" gradientTransform="matrix(-1 0 0 -1 -190.92 26.62)">
				<stop  offset="0" style="stop-color:#09773D"/>
				<stop  offset="0" style="stop-color:#0D7A3E"/>
				<stop  offset="0.1" style="stop-color:#48A94F"/>
				<stop  offset="0.15" style="stop-color:#60BC56"/>
				<stop  offset="0.33" style="stop-color:#C7D95D"/>
				<stop  offset="0.55" style="stop-color:#60BC56"/>
				<stop  offset="0.59" style="stop-color:#58B85E"/>
				<stop  offset="0.65" style="stop-color:#44AE75"/>
				<stop  offset="0.73" style="stop-color:#239E9A"/>
				<stop  offset="0.8" style="stop-color:#008EC3"/>
				<stop  offset="0.96" style="stop-color:#00506D"/>
			</linearGradient>
			<path fill="url(#SVGID_00000000937172732025162870000000684948142442006187_)" d="M2.3,20.2l31.4-20c0.5-0.3,0.7-0.3,1.1,0
				l5.8,3.4c-0.3-0.2-0.7-0.2-1,0L8.4,23.8c-0.6,0.3-0.7,0.2-1.1,0l-5.9-3.5C1.7,20.4,2,20.4,2.3,20.2z"/>
			
				<linearGradient id="SVGID_00000161604752310114979460000013904388913863411614_" gradientUnits="userSpaceOnUse" x1="0.3915" y1="22.6664" x2="5.8498" y2="7.671" gradientTransform="matrix(1 0 0 -1 0 26.62)">
				<stop  offset="9.000000e-02" style="stop-color:#00361B"/>
				<stop  offset="0.19" style="stop-color:#0F4B22"/>
				<stop  offset="0.57" style="stop-color:#4B9B3C"/>
				<stop  offset="0.75" style="stop-color:#63BB47"/>
				<stop  offset="0.8" style="stop-color:#5DB545"/>
				<stop  offset="0.85" style="stop-color:#4DA542"/>
				<stop  offset="0.92" style="stop-color:#328C3C"/>
				<stop  offset="0.99" style="stop-color:#0D6835"/>
				<stop  offset="1" style="stop-color:#096434"/>
			</linearGradient>
			<path fill="url(#SVGID_00000161604752310114979460000013904388913863411614_)" d="M2.4,20.2l4.1-2.6c-0.2-1.5-0.4-3.5-0.4-5.6
				s0.1-4.1,0.4-5.6L2.3,3.7c-0.3-0.2-0.7-0.2-1,0C1.1,3.7,1,4,1,4c0,0,0,0.1,0,0.1C0.4,5.1,0,8.2,0,11.9s0.4,6.9,0.9,7.9
				C0.9,19.8,1.4,20.8,2.4,20.2L2.4,20.2z"/>
			
				<linearGradient id="SVGID_00000103230626535685366530000006484810981891267762_" gradientUnits="userSpaceOnUse" x1="-480.3979" y1="22.2335" x2="-473.875" y2="8.2372" gradientTransform="matrix(-1 0 0 -1 -438.01 26.62)">
				<stop  offset="9.000000e-02" style="stop-color:#00361B"/>
				<stop  offset="0.19" style="stop-color:#0F4B22"/>
				<stop  offset="0.57" style="stop-color:#4B9B3C"/>
				<stop  offset="0.75" style="stop-color:#63BB47"/>
				<stop  offset="0.79" style="stop-color:#5BB345"/>
				<stop  offset="0.86" style="stop-color:#469F40"/>
				<stop  offset="0.95" style="stop-color:#237D39"/>
				<stop  offset="1" style="stop-color:#096434"/>
			</linearGradient>
			<path fill="url(#SVGID_00000103230626535685366530000006484810981891267762_)" d="M39.6,20.1l-4.1-2.6c0.2-1.5,0.4-3.4,0.4-5.6
				s-0.1-4.1-0.4-5.5l4.2-2.7c0.3-0.2,0.7-0.2,1,0C41,3.7,41.1,4,41.1,4c0,0,0,0.1,0.1,0.1c0.5,1,0.9,4.2,0.9,7.9
				c0,3.8-0.4,6.9-0.9,7.9C41.1,19.8,40.6,20.7,39.6,20.1z"/>
		</g>
	</g>
</g>
</svg>
