<?xml version="1.0" encoding="utf-8"?>
<!-- Generator: Adobe Illustrator 26.3.1, SVG Export Plug-In . SVG Version: 6.00 Build 0)  -->
<svg version="1.1" id="logo" xmlns="http://www.w3.org/2000/svg" xmlns:xlink="http://www.w3.org/1999/xlink" x="0px"
	 y="0px" viewBox="0 0 271.8 14.1" style="enable-background:new 0 0 271.8 14.1;" xml:space="preserve">
<g>
	<g>
		<g>
			<linearGradient id="SVGID_1_" gradientUnits="userSpaceOnUse" x1="3.966" y1="-7.177576e-02" x2="18.5762" y2="12.1876">
				<stop  offset="0" style="stop-color:#007433"/>
				<stop  offset="1.935375e-02" style="stop-color:#107E36"/>
				<stop  offset="9.617147e-02" style="stop-color:#4CA441"/>
				<stop  offset="0.1329" style="stop-color:#63B345"/>
				<stop  offset="0.2937" style="stop-color:#B9CE34"/>
				<stop  offset="0.5131" style="stop-color:#63B345"/>
				<stop  offset="0.5552" style="stop-color:#5CB04D"/>
				<stop  offset="0.6222" style="stop-color:#4AA865"/>
				<stop  offset="0.7058" style="stop-color:#2C9C8A"/>
				<stop  offset="0.8018" style="stop-color:#038ABE"/>
				<stop  offset="0.8085" style="stop-color:#0089C2"/>
				<stop  offset="1" style="stop-color:#004C6A"/>
			</linearGradient>
			<path style="fill:url(#SVGID_1_);" d="M23.3,11.8L4.9,0.1C4.6,0,4.5,0,4.2,0.1l-3.4,2C1,2,1.2,2,1.4,2.1l18.4,11.8c0.3,0.2,0.4,0.2,0.7,0l3.5-2.1
				C23.8,12,23.5,11.9,23.3,11.8z"/>
		</g>
		<g>
			<defs>
				<path id="SVGID_00000023261454638871079640000009690943308229678222_" d="M23.3,11.8L4.9,0.1C4.6,0,4.5,0,4.2,0.1l-3.4,2
					C1,2,1.2,2,1.4,2.1l18.4,11.8c0.3,0.2,0.4,0.2,0.7,0l3.5-2.1C23.8,12,23.5,12,23.3,11.8z"/>
			</defs>
			<clipPath id="SVGID_00000006683956547814200260000006378577176101914770_">
				<use xlink:href="#SVGID_00000023261454638871079640000009690943308229678222_"  style="overflow:visible;"/>
			</clipPath>
			<g style="opacity:0.9;clip-path:url(#SVGID_00000006683956547814200260000006378577176101914770_);">
			</g>
		</g>
		<g>
			
				<linearGradient id="SVGID_00000157293667126785559580000001759869576721843884_" gradientUnits="userSpaceOnUse" x1="233.7405" y1="-1.565" x2="248.1087" y2="15.5583" gradientTransform="matrix(-1 0 0 1 253.2826 0)">
				<stop  offset="0" style="stop-color:#007433"/>
				<stop  offset="2.210190e-02" style="stop-color:#107E36"/>
				<stop  offset="0.1098" style="stop-color:#4CA441"/>
				<stop  offset="0.1517" style="stop-color:#63B345"/>
				<stop  offset="0.3314" style="stop-color:#CED74D"/>
				<stop  offset="0.5508" style="stop-color:#63B345"/>
				<stop  offset="0.5869" style="stop-color:#5CB04D"/>
				<stop  offset="0.6443" style="stop-color:#4AA865"/>
				<stop  offset="0.7158" style="stop-color:#2C9C8A"/>
				<stop  offset="0.7981" style="stop-color:#038ABE"/>
				<stop  offset="0.8038" style="stop-color:#0089C2"/>
				<stop  offset="0.956" style="stop-color:#004C6A"/>
			</linearGradient>
			<path style="fill:url(#SVGID_00000157293667126785559580000001759869576721843884_);" d="M1.4,11.8L19.8,0.1
				c0.3-0.2,0.4-0.2,0.7,0l3.4,2c-0.2-0.1-0.4-0.1-0.6,0L4.9,13.9c-0.4,0.2-0.4,0.1-0.7,0l-3.5-2.1C1,12,1.2,12,1.4,11.8z"/>
		</g>
		
			<linearGradient id="SVGID_00000151501515346662694960000014856296926325564800_" gradientUnits="userSpaceOnUse" x1="0.2314" y1="2.3079" x2="3.4374" y2="11.1163">
			<stop  offset="9.475987e-02" style="stop-color:#13381F"/>
			<stop  offset="0.1466" style="stop-color:#1A4221"/>
			<stop  offset="0.5604" style="stop-color:#50922F"/>
			<stop  offset="0.75" style="stop-color:#65B234"/>
			<stop  offset="0.7959" style="stop-color:#5FAD34"/>
			<stop  offset="0.8552" style="stop-color:#4F9F32"/>
			<stop  offset="0.9219" style="stop-color:#358730"/>
			<stop  offset="0.9935" style="stop-color:#10662D"/>
			<stop  offset="1" style="stop-color:#0C632D"/>
		</linearGradient>
		<path style="fill:url(#SVGID_00000151501515346662694960000014856296926325564800_);" d="M1.4,11.8l2.4-1.5C3.7,9.4,3.6,8.3,3.6,7
			c0-1.3,0.1-2.4,0.2-3.3L1.4,2.1C1.2,2,1,2,0.8,2.1C0.6,2.2,0.6,2.3,0.6,2.3c0,0,0,0,0,0.1C0.2,3,0,4.8,0,7c0,2.2,0.2,4.1,0.6,4.6
			C0.6,11.6,0.9,12.2,1.4,11.8z"/>
		
			<linearGradient id="SVGID_00000065063679871933529860000008828069616181709467_" gradientUnits="userSpaceOnUse" x1="-18.702" y1="2.5681" x2="-14.8702" y2="10.7854" gradientTransform="matrix(-1 0 0 1 6.1956 0)">
			<stop  offset="9.475987e-02" style="stop-color:#13381F"/>
			<stop  offset="0.1466" style="stop-color:#1A4221"/>
			<stop  offset="0.5604" style="stop-color:#50922F"/>
			<stop  offset="0.75" style="stop-color:#65B234"/>
			<stop  offset="0.795" style="stop-color:#5DAB33"/>
			<stop  offset="0.8637" style="stop-color:#489832"/>
			<stop  offset="0.9473" style="stop-color:#267A2F"/>
			<stop  offset="1" style="stop-color:#0C632D"/>
		</linearGradient>
		<path style="fill:url(#SVGID_00000065063679871933529860000008828069616181709467_);" d="M23.3,11.8l-2.4-1.5
			c0.1-0.9,0.2-2,0.2-3.3c0-1.3-0.1-2.4-0.2-3.3l2.5-1.6c0.2-0.1,0.4-0.1,0.6,0c0.1,0.1,0.2,0.2,0.2,0.2c0,0,0,0,0,0.1
			C24.5,3,24.7,4.8,24.7,7c0,2.2-0.2,4.1-0.6,4.6C24.1,11.6,23.9,12.2,23.3,11.8z"/>
	</g>
	<path fill="#FFFFFF" d="M29.2,10.3c-0.1,0-0.2-0.1-0.2-0.2V3.9c0-0.1,0.1-0.2,0.2-0.2H32c0.1,0,0.1,0,0.2,0.1l3.2,4.9l3.2-4.9
		c0-0.1,0.1-0.1,0.2-0.1h2.9c0.1,0,0.2,0.1,0.2,0.2v6.2c0,0.1-0.1,0.2-0.2,0.2h-1.8c-0.1,0-0.2-0.1-0.2-0.2l0-4.3l-2.9,4.4
		c0,0.1-0.1,0.1-0.2,0.1h-2.3c-0.1,0-0.1,0-0.2-0.1l-3-4.5v4.3c0,0.1-0.1,0.2-0.2,0.2H29.2 M47,7.8v2.4c0,0.1,0.1,0.2,0.2,0.2H49
		c0.1,0,0.2-0.1,0.2-0.2V7.8l4.2-3.7c0,0,0.1-0.1,0.1-0.2c0-0.1-0.1-0.2-0.2-0.2H51c-0.1,0-0.1,0-0.1,0.1l-2.7,2.4l-2.7-2.4
		c0,0-0.1-0.1-0.1-0.1h-2.4c-0.1,0-0.2,0.1-0.2,0.2c0,0.1,0,0.1,0.1,0.2L47,7.8z M73.1,3.7c0,0-0.1-0.1-0.1-0.1h-2
		c-0.1,0-0.1,0-0.1,0.1l-2.6,4.9L66,3.8c0,0-0.1-0.1-0.1-0.1h-2.1c-0.1,0-0.1,0-0.1,0.1l-2.4,4.9l-2.6-4.9c0,0-0.1-0.1-0.1-0.1h-2.1
		c0,0-0.1,0-0.1,0.1c0,0,0,0.1,0,0.1l3.5,6.4c0,0,0.1,0.1,0.1,0.1h2.4c0.1,0,0.1,0,0.1-0.1l2.2-4.6l2.2,4.6c0,0,0.1,0.1,0.1,0.1h2.4
		c0.1,0,0.1,0,0.1-0.1l3.5-6.4C73.2,3.8,73.2,3.8,73.1,3.7 M83.7,10.1c0,0,0,0.1,0,0.1c0,0-0.1,0.1-0.1,0.1h-2.1c0,0-0.1,0-0.1-0.1
		l-0.8-1.2H75l-0.8,1.2c0,0-0.1,0.1-0.1,0.1h-2c-0.1,0-0.1,0-0.1-0.1c0,0,0-0.1,0-0.1l4.6-6.4c0,0,0.1-0.1,0.1-0.1H79
		c0,0,0.1,0,0.1,0.1L83.7,10.1z M77.8,5.2l-1.6,2.3h3.3L77.8,5.2z M92.4,3.7h-2.3c0,0-0.1,0-0.1,0l-2.8,2.5l-2.8-2.5
		c0,0-0.1,0-0.1,0h-2.4c-0.1,0-0.1,0.1-0.1,0.2c0,0,0,0.1,0,0.1l4.3,3.8v2.4c0,0.1,0.1,0.1,0.1,0.1H88c0.1,0,0.1-0.1,0.1-0.1V7.7
		l4.3-3.8c0,0,0-0.1,0-0.1C92.5,3.7,92.5,3.7,92.4,3.7 M104.7,4.9C104.9,5.3,105,6,105,7c0,1-0.1,1.7-0.3,2.1
		c-0.2,0.4-0.7,0.8-1.5,0.9c-0.7,0.2-1.9,0.2-3.6,0.2h-3.9c-0.1,0-0.2-0.1-0.2-0.2V3.9c0-0.1,0.1-0.2,0.2-0.2h3.9
		c1.7,0,2.9,0.1,3.6,0.2c0,0,0,0,0,0C104,4.1,104.5,4.4,104.7,4.9z M97.8,9h1.6c1.2,0,2,0,2.4-0.1c0.3-0.1,0.6-0.2,0.7-0.4
		c0.1-0.2,0.2-0.6,0.2-1.5c0-0.9-0.1-1.3-0.2-1.5c-0.1-0.2-0.3-0.3-0.7-0.4C101.4,5,100.6,5,99.4,5h-1.6V9z M108.9,3.7h-2
		c-0.1,0-0.2,0.1-0.2,0.2V10c0,0.1,0.1,0.2,0.2,0.2h2c0.1,0,0.2-0.1,0.2-0.2V3.9C109.1,3.8,109,3.7,108.9,3.7z M120.8,9.9
		c0,0.1,0.1,0.1,0,0.2c0,0.1-0.1,0.1-0.2,0.1h-2.1c-0.1,0-0.1,0-0.1-0.1l-1.7-2.2h-3.1V10c0,0.1-0.1,0.2-0.2,0.2h-2
		c-0.1,0-0.2-0.1-0.2-0.2V3.9c0-0.1,0.1-0.2,0.2-0.2h5.6c1,0,1.7,0.1,2.3,0.2c0.6,0.2,0.9,0.4,1.1,0.7c0.2,0.3,0.3,0.7,0.3,1.1
		c0,0.4-0.1,0.9-0.4,1.2c0,0,0,0,0,0c-0.2,0.3-0.6,0.5-1.2,0.7L120.8,9.9z M113.6,6.6h2.6c0.7,0,1.2,0,1.5-0.1
		c0.4-0.1,0.5-0.2,0.5-0.2c0.1-0.1,0.1-0.3,0.1-0.5c0-0.3-0.1-0.5-0.1-0.5c0,0-0.1-0.1-0.5-0.2C117.4,5,116.9,5,116.2,5h-2.7V6.6z
		 M130.5,3.7h-7.9c-0.1,0-0.2,0.1-0.2,0.2V10c0,0.1,0.1,0.2,0.2,0.2h7.9c0.1,0,0.2-0.1,0.2-0.2V9.1c0-0.1-0.1-0.2-0.2-0.2h-5.8V7.6
		h5c0.1,0,0.2-0.1,0.2-0.2V6.5c0-0.1-0.1-0.2-0.2-0.2h-5V5h5.8c0.1,0,0.2-0.1,0.2-0.2V3.9C130.7,3.8,130.6,3.7,130.5,3.7z
		 M139.8,8.9C139.1,9,138.3,9,137.4,9c-1.1,0-1.9,0-2.3-0.1c0,0,0,0,0,0c-0.4-0.1-0.6-0.2-0.7-0.5c-0.1-0.3-0.2-0.7-0.2-1.5
		s0.1-1.2,0.2-1.5c0.1-0.2,0.4-0.4,0.7-0.5c0.4-0.1,1.2-0.1,2.3-0.1c0.6,0,1.4,0,2.4,0.1c0.1,0,0.1,0,0.1-0.1c0,0,0.1-0.1,0.1-0.1V4
		c0-0.1-0.1-0.2-0.2-0.2c-0.3,0-0.8-0.1-1.3-0.1c-0.5,0-1.1,0-1.5,0c-1.4,0-2.5,0.1-3.2,0.3c-0.7,0.2-1.2,0.5-1.5,1
		c-0.2,0.5-0.4,1.1-0.4,2.1c0,0.9,0.1,1.6,0.4,2.1c0.3,0.5,0.8,0.8,1.5,1c0.7,0.2,1.8,0.3,3.2,0.3c0.5,0,1,0,1.5,0
		c0.6,0,1-0.1,1.4-0.1c0.1,0,0.2-0.1,0.2-0.2V9.1c0-0.1,0-0.1-0.1-0.1C139.9,8.9,139.9,8.9,139.8,8.9z M149.7,3.7h-9.2
		c-0.1,0-0.2,0.1-0.2,0.2v0.9c0,0.1,0.1,0.2,0.2,0.2h3.4v5c0,0.1,0.1,0.2,0.2,0.2h2c0.1,0,0.2-0.1,0.2-0.2V5h3.4
		c0.1,0,0.2-0.1,0.2-0.2V3.9C149.9,3.8,149.8,3.7,149.7,3.7z M160.1,3.4h1.1l1.8,6.7l0,0l2-6.7h1.1l2,6.7l0,0l1.9-6.7h1l-2.4,8h-1
		l-2-6.8l0,0l-2,6.8h-1L160.1,3.4z M172.2,4c0-0.2,0.1-0.3,0.2-0.5s0.3-0.2,0.5-0.2s0.3,0.1,0.5,0.2s0.2,0.3,0.2,0.5
		s-0.1,0.3-0.2,0.5c-0.1,0.1-0.3,0.2-0.5,0.2s-0.3-0.1-0.5-0.2C172.3,4.4,172.2,4.2,172.2,4z M172.4,6.1h0.9v5.3h-0.9V6.1z
		 M178.4,6.8h-1.6v2.7c0,0.2,0,0.3,0,0.5s0,0.3,0.1,0.4c0.1,0.1,0.1,0.2,0.2,0.3s0.3,0.1,0.5,0.1c0.1,0,0.3,0,0.4,0s0.3-0.1,0.4-0.1
		v0.8c-0.2,0.1-0.3,0.1-0.5,0.1s-0.4,0-0.5,0c-0.3,0-0.6,0-0.8-0.1s-0.3-0.2-0.4-0.4s-0.2-0.3-0.2-0.6c0-0.2-0.1-0.5-0.1-0.7v-3
		h-1.2V6.1h1.2V4.6h0.9v1.5h1.6L178.4,6.8L178.4,6.8z M180,2.8h0.9v4l0,0c0.1-0.1,0.1-0.2,0.2-0.3c0.1-0.1,0.2-0.2,0.4-0.3
		c0.1-0.1,0.3-0.2,0.5-0.2c0.2-0.1,0.4-0.1,0.6-0.1c0.3,0,0.7,0.1,0.9,0.2s0.5,0.3,0.6,0.4c0.2,0.2,0.3,0.4,0.4,0.7
		c0.1,0.3,0.1,0.6,0.1,0.9v3.3h-0.9V8.2c0-0.4-0.1-0.8-0.3-1.1c-0.2-0.3-0.5-0.4-0.9-0.4c-0.3,0-0.5,0-0.7,0.1s-0.4,0.2-0.5,0.4
		c-0.1,0.2-0.2,0.4-0.3,0.6c-0.1,0.2-0.1,0.5-0.1,0.8v2.6H180V2.8z M192.4,12.6c-0.1,0.2-0.2,0.4-0.3,0.6c-0.1,0.2-0.2,0.3-0.3,0.5
		c-0.1,0.1-0.3,0.2-0.5,0.3s-0.4,0.1-0.7,0.1c-0.1,0-0.3,0-0.4,0c-0.1,0-0.3-0.1-0.4-0.1l0.1-0.8c0.1,0,0.2,0.1,0.3,0.1s0.2,0,0.3,0
		c0.3,0,0.5-0.1,0.6-0.2c0.1-0.2,0.3-0.4,0.4-0.6l0.4-1l-2.2-5.3h1l1.6,4.2l0,0l1.6-4.2h1L192.4,12.6z M196.1,8.7
		c0-0.4,0.1-0.8,0.2-1.1c0.1-0.3,0.3-0.6,0.6-0.9c0.2-0.2,0.5-0.4,0.9-0.6c0.3-0.1,0.7-0.2,1.1-0.2c0.4,0,0.8,0.1,1.1,0.2
		s0.6,0.3,0.9,0.6c0.2,0.2,0.4,0.5,0.6,0.9c0.1,0.3,0.2,0.7,0.2,1.1s-0.1,0.8-0.2,1.1c-0.1,0.3-0.3,0.6-0.6,0.9
		c-0.2,0.2-0.5,0.4-0.9,0.6c-0.3,0.1-0.7,0.2-1.1,0.2c-0.4,0-0.8-0.1-1.1-0.2s-0.6-0.3-0.9-0.6c-0.3-0.2-0.4-0.5-0.6-0.9
		C196.1,9.5,196.1,9.2,196.1,8.7z M197,8.7c0,0.3,0,0.5,0.1,0.8c0.1,0.2,0.2,0.4,0.4,0.6s0.4,0.3,0.6,0.4s0.5,0.2,0.8,0.2
		s0.5-0.1,0.8-0.2s0.4-0.2,0.6-0.4s0.3-0.4,0.4-0.6c0.1-0.2,0.1-0.5,0.1-0.8s0-0.5-0.1-0.8c-0.1-0.2-0.2-0.4-0.4-0.6
		s-0.4-0.3-0.6-0.4s-0.5-0.2-0.8-0.2s-0.5,0.1-0.8,0.2s-0.4,0.2-0.6,0.4c-0.2,0.2-0.3,0.4-0.4,0.6C197.1,8.2,197,8.5,197,8.7z
		 M208.2,10.1c0,0.2,0,0.5,0,0.7s0,0.4,0,0.6h-0.7c0-0.1,0-0.3,0-0.4c0-0.1,0-0.3,0-0.4l0,0c-0.1,0.1-0.1,0.3-0.3,0.4
		c-0.1,0.1-0.2,0.2-0.4,0.3s-0.3,0.2-0.5,0.2c-0.2,0.1-0.4,0.1-0.6,0.1c-0.3,0-0.7-0.1-0.9-0.2c-0.3-0.1-0.5-0.3-0.6-0.4
		c-0.2-0.2-0.3-0.4-0.4-0.7c-0.1-0.3-0.1-0.6-0.1-0.9V6.1h0.9v3.2c0,0.4,0.1,0.8,0.3,1.1s0.5,0.4,0.9,0.4c0.3,0,0.5,0,0.7-0.1
		s0.4-0.2,0.5-0.4s0.2-0.4,0.3-0.6c0.1-0.2,0.1-0.5,0.1-0.8V6.1h0.9L208.2,10.1L208.2,10.1z M214,6.8c0.3-0.3,0.6-0.5,1-0.6
		s0.8-0.2,1.1-0.2c0.8,0,1.4,0.2,1.7,0.6s0.5,0.9,0.5,1.7v2.3c0,0.2,0,0.3,0,0.5s0,0.3,0.1,0.4h-0.9c0-0.1,0-0.3-0.1-0.4
		s0-0.3,0-0.4l0,0c-0.2,0.3-0.4,0.5-0.7,0.7s-0.6,0.3-1.1,0.3c-0.3,0-0.5,0-0.8-0.1c-0.2-0.1-0.4-0.2-0.6-0.3
		c-0.2-0.1-0.3-0.3-0.4-0.5c-0.1-0.2-0.2-0.4-0.2-0.7c0-0.4,0.1-0.8,0.3-1s0.5-0.4,0.8-0.6c0.3-0.1,0.7-0.2,1.1-0.2s0.7,0,1.1,0h0.3
		V7.9c0-0.4-0.1-0.7-0.3-0.9s-0.6-0.3-1-0.3c-0.3,0-0.6,0-0.8,0.1c-0.3,0.1-0.5,0.2-0.7,0.4L214,6.8z M216.5,8.8
		c-0.6,0-1,0.1-1.4,0.2c-0.3,0.2-0.5,0.4-0.5,0.8c0,0.3,0.1,0.6,0.3,0.7s0.5,0.2,0.8,0.2s0.5,0,0.7-0.1s0.4-0.2,0.5-0.3
		s0.2-0.3,0.3-0.5s0.1-0.4,0.1-0.6V8.8H216.5z M220.5,2.8h0.9v8.6h-0.9V2.8z M223.7,2.8h0.9v8.6h-0.9V2.8z M233.3,6.8h-1.6v2.7
		c0,0.2,0,0.3,0,0.5s0,0.3,0.1,0.4c0.1,0.1,0.1,0.2,0.2,0.3s0.3,0.1,0.5,0.1c0.1,0,0.3,0,0.4,0s0.3-0.1,0.4-0.1v0.8
		c-0.2,0.1-0.3,0.1-0.5,0.1s-0.4,0-0.5,0c-0.3,0-0.6,0-0.8-0.1s-0.3-0.2-0.4-0.4s-0.2-0.3-0.2-0.6c0-0.2-0.1-0.5-0.1-0.7v-3h-1.2
		V6.1h1.2V4.6h0.9v1.5h1.6L233.3,6.8L233.3,6.8z M234.9,2.8h0.9v4l0,0c0.1-0.1,0.1-0.2,0.2-0.3c0.1-0.1,0.2-0.2,0.4-0.3
		c0.1-0.1,0.3-0.2,0.5-0.2c0.2-0.1,0.4-0.1,0.6-0.1c0.3,0,0.7,0.1,0.9,0.2s0.5,0.3,0.6,0.4c0.2,0.2,0.3,0.4,0.4,0.7
		c0.1,0.3,0.1,0.6,0.1,0.9v3.3h-0.9V8.2c0-0.4-0.1-0.8-0.3-1.1c-0.2-0.3-0.5-0.4-0.9-0.4c-0.3,0-0.5,0-0.7,0.1s-0.4,0.2-0.5,0.4
		c-0.1,0.2-0.2,0.4-0.3,0.6c-0.1,0.2-0.1,0.5-0.1,0.8v2.6h-0.9V2.8z M246.5,10.4c-0.3,0.4-0.7,0.7-1,0.9c-0.4,0.2-0.8,0.2-1.3,0.2
		c-0.4,0-0.8-0.1-1.1-0.2s-0.6-0.3-0.8-0.6c-0.2-0.2-0.4-0.5-0.5-0.9s-0.2-0.7-0.2-1.1c0-0.4,0.1-0.8,0.2-1.1
		c0.1-0.3,0.3-0.6,0.6-0.9c0.2-0.2,0.5-0.4,0.9-0.6c0.3-0.1,0.7-0.2,1.1-0.2c0.4,0,0.7,0.1,1,0.2s0.6,0.3,0.8,0.5s0.4,0.5,0.5,0.9
		s0.2,0.7,0.2,1.2V9h-4.3c0,0.2,0.1,0.4,0.2,0.7c0.1,0.2,0.2,0.4,0.4,0.5c0.2,0.2,0.3,0.3,0.5,0.4c0.2,0.1,0.4,0.1,0.7,0.1
		c0.4,0,0.7-0.1,1-0.2s0.5-0.3,0.7-0.6L246.5,10.4z M245.7,8.3c0-0.5-0.2-0.8-0.4-1.1c-0.3-0.3-0.7-0.4-1.2-0.4s-0.9,0.1-1.2,0.4
		s-0.5,0.6-0.5,1.1H245.7z M257.8,11.4h-0.9l-1.5-4.1l0,0l-1.3,4.1h-0.9l-1.7-5.3h1l1.2,4.1l0,0l1.4-4.1h0.9l1.4,4.1l0,0l1.2-4.1h1
		L257.8,11.4z M261,6.8c0.3-0.3,0.6-0.5,1-0.6s0.8-0.2,1.1-0.2c0.8,0,1.4,0.2,1.7,0.6c0.3,0.4,0.5,0.9,0.5,1.7v2.3
		c0,0.2,0,0.3,0,0.5s0,0.3,0.1,0.4h-0.9c0-0.1,0-0.3-0.1-0.4s0-0.3,0-0.4l0,0c-0.2,0.3-0.4,0.5-0.7,0.7c-0.3,0.2-0.6,0.3-1.1,0.3
		c-0.3,0-0.5,0-0.8-0.1c-0.2-0.1-0.4-0.2-0.6-0.3c-0.2-0.1-0.3-0.3-0.4-0.5s-0.2-0.4-0.2-0.7c0-0.4,0.1-0.8,0.3-1
		c0.2-0.2,0.5-0.4,0.8-0.6c0.3-0.1,0.7-0.2,1.1-0.2c0.4,0,0.7,0,1.1,0h0.3V7.9c0-0.4-0.1-0.7-0.3-0.9c-0.2-0.2-0.6-0.3-1-0.3
		c-0.3,0-0.6,0-0.8,0.1c-0.3,0.1-0.5,0.2-0.7,0.4L261,6.8z M263.5,8.8c-0.6,0-1,0.1-1.4,0.2c-0.3,0.2-0.5,0.4-0.5,0.8
		c0,0.3,0.1,0.6,0.3,0.7c0.2,0.1,0.5,0.2,0.8,0.2c0.3,0,0.5,0,0.7-0.1c0.2-0.1,0.4-0.2,0.5-0.3s0.2-0.3,0.3-0.5s0.1-0.4,0.1-0.6V8.8
		H263.5z M269.3,12.6c-0.1,0.2-0.2,0.4-0.3,0.6c-0.1,0.2-0.2,0.3-0.3,0.5c-0.1,0.1-0.3,0.2-0.5,0.3c-0.2,0.1-0.4,0.1-0.7,0.1
		c-0.1,0-0.3,0-0.4,0s-0.3-0.1-0.4-0.1l0.1-0.8c0.1,0,0.2,0.1,0.3,0.1s0.2,0,0.3,0c0.3,0,0.5-0.1,0.6-0.2c0.1-0.2,0.3-0.4,0.4-0.6
		l0.4-1l-2.2-5.3h1l1.6,4.2l0,0l1.6-4.2h1L269.3,12.6z M154.7,1.1h1V14h-1V1.1z"/>
</g>
</svg>
