<?xml version="1.0" encoding="utf-8"?>
<!-- Generator: Adobe Illustrator 26.5.0, SVG Export Plug-In . SVG Version: 6.00 Build 0)  -->
<svg version="1.1" id="logo" xmlns="http://www.w3.org/2000/svg" xmlns:xlink="http://www.w3.org/1999/xlink" x="0px" y="0px"
	 viewBox="0 0 137.7 145.9" style="enable-background:new 0 0 137.7 145.9;" xml:space="preserve">
<g>
	<g>
		<linearGradient id="SVGID_1_" gradientUnits="userSpaceOnUse" x1="28.5215" y1="-0.321" x2="99.7706" y2="59.4641">
			<stop  offset="0" style="stop-color:#05773D"/>
			<stop  offset="1.051602e-02" style="stop-color:#0D7D3F"/>
			<stop  offset="9.332132e-02" style="stop-color:#49AA4F"/>
			<stop  offset="0.1329" style="stop-color:#60BB55"/>
			<stop  offset="0.2937" style="stop-color:#B0D24A"/>
			<stop  offset="0.5131" style="stop-color:#60BB55"/>
			<stop  offset="0.5599" style="stop-color:#58B75D"/>
			<stop  offset="0.6343" style="stop-color:#44AD75"/>
			<stop  offset="0.7267" style="stop-color:#239D9A"/>
			<stop  offset="0.8085" style="stop-color:#008CC1"/>
			<stop  offset="1" style="stop-color:#004F6D"/>
		</linearGradient>
		<path style="fill:url(#SVGID_1_);" d="M123,57.8L33.1,0.6c-1.3-0.8-2-0.8-3.3-0.1l-16.7,9.7c0.9-0.4,1.9-0.4,2.7,0.1L105.7,68
			c1.5,0.9,2,0.8,3.3,0.1l16.9-10.2C125,58.3,123.8,58.2,123,57.8z"/>
	</g>
	<g>
		<defs>
			<path id="SVGID_00000103981039322843099630000013116372200595646383_" d="M123,57.8L33.1,0.6c-1.3-0.8-2-0.8-3.3-0.1l-16.7,9.7
				c0.9-0.4,1.9-0.4,2.7,0.1L105.7,68c1.5,0.9,2,0.8,3.3,0.1l16.9-10.2C125,58.3,123.9,58.3,123,57.8z"/>
		</defs>
		<clipPath id="SVGID_00000040572085864145335980000004415465895201416082_">
			<use xlink:href="#SVGID_00000103981039322843099630000013116372200595646383_"  style="overflow:visible;"/>
		</clipPath>
		<g style="opacity:0.9;clip-path:url(#SVGID_00000040572085864145335980000004415465895201416082_);">
		</g>
	</g>
	<g>
		
			<linearGradient id="SVGID_00000068643544171904417130000000883935264462218642_" gradientUnits="userSpaceOnUse" x1="621.9374" y1="-7.603" x2="692.0061" y2="75.9016" gradientTransform="matrix(-1 0 0 1 726.4183 0)">
			<stop  offset="0" style="stop-color:#05773D"/>
			<stop  offset="1.200925e-02" style="stop-color:#0D7D3F"/>
			<stop  offset="0.1066" style="stop-color:#49AA4F"/>
			<stop  offset="0.1517" style="stop-color:#60BB55"/>
			<stop  offset="0.3314" style="stop-color:#C6D85D"/>
			<stop  offset="0.5508" style="stop-color:#60BB55"/>
			<stop  offset="0.5909" style="stop-color:#58B75D"/>
			<stop  offset="0.6547" style="stop-color:#44AD75"/>
			<stop  offset="0.7337" style="stop-color:#239D9A"/>
			<stop  offset="0.8038" style="stop-color:#008CC1"/>
			<stop  offset="0.956" style="stop-color:#004F6D"/>
		</linearGradient>
		<path style="fill:url(#SVGID_00000068643544171904417130000000883935264462218642_);" d="M15.9,57.8l90-57.2
			c1.3-0.9,2-0.8,3.3-0.1l16.7,9.8c-0.9-0.4-1.9-0.5-2.7,0.1L33.2,68c-1.8,1-2,0.7-3.3,0.1L13,57.9C13.9,58.4,15,58.4,15.9,57.8z"/>
	</g>
	
		<linearGradient id="SVGID_00000181081105108559390660000005357609650635185310_" gradientUnits="userSpaceOnUse" x1="10.309" y1="11.284" x2="25.9437" y2="54.2397">
		<stop  offset="9.475987e-02" style="stop-color:#00361B"/>
		<stop  offset="0.1848" style="stop-color:#0F4922"/>
		<stop  offset="0.5723" style="stop-color:#4A993C"/>
		<stop  offset="0.75" style="stop-color:#62B947"/>
		<stop  offset="0.7949" style="stop-color:#5CB446"/>
		<stop  offset="0.8531" style="stop-color:#4CA542"/>
		<stop  offset="0.9184" style="stop-color:#328C3D"/>
		<stop  offset="0.9885" style="stop-color:#0D6A35"/>
		<stop  offset="1" style="stop-color:#066434"/>
	</linearGradient>
	<path style="fill:url(#SVGID_00000181081105108559390660000005357609650635185310_);" d="M16.1,57.7l11.8-7.5
		c-0.7-4.2-1.1-9.9-1.1-16.1c0-6.2,0.4-11.8,1.1-16l-12-7.7c-0.9-0.5-2-0.6-2.9-0.1c-0.7,0.4-1,0.9-1,0.9c-0.1,0.1-0.1,0.2-0.2,0.3
		c-1.5,3-2.6,11.9-2.6,22.5c0,10.8,1.1,19.8,2.7,22.7C11.9,56.8,13.3,59.5,16.1,57.7z"/>
	
		<linearGradient id="SVGID_00000036224884820976450950000015708252850572382122_" gradientUnits="userSpaceOnUse" x1="348.7331" y1="12.5529" x2="367.4195" y2="52.626" gradientTransform="matrix(-1 0 0 1 479.3313 0)">
		<stop  offset="9.475987e-02" style="stop-color:#00361B"/>
		<stop  offset="0.1848" style="stop-color:#0F4922"/>
		<stop  offset="0.5723" style="stop-color:#4A993C"/>
		<stop  offset="0.75" style="stop-color:#62B947"/>
		<stop  offset="0.794" style="stop-color:#5AB245"/>
		<stop  offset="0.8611" style="stop-color:#459E41"/>
		<stop  offset="0.9427" style="stop-color:#237E3A"/>
		<stop  offset="1" style="stop-color:#066434"/>
	</linearGradient>
	<path style="fill:url(#SVGID_00000036224884820976450950000015708252850572382122_);" d="M122.8,57.6L111,50.1
		c0.7-4.2,1.1-9.8,1.1-16c0-6.2-0.4-11.7-1.1-15.9l12-7.8c0.9-0.5,2-0.6,2.9-0.1c0.7,0.4,1,0.9,1,0.9c0.1,0.1,0.1,0.2,0.2,0.3
		c1.5,3,2.6,11.9,2.6,22.5c0,10.8-1.1,19.8-2.7,22.7C126.9,56.8,125.5,59.4,122.8,57.6z"/>
</g>
<path fill="#FFFFFF" d="M0,131.7h1.4l2.4,8.8h0l2.6-8.8h1.4l2.6,8.8h0l2.5-8.8h1.3l-3.1,10.6H9.8l-2.6-9h0l-2.6,9H3.1L0,131.7z
	 M15.3,132.6c0-0.2,0.1-0.4,0.2-0.6c0.2-0.2,0.4-0.3,0.6-0.3s0.4,0.1,0.6,0.3c0.2,0.2,0.2,0.4,0.2,0.6c0,0.2-0.1,0.5-0.2,0.6
	s-0.4,0.2-0.6,0.2s-0.5-0.1-0.6-0.2C15.4,133,15.3,132.8,15.3,132.6z M15.6,135.3h1.2v7h-1.2V135.3z M22.9,136.3h-2.1v3.5
	c0,0.2,0,0.4,0,0.6c0,0.2,0.1,0.4,0.1,0.5c0.1,0.1,0.2,0.3,0.3,0.3c0.1,0.1,0.3,0.1,0.6,0.1c0.2,0,0.3,0,0.5-0.1s0.3-0.1,0.5-0.2
	l0,1.1c-0.2,0.1-0.4,0.2-0.7,0.2c-0.2,0-0.5,0.1-0.7,0.1c-0.4,0-0.8-0.1-1-0.2s-0.4-0.3-0.6-0.5c-0.1-0.2-0.2-0.4-0.3-0.7
	s-0.1-0.6-0.1-1v-3.9h-1.5v-1h1.5v-2h1.2v2h2.1V136.3z M24.4,131h1.2v5.3h0c0.1-0.1,0.2-0.3,0.3-0.4c0.1-0.1,0.3-0.3,0.5-0.4
	c0.2-0.1,0.4-0.2,0.7-0.3c0.2-0.1,0.5-0.1,0.8-0.1c0.5,0,0.9,0.1,1.2,0.2c0.3,0.1,0.6,0.3,0.8,0.6s0.4,0.6,0.5,0.9
	c0.1,0.4,0.2,0.7,0.2,1.2v4.3h-1.2v-4.2c0-0.6-0.1-1.1-0.4-1.4s-0.7-0.5-1.2-0.5c-0.4,0-0.7,0.1-1,0.2c-0.3,0.1-0.5,0.3-0.7,0.6
	c-0.2,0.2-0.3,0.5-0.4,0.9s-0.1,0.7-0.1,1.1v3.4h-1.2V131z M39.4,144c-0.1,0.3-0.2,0.6-0.4,0.8s-0.3,0.5-0.5,0.6
	c-0.2,0.2-0.4,0.3-0.6,0.4c-0.2,0.1-0.5,0.1-0.9,0.1c-0.2,0-0.3,0-0.5,0s-0.4-0.1-0.5-0.1l0.2-1c0.1,0,0.2,0.1,0.4,0.1s0.3,0,0.5,0
	c0.4,0,0.7-0.1,0.8-0.3c0.2-0.2,0.3-0.5,0.5-0.8l0.5-1.3l-2.9-7.1h1.4l2.2,5.5h0l2.1-5.5h1.3L39.4,144z M43.7,138.8
	c0-0.6,0.1-1.1,0.3-1.5c0.2-0.5,0.5-0.8,0.8-1.2c0.3-0.3,0.7-0.6,1.2-0.8c0.5-0.2,1-0.3,1.5-0.3s1,0.1,1.5,0.3
	c0.5,0.2,0.9,0.4,1.2,0.8c0.3,0.3,0.6,0.7,0.8,1.2c0.2,0.4,0.3,0.9,0.3,1.5c0,0.5-0.1,1-0.3,1.5c-0.2,0.4-0.5,0.8-0.8,1.2
	c-0.3,0.3-0.7,0.6-1.2,0.8c-0.5,0.2-1,0.3-1.5,0.3s-1-0.1-1.5-0.3c-0.5-0.2-0.9-0.4-1.2-0.8c-0.3-0.3-0.6-0.7-0.8-1.2
	C43.8,139.9,43.7,139.4,43.7,138.8z M45,138.8c0,0.4,0.1,0.7,0.2,1c0.1,0.3,0.3,0.6,0.5,0.8c0.2,0.2,0.5,0.4,0.8,0.6
	c0.3,0.1,0.6,0.2,1,0.2s0.7-0.1,1-0.2c0.3-0.1,0.6-0.3,0.8-0.6c0.2-0.2,0.4-0.5,0.5-0.8s0.2-0.7,0.2-1c0-0.4-0.1-0.7-0.2-1
	s-0.3-0.6-0.5-0.8c-0.2-0.2-0.5-0.4-0.8-0.6c-0.3-0.1-0.6-0.2-1-0.2s-0.7,0.1-1,0.2c-0.3,0.1-0.6,0.3-0.8,0.6s-0.4,0.5-0.5,0.8
	C45,138.1,45,138.5,45,138.8z M59.1,140.7c0,0.3,0,0.6,0,0.9c0,0.3,0,0.5,0,0.8h-1.1c0-0.2,0-0.4,0-0.6s0-0.4,0-0.6h0
	c-0.1,0.2-0.2,0.3-0.3,0.5c-0.1,0.2-0.3,0.3-0.5,0.4s-0.4,0.2-0.7,0.3c-0.2,0.1-0.5,0.1-0.8,0.1c-0.5,0-0.9-0.1-1.2-0.2
	c-0.3-0.1-0.6-0.3-0.8-0.6c-0.2-0.2-0.4-0.6-0.5-0.9c-0.1-0.4-0.2-0.7-0.2-1.2v-4.3h1.2v4.2c0,0.6,0.1,1.1,0.4,1.4
	c0.3,0.3,0.7,0.5,1.2,0.5c0.4,0,0.7-0.1,1-0.2c0.3-0.1,0.5-0.3,0.7-0.6c0.2-0.2,0.3-0.5,0.4-0.9s0.1-0.7,0.1-1.1v-3.4h1.2V140.7z
	 M65.4,136.2c0.4-0.4,0.8-0.6,1.3-0.8c0.5-0.2,1-0.3,1.5-0.3c1,0,1.8,0.2,2.2,0.7c0.5,0.5,0.7,1.2,0.7,2.2v3c0,0.2,0,0.4,0,0.6
	c0,0.2,0,0.4,0.1,0.6h-1.1c0-0.2-0.1-0.3-0.1-0.5c0-0.2,0-0.4,0-0.5h0c-0.2,0.4-0.5,0.7-0.9,0.9s-0.8,0.3-1.4,0.3
	c-0.4,0-0.7,0-1-0.1c-0.3-0.1-0.6-0.2-0.8-0.4c-0.2-0.2-0.4-0.4-0.6-0.7c-0.1-0.3-0.2-0.6-0.2-0.9c0-0.6,0.2-1,0.5-1.4
	s0.7-0.6,1.1-0.7s0.9-0.3,1.4-0.3c0.5,0,1-0.1,1.4-0.1H70v-0.2c0-0.5-0.2-0.9-0.5-1.2c-0.3-0.3-0.7-0.4-1.3-0.4
	c-0.4,0-0.8,0.1-1.1,0.2c-0.4,0.1-0.7,0.3-1,0.6L65.4,136.2z M68.8,139c-0.8,0-1.3,0.1-1.8,0.3c-0.4,0.2-0.7,0.6-0.7,1
	c0,0.4,0.1,0.8,0.4,0.9s0.7,0.3,1.1,0.3c0.3,0,0.6-0.1,0.9-0.2c0.3-0.1,0.5-0.3,0.6-0.5s0.3-0.4,0.4-0.7s0.1-0.5,0.2-0.8V139H68.8z
	 M73.4,131h1.2v11.3h-1.2V131z M77,131h1.2v11.3H77V131z M88.5,136.3h-2.1v3.5c0,0.2,0,0.4,0,0.6c0,0.2,0.1,0.4,0.1,0.5
	c0.1,0.1,0.2,0.3,0.3,0.3c0.1,0.1,0.3,0.1,0.6,0.1c0.2,0,0.3,0,0.5-0.1s0.3-0.1,0.5-0.2l0,1.1c-0.2,0.1-0.4,0.2-0.7,0.2
	c-0.2,0-0.5,0.1-0.7,0.1c-0.4,0-0.8-0.1-1-0.2s-0.4-0.3-0.6-0.5c-0.1-0.2-0.2-0.4-0.3-0.7s-0.1-0.6-0.1-1v-3.9h-1.5v-1h1.5v-2h1.2v2
	h2.1V136.3z M90,131h1.2v5.3h0c0.1-0.1,0.2-0.3,0.3-0.4c0.1-0.1,0.3-0.3,0.5-0.4c0.2-0.1,0.4-0.2,0.7-0.3c0.2-0.1,0.5-0.1,0.8-0.1
	c0.5,0,0.9,0.1,1.2,0.2c0.3,0.1,0.6,0.3,0.8,0.6s0.4,0.6,0.5,0.9c0.1,0.4,0.2,0.7,0.2,1.2v4.3h-1.2v-4.2c0-0.6-0.1-1.1-0.4-1.4
	s-0.7-0.5-1.2-0.5c-0.4,0-0.7,0.1-1,0.2c-0.3,0.1-0.5,0.3-0.7,0.6c-0.2,0.2-0.3,0.5-0.4,0.9s-0.1,0.7-0.1,1.1v3.4H90V131z
	 M104.6,141.1c-0.4,0.5-0.9,0.9-1.4,1.1s-1.1,0.3-1.7,0.3c-0.5,0-1-0.1-1.5-0.3c-0.4-0.2-0.8-0.5-1.1-0.8c-0.3-0.3-0.5-0.7-0.7-1.2
	c-0.2-0.5-0.2-0.9-0.2-1.4c0-0.5,0.1-1,0.3-1.5c0.2-0.5,0.4-0.8,0.8-1.2c0.3-0.3,0.7-0.6,1.1-0.8c0.4-0.2,0.9-0.3,1.4-0.3
	c0.5,0,0.9,0.1,1.4,0.2c0.4,0.2,0.8,0.4,1.1,0.7c0.3,0.3,0.5,0.7,0.7,1.2c0.2,0.5,0.2,1,0.2,1.6v0.4h-5.7c0,0.3,0.1,0.6,0.2,0.9
	c0.1,0.3,0.3,0.5,0.5,0.7s0.4,0.4,0.7,0.5s0.6,0.2,0.9,0.2c0.5,0,0.9-0.1,1.3-0.3c0.4-0.2,0.7-0.4,0.9-0.8L104.6,141.1z
	 M103.6,138.2c0-0.6-0.2-1.1-0.6-1.4s-0.9-0.5-1.5-0.5s-1.2,0.2-1.6,0.5c-0.4,0.4-0.6,0.8-0.7,1.4H103.6z M118.4,142.3h-1.2l-2-5.4
	h0l-1.8,5.4h-1.2l-2.3-7h1.3l1.6,5.4h0l1.8-5.4h1.2l1.8,5.4h0l1.6-5.4h1.3L118.4,142.3z M121.9,136.2c0.4-0.4,0.8-0.6,1.3-0.8
	c0.5-0.2,1-0.3,1.5-0.3c1,0,1.8,0.2,2.2,0.7c0.5,0.5,0.7,1.2,0.7,2.2v3c0,0.2,0,0.4,0,0.6c0,0.2,0,0.4,0.1,0.6h-1.1
	c0-0.2-0.1-0.3-0.1-0.5c0-0.2,0-0.4,0-0.5h0c-0.2,0.4-0.5,0.7-0.9,0.9s-0.8,0.3-1.4,0.3c-0.4,0-0.7,0-1-0.1
	c-0.3-0.1-0.6-0.2-0.8-0.4c-0.2-0.2-0.4-0.4-0.6-0.7c-0.1-0.3-0.2-0.6-0.2-0.9c0-0.6,0.2-1,0.5-1.4s0.7-0.6,1.1-0.7s0.9-0.3,1.4-0.3
	c0.5,0,1-0.1,1.4-0.1h0.5v-0.2c0-0.5-0.2-0.9-0.5-1.2c-0.3-0.3-0.7-0.4-1.3-0.4c-0.4,0-0.8,0.1-1.1,0.2c-0.4,0.1-0.7,0.3-1,0.6
	L121.9,136.2z M125.2,139c-0.8,0-1.3,0.1-1.8,0.3c-0.4,0.2-0.7,0.6-0.7,1c0,0.4,0.1,0.8,0.4,0.9s0.7,0.3,1.1,0.3
	c0.3,0,0.6-0.1,0.9-0.2c0.3-0.1,0.5-0.3,0.6-0.5s0.3-0.4,0.4-0.7s0.1-0.5,0.2-0.8V139H125.2z M132.3,144c-0.1,0.3-0.2,0.6-0.4,0.8
	s-0.3,0.5-0.5,0.6c-0.2,0.2-0.4,0.3-0.6,0.4c-0.2,0.1-0.5,0.1-0.9,0.1c-0.2,0-0.3,0-0.5,0s-0.4-0.1-0.5-0.1l0.2-1
	c0.1,0,0.2,0.1,0.4,0.1s0.3,0,0.5,0c0.4,0,0.7-0.1,0.8-0.3c0.2-0.2,0.3-0.5,0.5-0.8l0.5-1.3l-2.9-7.1h1.4l2.2,5.5h0l2.1-5.5h1.3
	L132.3,144z M136.8,140.6c0.2,0,0.5,0.1,0.6,0.3c0.2,0.2,0.3,0.4,0.3,0.6s-0.1,0.5-0.3,0.6c-0.2,0.2-0.4,0.3-0.6,0.3
	c-0.2,0-0.4-0.1-0.6-0.3c-0.2-0.2-0.3-0.4-0.3-0.6s0.1-0.5,0.3-0.6C136.4,140.7,136.6,140.6,136.8,140.6z M14.8,91.3h2.9
	c0.2,0,0.3-0.1,0.3-0.3v-7.5l5.1,7.7c0.1,0.1,0.2,0.1,0.3,0.1h4c0.1,0,0.2-0.1,0.3-0.2l5-7.7l0,7.5c0,0.2,0.2,0.3,0.3,0.3h3
	c0.2,0,0.3-0.1,0.3-0.3V80.2c0-0.2-0.1-0.3-0.3-0.3h-5c-0.1,0-0.2,0.1-0.3,0.2l-5.5,8.5L20.1,80c-0.1-0.1-0.2-0.2-0.3-0.2h-5
	c-0.2,0-0.3,0.2-0.3,0.3V91C14.5,91.2,14.6,91.3,14.8,91.3 M45.6,86.9V91c0,0.2,0.1,0.3,0.3,0.3H49c0.2,0,0.3-0.1,0.3-0.3v-4.1
	l7.3-6.4c0.1-0.1,0.1-0.2,0.1-0.3c0-0.2-0.1-0.3-0.3-0.3h-3.9c-0.1,0-0.2,0-0.2,0.1l-4.7,4.2L43,79.9c-0.1-0.1-0.1-0.1-0.2-0.1h-4.1
	c-0.2,0-0.3,0.2-0.3,0.4c0,0.1,0,0.2,0.1,0.3L45.6,86.9z M90.8,79.9c0-0.1-0.1-0.1-0.2-0.1h-3.5c-0.1,0-0.2,0.1-0.2,0.1l-4.4,8.4
	l-4.1-8.4c0-0.1-0.1-0.1-0.2-0.1h-3.6c-0.1,0-0.2,0.1-0.2,0.1l-4.1,8.4l-4.4-8.4c0-0.1-0.1-0.1-0.2-0.1h-3.6c-0.1,0-0.2,0.1-0.2,0.1
	c0,0.1-0.1,0.2,0,0.2l6,11.1c0,0.1,0.1,0.1,0.2,0.1h4.2c0.1,0,0.2-0.1,0.2-0.1l3.9-7.9l3.9,7.9c0,0.1,0.1,0.1,0.2,0.1h4.2
	c0.1,0,0.2-0.1,0.2-0.1l6-11.1C90.9,80.1,90.9,80,90.8,79.9 M101.1,79.8c-0.1-0.1-0.1-0.1-0.2-0.1h-4c-0.1,0-0.1,0-0.2,0.1
	l-7.9,11.1c-0.1,0.1-0.1,0.2,0,0.3c0,0.1,0.1,0.1,0.2,0.1h3.5c0.1,0,0.1,0,0.2-0.1l1.4-2h9.5l1.4,2c0.1,0.1,0.1,0.1,0.2,0.1h3.6
	c0.1,0,0.2-0.1,0.2-0.1c0-0.1,0-0.2,0-0.3L101.1,79.8z M101.6,86.4H96l2.8-4L101.6,86.4z M124.1,79.8h-3.9c-0.1,0-0.1,0-0.2,0.1
	l-4.8,4.3l-4.8-4.3c-0.1,0-0.1-0.1-0.2-0.1H106c-0.1,0-0.2,0.1-0.2,0.3c0,0.1,0,0.1,0.1,0.2l7.4,6.6V91c0,0.1,0.1,0.2,0.2,0.2h3.1
	c0.1,0,0.2-0.1,0.2-0.2v-4.2l7.4-6.5c0.1-0.1,0.1-0.2,0.1-0.2C124.3,79.9,124.2,79.8,124.1,79.8 M30,97.2C30,97.2,30,97.2,30,97.2
	c-1.4-0.3-3.9-0.5-7.3-0.5h-7.9c-0.2,0-0.4,0.2-0.4,0.4v12.4c0,0.2,0.2,0.4,0.4,0.4h7.9c3.4,0,5.9-0.2,7.3-0.5
	c1.5-0.3,2.5-1,2.9-1.9c0.4-0.9,0.6-2.2,0.6-4.2c0-2-0.2-3.4-0.6-4.2C32.5,98.2,31.6,97.5,30,97.2z M19.2,99.3h3.2
	c2.4,0,4,0.1,4.8,0.2c0.7,0.1,1.2,0.4,1.4,0.8c0.2,0.3,0.3,1.1,0.3,3c0,1.9-0.2,2.7-0.3,3c-0.2,0.4-0.6,0.7-1.3,0.8
	c-0.8,0.1-2.4,0.2-4.9,0.2h-3.2V99.3z M41.5,96.7h-3.9c-0.2,0-0.4,0.2-0.4,0.4v12.4c0,0.2,0.2,0.4,0.4,0.4h3.9
	c0.2,0,0.4-0.2,0.4-0.4V97.1C41.9,96.9,41.7,96.7,41.5,96.7z M61.9,104.8c1.2-0.3,2-0.7,2.5-1.4c0,0,0,0,0,0
	c0.5-0.7,0.8-1.5,0.8-2.4c0-0.9-0.2-1.7-0.6-2.3c-0.4-0.6-1.1-1.1-2.2-1.4c-1-0.3-2.6-0.5-4.6-0.5H46.6c-0.2,0-0.4,0.2-0.4,0.4v12.4
	c0,0.2,0.2,0.4,0.4,0.4h3.9c0.2,0,0.4-0.2,0.4-0.4v-4.3h6.3l3.4,4.5c0.1,0.1,0.2,0.1,0.3,0.1h4.2c0.1,0,0.3-0.1,0.3-0.2
	c0.1-0.1,0-0.3,0-0.4L61.9,104.8z M50.9,99.3h5.4c1.4,0,2.4,0.1,3,0.2c0.7,0.1,0.9,0.3,1,0.4c0.1,0.1,0.2,0.4,0.2,1.1
	c0,0.5-0.1,0.8-0.2,1c-0.1,0.1-0.3,0.3-1,0.4c-0.6,0.1-1.7,0.2-3.1,0.2h-5.2V99.3z M85.1,96.7h-16c-0.2,0-0.4,0.2-0.4,0.4v12.4
	c0,0.2,0.2,0.4,0.4,0.4h16c0.2,0,0.4-0.2,0.4-0.4v-1.8c0-0.2-0.2-0.4-0.4-0.4H73.4v-2.7h10.1c0.2,0,0.4-0.2,0.4-0.4v-1.8
	c0-0.2-0.2-0.4-0.4-0.4H73.4v-2.6h11.7c0.2,0,0.4-0.2,0.4-0.4v-1.8C85.5,96.9,85.3,96.7,85.1,96.7z M103.9,107.2
	c-1.4,0.1-3.1,0.2-4.9,0.2c-2.2,0-3.8-0.1-4.7-0.3c0,0,0,0,0,0c-0.8-0.2-1.3-0.5-1.5-0.9c-0.3-0.5-0.4-1.5-0.4-2.9s0.1-2.4,0.4-2.9
	c0.2-0.5,0.7-0.8,1.5-0.9c0.9-0.2,2.4-0.3,4.7-0.3c1.3,0,2.9,0.1,4.8,0.2c0.1,0,0.2,0,0.3-0.1c0.1-0.1,0.1-0.2,0.1-0.3v-1.7
	c0-0.2-0.1-0.4-0.3-0.4c-0.7-0.1-1.6-0.2-2.7-0.2c-1.1-0.1-2.1-0.1-3.1-0.1c-2.9,0-5.1,0.2-6.5,0.5c-1.5,0.4-2.5,1.1-3,2
	c-0.5,0.9-0.7,2.3-0.7,4.2c0,1.9,0.2,3.3,0.7,4.2c0.5,1,1.5,1.6,3,2c1.4,0.4,3.6,0.5,6.5,0.5c1,0,2,0,3.1-0.1c1.1,0,2.1-0.1,2.8-0.2
	c0.2,0,0.3-0.2,0.3-0.4v-1.7c0-0.1,0-0.2-0.1-0.3C104.1,107.3,104,107.2,103.9,107.2z M123.9,96.7h-18.5c-0.2,0-0.4,0.2-0.4,0.4V99
	c0,0.2,0.2,0.4,0.4,0.4h6.9v10.1c0,0.2,0.2,0.4,0.4,0.4h3.9c0.2,0,0.4-0.2,0.4-0.4V99.3h6.9c0.2,0,0.4-0.2,0.4-0.4v-1.9
	C124.3,96.9,124.1,96.7,123.9,96.7z"/>
</svg>
