<?xml version="1.0" encoding="utf-8"?>
<!-- Generator: Adobe Illustrator 26.5.0, SVG Export Plug-In . SVG Version: 6.00 Build 0)  -->
<svg version="1.1" id="logo" xmlns="http://www.w3.org/2000/svg" xmlns:xlink="http://www.w3.org/1999/xlink" x="0px"
	 y="0px" viewBox="0 0 121.5 111.5" style="enable-background:new 0 0 121.5 111.5;" xml:space="preserve">
<g>
	<g>
		<g>
			
				<linearGradient id="SVGID_1_" gradientUnits="userSpaceOnUse" x1="19.5005" y1="113.2024" x2="91.3588" y2="52.9061" gradientTransform="matrix(1 0 0 -1 0 112.9001)">
				<stop  offset="0" style="stop-color:#007433"/>
				<stop  offset="1.935375e-02" style="stop-color:#107E36"/>
				<stop  offset="9.617147e-02" style="stop-color:#4CA441"/>
				<stop  offset="0.1329" style="stop-color:#63B345"/>
				<stop  offset="0.2937" style="stop-color:#B9CE34"/>
				<stop  offset="0.5131" style="stop-color:#63B345"/>
				<stop  offset="0.5552" style="stop-color:#5CB04D"/>
				<stop  offset="0.6222" style="stop-color:#4AA865"/>
				<stop  offset="0.7058" style="stop-color:#2C9C8A"/>
				<stop  offset="0.8018" style="stop-color:#038ABE"/>
				<stop  offset="0.8085" style="stop-color:#0089C2"/>
				<stop  offset="1" style="stop-color:#004C6A"/>
			</linearGradient>
			<path style="fill:url(#SVGID_1_);" d="M114.8,58.3L24.1,0.6c-1.3-0.8-2-0.8-3.3-0.1L3.9,10.4C4.8,10,5.9,10,6.7,10.5l90.7,58.1
				c1.6,0.9,2,0.8,3.3,0.1l17-10.3C116.8,58.8,115.6,58.7,114.8,58.3z"/>
		</g>
		<g>
			<g>
				<defs>
					<path id="SVGID_00000114776039187754410190000012984751641536362684_" d="M114.8,58.3L24.1,0.6c-1.3-0.8-2-0.8-3.3-0.1
						L3.9,10.4C4.8,10,5.9,10,6.7,10.5l90.7,58.1c1.6,0.9,2,0.8,3.3,0.1l17-10.3C116.8,58.8,115.7,58.8,114.8,58.3z"/>
				</defs>
				<clipPath id="SVGID_00000070825371340088674110000018269321359103583930_">
					<use xlink:href="#SVGID_00000114776039187754410190000012984751641536362684_"  style="overflow:visible;"/>
				</clipPath>
			</g>
		</g>
		<g>
			
				<linearGradient id="SVGID_00000068669592906001527180000002824830751199947185_" gradientUnits="userSpaceOnUse" x1="175.4169" y1="120.5842" x2="246.1116" y2="36.3336" gradientTransform="matrix(-1 0 0 -1 271.5616 112.9001)">
				<stop  offset="0" style="stop-color:#007433"/>
				<stop  offset="2.210190e-02" style="stop-color:#107E36"/>
				<stop  offset="0.1098" style="stop-color:#4CA441"/>
				<stop  offset="0.1517" style="stop-color:#63B345"/>
				<stop  offset="0.3314" style="stop-color:#CED74D"/>
				<stop  offset="0.5508" style="stop-color:#63B345"/>
				<stop  offset="0.5869" style="stop-color:#5CB04D"/>
				<stop  offset="0.6443" style="stop-color:#4AA865"/>
				<stop  offset="0.7158" style="stop-color:#2C9C8A"/>
				<stop  offset="0.7981" style="stop-color:#038ABE"/>
				<stop  offset="0.8038" style="stop-color:#0089C2"/>
				<stop  offset="0.956" style="stop-color:#004C6A"/>
			</linearGradient>
			<path style="fill:url(#SVGID_00000068669592906001527180000002824830751199947185_);" d="M6.7,58.3L97.5,0.6
				c1.3-0.9,2-0.8,3.3-0.1l16.9,9.9c-0.9-0.4-1.9-0.5-2.8,0.1L24.3,68.6c-1.8,1-2.1,0.7-3.3,0.1L3.9,58.5C4.8,59,5.9,58.9,6.7,58.3z
				"/>
		</g>
		
			<linearGradient id="SVGID_00000164485004386315818460000010889663911751025852_" gradientUnits="userSpaceOnUse" x1="1.122" y1="101.4967" x2="16.8915" y2="58.1702" gradientTransform="matrix(1 0 0 -1 0 112.9001)">
			<stop  offset="9.475987e-02" style="stop-color:#13381F"/>
			<stop  offset="0.1466" style="stop-color:#1A4221"/>
			<stop  offset="0.5604" style="stop-color:#50922F"/>
			<stop  offset="0.75" style="stop-color:#65B234"/>
			<stop  offset="0.7959" style="stop-color:#5FAD34"/>
			<stop  offset="0.8552" style="stop-color:#4F9F32"/>
			<stop  offset="0.9219" style="stop-color:#358730"/>
			<stop  offset="0.9935" style="stop-color:#10662D"/>
			<stop  offset="1" style="stop-color:#0C632D"/>
		</linearGradient>
		<path style="fill:url(#SVGID_00000164485004386315818460000010889663911751025852_);" d="M7,58.2l11.9-7.6
			c-0.7-4.3-1.1-10-1.1-16.2c0-6.2,0.4-11.9,1.1-16.1L6.7,10.5c-0.9-0.5-2-0.6-2.9-0.1c-0.7,0.4-1,0.9-1,0.9
			c-0.1,0.1-0.1,0.2-0.2,0.3C1.1,14.7,0,23.7,0,34.4c0,10.8,1.2,20,2.7,22.9C2.7,57.3,4.2,60,7,58.2z"/>
		
			<linearGradient id="SVGID_00000085934359178509363270000000982630964292713871_" gradientUnits="userSpaceOnUse" x1="-97.9564" y1="100.2277" x2="-79.1123" y2="59.8164" gradientTransform="matrix(-1 0 0 -1 24.4747 112.9001)">
			<stop  offset="9.475987e-02" style="stop-color:#13381F"/>
			<stop  offset="0.1466" style="stop-color:#1A4221"/>
			<stop  offset="0.5604" style="stop-color:#50922F"/>
			<stop  offset="0.75" style="stop-color:#65B234"/>
			<stop  offset="0.795" style="stop-color:#5DAB33"/>
			<stop  offset="0.8637" style="stop-color:#489832"/>
			<stop  offset="0.9473" style="stop-color:#267A2F"/>
			<stop  offset="1" style="stop-color:#0C632D"/>
		</linearGradient>
		<path style="fill:url(#SVGID_00000085934359178509363270000000982630964292713871_);" d="M114.5,58.1l-11.9-7.6
			c0.7-4.3,1.1-9.9,1.1-16.2c0-6.2-0.4-11.7-1.1-16l12.1-7.8c0.9-0.5,2-0.6,2.9-0.1c0.7,0.4,1,0.9,1,0.9c0.1,0.1,0.1,0.2,0.2,0.3
			c1.6,3,2.7,12,2.7,22.7c0,10.8-1.2,20-2.7,22.9C118.7,57.3,117.3,59.9,114.5,58.1z"/>
	</g>
	<path fill="#FFFFFF" d="M7.3,91.6c-0.2,0-0.4-0.2-0.4-0.4V80.6c0-0.2,0.2-0.4,0.4-0.4h4.9c0.1,0,0.2,0.1,0.3,0.2l5.4,8.4l5.4-8.4
		c0.1-0.1,0.2-0.2,0.3-0.2h4.8c0.2,0,0.4,0.2,0.4,0.4v10.6c0,0.2-0.2,0.4-0.4,0.4h-3c-0.2,0-0.4-0.2-0.4-0.4l0-7.3l-5,7.5
		c-0.1,0.1-0.2,0.2-0.3,0.2h-3.9c-0.1,0-0.2-0.1-0.3-0.2l-5.1-7.6v7.4c0,0.2-0.2,0.4-0.4,0.4L7.3,91.6 M37.6,87.3v4
		c0,0.2,0.2,0.4,0.4,0.4h3c0.2,0,0.4-0.2,0.4-0.4v-4.1l7.1-6.3c0.1-0.1,0.1-0.2,0.1-0.3c0-0.2-0.2-0.4-0.4-0.4h-3.8
		c-0.1,0-0.2,0-0.2,0.1l-4.6,4.1L35,80.4c-0.1,0-0.2-0.1-0.2-0.1h-4c-0.2,0-0.4,0.2-0.4,0.4c0,0.1,0,0.2,0.1,0.3L37.6,87.3z
		 M82.2,80.4c0-0.1-0.1-0.1-0.2-0.1h-3.4c-0.1,0-0.2,0-0.2,0.1L74,88.7l-4-8.2c0-0.1-0.1-0.1-0.2-0.1h-3.5c-0.1,0-0.2,0-0.2,0.1
		L62,88.7l-4.4-8.3c0-0.1-0.1-0.1-0.2-0.1h-3.6c-0.1,0-0.2,0-0.2,0.1s0,0.2,0,0.2l5.9,10.9c0,0.1,0.1,0.1,0.2,0.1h4.1
		c0.1,0,0.2,0,0.2-0.1l3.8-7.8l3.8,7.8c0,0.1,0.1,0.1,0.2,0.1h4.2c0.1,0,0.2,0,0.2-0.1l5.9-10.9C82.2,80.6,82.2,80.5,82.2,80.4
		 M100,91.2c0,0.1,0.1,0.2,0,0.2c0,0.1-0.1,0.1-0.2,0.1h-3.5c-0.1,0-0.2,0-0.2-0.1l-1.4-2h-9.4l-1.4,2c0,0.1-0.1,0.1-0.2,0.1h-3.3
		c-0.1,0-0.2,0-0.2-0.1c0-0.1,0-0.2,0-0.2l7.8-10.9c0-0.1,0.1-0.1,0.2-0.1h3.9c0.1,0,0.2,0,0.2,0.1L100,91.2z M90,82.8l-2.8,3.9h5.5
		L90,82.8z M114.9,80.3H111c-0.1,0-0.1,0-0.2,0.1l-4.7,4.3l-4.8-4.3c0,0-0.1-0.1-0.2-0.1h-4.1c-0.1,0-0.2,0.2-0.2,0.3
		c0,0.1,0,0.1,0.1,0.2l7.3,6.4v4.1c0,0.1,0.1,0.2,0.2,0.2h3.1c0.1,0,0.2-0.1,0.2-0.2v-4.2l7.3-6.4c0,0,0.1-0.2,0.1-0.2
		C115.1,80.4,115,80.3,114.9,80.3 M25,100.8c0.4,0.9,0.6,2.2,0.6,4.2c0,2-0.2,3.3-0.6,4.2c-0.4,0.9-1.4,1.5-2.9,1.9
		c-1.4,0.3-3.9,0.5-7.2,0.5H7.1c-0.2,0-0.4-0.2-0.4-0.4V98.8c0-0.2,0.2-0.4,0.4-0.4h7.8c3.4,0,5.8,0.2,7.2,0.5l0,0
		C23.6,99.3,24.6,99.9,25,100.8z M11.4,108.9h3.2c2.4,0,4-0.1,4.8-0.2c0.7-0.1,1.1-0.4,1.3-0.8c0.2-0.4,0.3-1.1,0.3-3
		c0-1.8-0.2-2.6-0.4-2.9c-0.2-0.4-0.6-0.7-1.4-0.8c-0.8-0.1-2.4-0.2-4.8-0.2h-3.2C11.4,101,11.4,108.9,11.4,108.9z M33.5,98.4h-3.9
		c-0.2,0-0.4,0.2-0.4,0.4v12.3c0,0.2,0.2,0.4,0.4,0.4h3.9c0.2,0,0.4-0.2,0.4-0.4V98.8C33.9,98.6,33.7,98.4,33.5,98.4z M57.2,110.8
		c0.1,0.1,0.1,0.3,0,0.4c-0.1,0.1-0.2,0.2-0.4,0.2h-4.1c-0.1,0-0.2,0-0.3-0.2l-3.4-4.5h-6.2v4.3c0,0.2-0.2,0.4-0.4,0.4h-3.9
		c-0.2,0-0.4-0.2-0.4-0.4V98.7c0-0.2,0.2-0.4,0.4-0.4h11.1c2,0,3.5,0.2,4.5,0.5c1.1,0.4,1.8,0.8,2.2,1.4c0.4,0.6,0.5,1.4,0.5,2.3
		c0,0.9-0.3,1.7-0.8,2.4l0,0c-0.5,0.6-1.2,1.1-2.5,1.4L57.2,110.8z M42.8,104.2H48c1.4,0,2.4-0.1,3-0.2c0.7-0.2,0.9-0.4,1-0.4
		c0.2-0.2,0.2-0.5,0.2-1c0-0.6-0.1-0.9-0.2-1.1c-0.1-0.1-0.3-0.3-0.9-0.4c-0.6-0.1-1.6-0.2-3-0.2h-5.3L42.8,104.2L42.8,104.2z
		 M76.6,98.4H60.7c-0.2,0-0.4,0.2-0.4,0.4v12.3c0,0.2,0.2,0.4,0.4,0.4h15.9c0.2,0,0.4-0.2,0.4-0.4v-1.8c0-0.2-0.2-0.4-0.4-0.4H65
		v-2.7H75c0.2,0,0.4-0.2,0.4-0.4v-1.8c0-0.2-0.2-0.4-0.4-0.4H65v-2.6h11.6c0.2,0,0.4-0.2,0.4-0.4v-1.8C77,98.6,76.8,98.4,76.6,98.4z
		 M95.2,108.9c-1.4,0.1-3.1,0.2-4.8,0.2c-2.2,0-3.8-0.1-4.6-0.3l0,0c-0.8-0.2-1.2-0.5-1.5-0.9c-0.2-0.5-0.4-1.5-0.4-2.9
		c0-1.4,0.1-2.4,0.4-2.9c0.2-0.5,0.7-0.8,1.5-0.9c0.9-0.2,2.4-0.3,4.6-0.3c1.3,0,2.9,0.1,4.7,0.2c0.1,0,0.2,0,0.3-0.1
		c0.1-0.1,0.1-0.2,0.1-0.3v-1.7c0-0.2-0.2-0.4-0.3-0.4c-0.7-0.1-1.6-0.2-2.7-0.2c-1.1-0.1-2.1-0.1-3.1-0.1c-2.9,0-5.1,0.2-6.4,0.5
		c-1.4,0.4-2.5,1.1-3,2c-0.5,0.9-0.7,2.3-0.7,4.1c0,1.9,0.2,3.2,0.7,4.1c0.5,0.9,1.5,1.6,3,2c1.4,0.4,3.5,0.5,6.4,0.5
		c0.9,0,2,0,3.1-0.1s2-0.1,2.8-0.2c0.2,0,0.4-0.2,0.4-0.4v-1.7c0-0.1,0-0.2-0.1-0.3C95.5,108.9,95.3,108.9,95.2,108.9z M115,98.4
		H96.7c-0.2,0-0.4,0.2-0.4,0.4v1.9c0,0.2,0.2,0.4,0.4,0.4h6.9v10c0,0.2,0.2,0.4,0.4,0.4h3.9c0.2,0,0.4-0.2,0.4-0.4v-10h6.9
		c0.2,0,0.4-0.2,0.4-0.4v-1.9C115.4,98.6,115.2,98.4,115,98.4z"/>
</g>
</svg>
