<svg version="1.1" id="logo" class="abs" xmlns="http://www.w3.org/2000/svg" xmlns:xlink="http://www.w3.org/1999/xlink" x="0px" y="0px"
	 viewBox="0 0 300 60" style="enable-background:new 0 0 300 60;" xml:space="preserve">
<path style="fill:#001e50;" d="M150,57.2c-14.9,0-27.2-12.3-27.2-27.2c0-3.4,0.6-6.5,1.7-9.5l15.9,32c0.2,0.4,0.5,0.8,1,0.8
	c0.5,0,0.8-0.3,1-0.8l7.3-16.4c0.1-0.2,0.2-0.3,0.3-0.3s0.3,0.2,0.3,0.3l7.3,16.4c0.2,0.4,0.5,0.8,1,0.8c0.5,0,0.8-0.3,1-0.8
	l15.9-32c1.1,3,1.7,6.2,1.7,9.5C177.2,44.9,164.9,57.2,150,57.2 M150,23.8c-0.2,0-0.3-0.2-0.3-0.3l-8.5-19.2c2.8-1,5.8-1.6,8.9-1.6
	s6.1,0.5,8.9,1.6l-8.5,19.2C150.3,23.7,150.2,23.8,150,23.8 M141.3,43.5c-0.2,0-0.3-0.2-0.3-0.3l-13.8-27.9c2.5-3.8,5.8-7,9.8-9.2
	l9.9,22.1c0.2,0.4,0.4,0.5,0.8,0.5h4.8c0.3,0,0.6-0.1,0.8-0.5l9.9-22.1c4,2.2,7.3,5.4,9.8,9.2L159,43.2c-0.1,0.2-0.2,0.3-0.3,0.3
	c-0.2,0-0.3-0.2-0.3-0.3l-5.2-11.9c-0.2-0.4-0.4-0.5-0.8-0.5h-4.8c-0.3,0-0.6,0.1-0.8,0.5l-5.2,11.9
	C141.6,43.4,141.5,43.5,141.3,43.5 M150,60c16.6,0,30-13.4,30-30S166.6,0,150,0s-30,13.4-30,30S133.4,60,150,60 M106,28.5H0v2h106
	V28.5z M300,28.5H194v2h106V28.5z"/>
</svg>
