<?xml version="1.0" encoding="utf-8"?>
<!-- Generator: Adobe Illustrator 25.2.3, SVG Export Plug-In . SVG Version: 6.00 Build 0)  -->
<svg version="1.1" id="logo" xmlns="http://www.w3.org/2000/svg" xmlns:xlink="http://www.w3.org/1999/xlink" x="0px" y="0px"
	 viewBox="0 0 50 250" style="enable-background:new 0 0 50 250;" xml:space="preserve">
<style type="text/css">
	.st0{fill:#FFFFFF;}
</style>
<path class="st0" d="M25,147.7c-12.4,0-22.7-10.3-22.7-22.7c0-2.8,0.5-5.4,1.4-7.9L17,143.8c0.2,0.3,0.4,0.7,0.8,0.7
	s0.7-0.2,0.8-0.7l6.1-13.7c0.1-0.2,0.2-0.3,0.3-0.3s0.3,0.2,0.3,0.3l6.1,13.7c0.2,0.3,0.4,0.7,0.8,0.7c0.4,0,0.7-0.2,0.8-0.7
	l13.3-26.7c0.9,2.5,1.4,5.2,1.4,7.9C47.7,137.4,37.4,147.7,25,147.7 M25,119.8c-0.2,0-0.3-0.2-0.3-0.2l-7.1-16
	c2.3-0.8,4.8-1.3,7.4-1.3s5.1,0.4,7.4,1.3l-7.1,16C25.3,119.8,25.2,119.8,25,119.8 M17.8,136.3c-0.2,0-0.3-0.2-0.3-0.3L6,112.8
	c2.1-3.2,4.8-5.8,8.2-7.7l8.2,18.4c0.2,0.3,0.3,0.4,0.7,0.4h4c0.3,0,0.5-0.1,0.7-0.4l8.2-18.4c3.3,1.8,6.1,4.5,8.2,7.7L32.5,136
	c-0.1,0.2-0.2,0.3-0.3,0.3c-0.2,0-0.3-0.2-0.3-0.3l-4.3-9.9c-0.2-0.3-0.3-0.4-0.7-0.4h-4c-0.3,0-0.5,0.1-0.7,0.4L18,136
	C18,136.2,17.9,136.3,17.8,136.3 M25,150c13.8,0,25-11.2,25-25s-11.2-25-25-25S0,111.2,0,125S11.2,150,25,150"/>
<rect x="23.5" y="-285.5" class="st0" width="3.5" height="375"/>
<rect x="23.5" y="160.5" class="st0" width="3.5" height="375"/>
</svg>
