<?xml version="1.0" encoding="utf-8"?>
<!-- Generator: Adobe Illustrator 24.2.0, SVG Export Plug-In . SVG Version: 6.00 Build 0)  -->
<svg version="1.1" id="logo_secu" class="abs center_w febiac black" xmlns="http://www.w3.org/2000/svg" xmlns:xlink="http://www.w3.org/1999/xlink" x="0px" y="0px"
	 viewBox="0 0 293.4 24" style="enable-background:new 0 0 293.4 24;" xml:space="preserve">
<g>
	<path style="fill:#FFFFFF;stroke:#000000;stroke-width:0.721;" d="M117.8,11.2c0.4,0.4,0.4,1.1,0,1.5l-10.5,10.7
		c-0.4,0.4-1.1,0.4-1.5,0L95,12.9c-0.4-0.4-0.4-1.1,0-1.5l10.5-10.7c0.4-0.4,1.1-0.4,1.5,0L117.8,11.2z"/>
	<path style="fill:#F5C900;" d="M114.3,11.5c0.3,0.3,0.3,0.8,0,1L107,20c-0.3,0.3-0.8,0.3-1,0l-7.5-7.3c-0.3-0.3-0.3-0.8,0-1
		l7.3-7.5c0.3-0.3,0.8-0.3,1,0L114.3,11.5z"/>
	<path style="fill:none;stroke:#000000;stroke-width:0.587;" d="M114.3,11.5c0.3,0.3,0.3,0.8,0,1L107,20c-0.3,0.3-0.8,0.3-1,0
		l-7.5-7.3c-0.3-0.3-0.3-0.8,0-1l7.3-7.5c0.3-0.3,0.8-0.3,1,0L114.3,11.5z"/>
	<path style="fill:#44B034;" d="M108.4,11.1c0-0.8-0.9-1.5-2-1.5s-2,0.7-2,1.5l-0.5,3.4v0.1c0,0.5,1.1,1,2.5,1s2.5-0.5,2.5-1
		L108.4,11.1z"/>
	<path style="fill:none;stroke:#000000;stroke-width:0.336;" d="M108.4,11.1c0-0.8-0.9-1.5-2-1.5s-2,0.7-2,1.5l-0.5,3.4v0.1
		c0,0.5,1.1,1,2.5,1s2.5-0.5,2.5-1L108.4,11.1z"/>
	<path style="fill:#DEDEDE;" d="M108.9,14.4c-0.1,0.7-1.2,1.2-2.6,1.2c-1.3,0-2.4-0.6-2.6-1.2c-0.3,0.1-0.3,0.7-0.3,0.8
		c0,0.6,1.3,1.4,2.9,1.4s2.9-0.9,2.9-1.4C109.3,15.1,109.3,14.5,108.9,14.4z"/>
	<path style="fill:none;stroke:#000000;stroke-width:0.364;" d="M108.9,14.4c-0.1,0.7-1.2,1.2-2.6,1.2c-1.3,0-2.4-0.6-2.6-1.2
		c-0.3,0.1-0.3,0.7-0.3,0.8c0,0.6,1.3,1.4,2.9,1.4s2.9-0.9,2.9-1.4C109.3,15.1,109.3,14.5,108.9,14.4z"/>
	<path style="fill:#FFFFFF;" d="M105.4,10.7c0,0-0.5,0.3-0.5,0.7s-0.3,2.7-0.3,2.7s0.1,0.2,0.7,0.3l0.1-2.9
		C105.4,11.5,105.3,11,105.4,10.7"/>
	<line style="fill:none;" x1="106.2" y1="8.5" x2="106.2" y2="6.7"/>
	<line style="fill:none;stroke:#000000;stroke-width:0.234;" x1="106.2" y1="8.5" x2="106.2" y2="6.7"/>
	<line style="fill:none;" x1="107.7" y1="8.8" x2="108.4" y2="7.6"/>
	<line style="fill:none;stroke:#000000;stroke-width:0.234;" x1="107.7" y1="8.8" x2="108.4" y2="7.6"/>
	<line style="fill:none;" x1="108.7" y1="9.5" x2="109.7" y2="8.6"/>
	<line style="fill:none;stroke:#000000;stroke-width:0.234;" x1="108.7" y1="9.5" x2="109.7" y2="8.6"/>
	<line style="fill:none;" x1="104.8" y1="8.8" x2="104" y2="7.6"/>
	<line style="fill:none;stroke:#000000;stroke-width:0.234;" x1="104.8" y1="8.8" x2="104" y2="7.6"/>
	<line style="fill:none;" x1="104" y1="9.6" x2="102.9" y2="8.7"/>
	<line style="fill:none;stroke:#000000;stroke-width:0.234;" x1="104" y1="9.6" x2="102.9" y2="8.7"/>
	<path style="fill:#357C33;" d="M108.3,11c0.1,0.2,0.4,3.7,0.4,3.7s-0.2,0.3-0.5,0.5c-0.2,0.1-0.3-3.6-0.3-4.1s-0.6-1-0.8-1.1
		C107,9.9,108,10,108.3,11"/>
	<path id="Layer_1" d="M30.3,11.5c-3,0-5.3,2.3-5.3,5.5s2.4,5.4,5.6,5.4c2.2,0,3.8-1,4.7-3l-2.7-0.7c-0.3,0.7-1,1.1-1.9,1.1
		c-1.2,0-2.1-0.8-2.3-2h7.2v-0.7C35.6,13.7,33.4,11.5,30.3,11.5z M28.2,15.8c0.3-1.3,1-1.8,2.1-1.8s1.9,0.6,2,1.8H28.2z M40.9,8.7
		h-3.2v3.1H36v2.7h1.7v7.6h3.2v-7.6h2.4v-2.7h-2.4V8.7z M18.1,8.1l1.5,1.8v12.3H23v-15h-4.4C18.1,7.2,17.9,7.7,18.1,8.1z M49,11.5
		c-3,0-5.3,2.3-5.3,5.5s2.4,5.4,5.6,5.4c2.2,0,3.8-1,4.7-3l-2.7-0.7c-0.3,0.7-1,1.1-1.9,1.1c-1.2,0-2.1-0.8-2.3-2h7.4v-0.7
		C54.3,13.7,52.1,11.5,49,11.5z M46.9,15.8c0.3-1.3,1-1.8,2.1-1.8s1.9,0.6,2,1.8H46.9z M58.8,13.4L58.8,13.4v-1.6h-3v10.3H59v-4.5
		c0-2.3,1.1-3,2.5-3c0.3,0,0.5,0,0.7,0.1v-3c-0.2-0.1-0.4-0.2-0.8-0.2C60.3,11.7,59.3,12.3,58.8,13.4z M68.3,11.5
		c-3,0-5.3,2.3-5.3,5.5s2.4,5.4,5.6,5.4c2.2,0,3.8-1,4.7-3l-2.7-0.7c-0.3,0.7-1,1.1-1.9,1.1c-1.2,0-2.1-0.8-2.3-2h7.2v-0.7
		C73.6,13.7,71.4,11.5,68.3,11.5z M66.2,15.8c0.3-1.3,1-1.8,2.1-1.8s1.9,0.6,2,1.8H66.2z M81.2,11.5c-1.4,0-2.5,0.7-3.1,1.5l0,0
		v-1.2h-3v10.3h3.2v-5.9c0-1.2,0.8-2,1.8-2c0.9,0,1.5,0.6,1.5,1.8v6h3.2v-6.7C84.8,12.9,83.4,11.5,81.2,11.5z M4.7,7.2H0v14.9h4.1
		c5,0,8.8-1.9,8.8-7.5C13,10.2,10,7.2,4.7,7.2z M4.8,19.1H3.4v-8.8h1.4c3,0,4.7,1.7,4.7,4.4C9.5,17.3,7.9,19.1,4.8,19.1z M15,5.9
		L13.4,5c-0.3-0.2-0.8,0-0.8,0.5v1.7v1.7c0,0.4,0.4,0.7,0.8,0.5l1.5-0.9l1.5-0.9c0.4-0.2,0.4-0.7,0-0.9L15,5.9z"/>
	<path d="M125,19.4h-1.6v-1.6h3.2v4.7h-0.5l-0.3-0.6c-0.6,0.5-1.3,0.7-2,0.7c-2.3,0-3.8-2.2-3.8-4.9s1.5-4.9,3.8-4.9
		c1.1,0,2.3,0.7,2.9,1.8l-0.9,0.9c-0.6-0.8-1.2-1.1-1.9-1.1c-1.2,0-2.2,1.3-2.2,3.3s1,3.3,2.2,3.3c0.4,0,0.7-0.1,1.1-0.4L125,19.4
		 M129,15.4h3.5v1.1h-2.4V18h2.4v1.1h-2.4v2.2h2.4v1.1H129V15.4 M134.7,15.4h3.5v1.1h-2.4V18h2.4v1.1h-2.4v2.2h2.4v1.1h-3.5V15.4
		 M140.4,15.4h3.8v1.1h-2.6V18h2.6v1.1h-2.6v3.3h-1.2V15.4 M151.9,22.5h-0.2l-2.8-7.1h1.2l1.7,4.2l1.7-4.2h1.3L151.9,22.5
		 M158.1,21.5c0.8,0,1.2-1.1,1.2-2.5s-0.4-2.5-1.2-2.5s-1.2,1.1-1.2,2.5C156.9,20.3,157.3,21.5,158.1,21.5 M158.1,15.3
		c1.6,0,2.5,1.7,2.5,3.7s-0.9,3.6-2.5,3.6s-2.5-1.6-2.5-3.6S156.5,15.3,158.1,15.3z M165,21.5c0.8,0,1.2-1.1,1.2-2.5
		s-0.4-2.5-1.2-2.5s-1.2,1.1-1.2,2.5C163.8,20.3,164.2,21.5,165,21.5 M165,15.3c1.6,0,2.5,1.7,2.5,3.7s-0.9,3.6-2.5,3.6
		s-2.5-1.6-2.5-3.6S163.4,15.3,165,15.3z M172.9,17.8c0-0.7-0.5-1.2-1.2-1.2c-0.1,0-1.1,0-1.1,0V19h1.1
		C172.4,19,172.9,18.5,172.9,17.8 M174.7,22.5h-1.4l-1.7-2.3c-0.3,0-0.9,0-0.9,0v2.4h-1.2v-7.1h2.2c1.3,0,2.4,1.1,2.4,2.4
		c0,0.9-0.5,1.7-1.3,2.1L174.7,22.5z M179.8,17.8c0-0.7-0.5-1.2-1.2-1.2c-0.1,0-1.1,0-1.1,0V19h1.1C179.3,19,179.8,18.5,179.8,17.8
		 M181.6,22.5h-1.4l-1.7-2.4c-0.3,0-0.9,0-0.9,0v2.4h-1.2v-7.1h2.2c1.3,0,2.4,1.1,2.4,2.4c0,0.9-0.5,1.7-1.3,2.1L181.6,22.5z
		 M186.8,18c0-1-0.5-1.5-1.2-1.5c-0.6,0-1.2,0.5-1.2,1.5v0.9h2.4V18 M184.5,22.5h-1.2V18c0-1.7,1.1-2.7,2.4-2.7s2.4,1,2.4,2.7v4.5
		h-1.2v-2.4h-2.4C184.5,20,184.5,22.5,184.5,22.5z M193.8,15.4h1.1v7H194l-2.8-4.5v4.5h-1v-7h0.9l2.7,4.5L193.8,15.4 M200.7,20.1
		h-1.2v-1.2h2.4v3.5h-0.4l-0.2-0.4c-0.4,0.4-1,0.6-1.5,0.6c-1.7,0-2.9-1.6-2.9-3.6s1.2-3.7,2.9-3.7c0.8,0,1.7,0.5,2.2,1.4l-0.7,0.7
		c-0.5-0.6-0.9-0.8-1.4-0.8c-0.9,0-1.6,0.9-1.6,2.5c0,1.5,0.8,2.5,1.6,2.5c0.3,0,0.6-0.1,0.8-0.3L200.7,20.1 M210.9,18
		c0-1-0.5-1.5-1.2-1.5c-0.6,0-1.2,0.5-1.2,1.5v0.9h2.4V18 M208.5,22.5h-1.2V18c0-1.7,1.1-2.7,2.4-2.7s2.4,1,2.4,2.7v4.5h-1.2v-2.4
		h-2.4C208.5,20,208.5,22.5,208.5,22.5z M217.8,18c0-1-0.5-1.5-1.2-1.5c-0.6,0-1.2,0.5-1.2,1.5v0.9h2.4V18 M215.4,22.5h-1.2V18
		c0-1.7,1.1-2.7,2.4-2.7s2.4,1,2.4,2.7v4.5h-1.2v-2.4h-2.4C215.4,20,215.4,22.5,215.4,22.5z M224.8,15.4h1v7H225l-2.8-4.5v4.5h-1.1
		v-7h0.9l2.8,4.5L224.8,15.4 M234.2,22.5H234l-2.8-7.1h1.3l1.6,4.2l1.7-4.2h1.3L234.2,22.5 M238.1,15.4h3.5v1.1h-2.4V18h2.4v1.1
		h-2.4v2.2h2.4v1.1h-3.5V15.4 M244.9,16.5h-1.1v-1.1h3.5v1.1h-1.2v4.8h1.2v1.1h-3.5v-1.1h1.1V16.5 M250.7,21.4h2v1.1h-3.2v-7h1.2
		V21.4 M255.2,16.5H254v-1.1h3.5v1.1h-1.1v4.8h1.1v1.1H254v-1.1h1.2V16.5 M263.4,21.1c-0.3,0.2-0.6,0.3-0.8,0.3
		c-0.9,0-1.6-0.9-1.6-2.5c0-1.5,0.8-2.5,1.6-2.5c0.5,0,1,0.3,1.4,0.8l0.7-0.7c-0.5-0.8-1.3-1.4-2.2-1.4c-1.7,0-2.9,1.7-2.9,3.7
		s1.2,3.6,2.9,3.6c0.5,0,1.1-0.2,1.5-0.6l0.2,0.4h0.4v-3.5h-2.4v1.2h1.2L263.4,21.1 M270.1,18v-2.6h1.2v7h-1.2v-3.3h-2.3v3.3h-1.2
		v-7h1.2V18H270.1 M273.5,15.4h3.5v1.1h-2.4V18h2.4v1.1h-2.4v2.2h2.4v1.1h-3.5V15.4 M280.4,16.5h-1.2v-1.1h3.5v1.1h-1.2v4.8h1.2v1.1
		h-3.5v-1.1h1.2V16.5 M286.1,21.4h0.5c1,0,1.9-1.1,1.9-2.4s-0.8-2.4-1.9-2.4c-0.2,0-0.5,0-0.5,0V21.4 M284.9,15.4h1.7
		c1.7,0,3.2,1.6,3.2,3.5c0,2-1.4,3.5-3.2,3.5c-0.2,0-1.7,0-1.7,0V15.4z M293.4,21.5c0-0.6-0.5-1.1-1.1-1.1s-1.1,0.5-1.1,1.1
		s0.5,1.1,1.1,1.1C292.8,22.6,293.4,22.1,293.4,21.5"/>
</g>
</svg>
