<svg version="1.1" id="logo" class="abs" xmlns="http://www.w3.org/2000/svg" xmlns:xlink="http://www.w3.org/1999/xlink" x="0px" y="0px"
	 viewBox="0 0 283.4 283.4" style="enable-background:new 0 0 283.4 283.4;" xml:space="preserve">
<path style="fill:#001e50" d="M141.7,270.3c-70.5,0-128.3-58.2-128.3-128.7c0-15.8,2.8-30.9,8.1-44.9l75,151c1,2,2.2,3.6,4.6,3.6c2.4,0,3.7-1.6,4.6-3.6l34.4-77.4c0.4-0.8,0.8-1.6,1.6-1.6c0.8,0,1.2,0.8,1.6,1.6l34.4,77.4c0.9,2,2.2,3.6,4.6,3.6s3.6-1.6,4.6-3.6l75-151c5.3,14.1,8.1,29.1,8.1,44.9C269.9,212.1,212.1,270.3,141.7,270.3 M141.7,112.6c-0.8,0-1.2-0.8-1.6-1.6L99.7,20.3c13.1-4.8,27.3-7.3,42-7.3c14.6,0,28.9,2.6,42,7.3L143.2,111C142.9,111.8,142.5,112.6,141.7,112.6 M100.7,205.6c-0.8,0-1.2-0.8-1.6-1.6L33.8,72.4C45.5,54.6,61.1,39.5,79.9,29l46.9,104.5c0.8,2,2,2.4,3.6,2.4H153c1.6,0,2.8-0.4,3.6-2.4L203.5,29c18.8,10.5,34.4,25.5,46.1,43.4L184.2,204c-0.4,0.8-0.8,1.6-1.6,1.6c-0.8,0-1.2-0.8-1.6-1.6l-24.5-56.2c-0.8-2-2-2.4-3.6-2.4h-22.6c-1.6,0-2.8,0.4-3.6,2.4L102.2,204C101.9,204.8,101.5,205.6,100.7,205.6 M141.7,283.4c78.4,0,141.7-63.3,141.7-141.7S220.1,0,141.7,0S0,63.3,0,141.7S63.3,283.4,141.7,283.4"/>
</svg>
